<svg width="1440" height="545" viewBox="0 0 1440 545" fill="none" xmlns="http://www.w3.org/2000/svg">
<mask id="path-1-inside-1_21_3340" fill="white">
<path fill-rule="evenodd" clip-rule="evenodd" d="M720 35C737.293 35 751.658 22.4578 754.492 5.97347C755.054 2.7077 757.686 0 761 0H1434C1437.31 0 1440 2.68629 1440 6V539C1440 542.314 1437.31 545 1434 545H5.99999C2.68629 545 0 542.314 0 539V5.99999C0 2.68628 2.68629 0 6 0H679C682.314 0 684.946 2.7077 685.508 5.97348C688.342 22.4578 702.707 35 720 35Z"/>
</mask>
<path fill-rule="evenodd" clip-rule="evenodd" d="M720 35C737.293 35 751.658 22.4578 754.492 5.97347C755.054 2.7077 757.686 0 761 0H1434C1437.31 0 1440 2.68629 1440 6V539C1440 542.314 1437.31 545 1434 545H5.99999C2.68629 545 0 542.314 0 539V5.99999C0 2.68628 2.68629 0 6 0H679C682.314 0 684.946 2.7077 685.508 5.97348C688.342 22.4578 702.707 35 720 35Z" fill="#F5FBFE"/>
<path d="M685.508 5.97348L684.522 6.14295L685.508 5.97348ZM754.492 5.97347L755.478 6.14295L754.492 5.97347ZM753.507 5.804C750.753 21.8166 736.798 34 720 34V36C737.789 36 752.562 23.099 755.478 6.14295L753.507 5.804ZM761 1H1434V-1H761V1ZM1439 6V539H1441V6H1439ZM1434 544H5.99999V546H1434V544ZM1 539V5.99999H-1V539H1ZM6 1H679V-1H6V1ZM720 34C703.202 34 689.247 21.8166 686.493 5.804L684.522 6.14295C687.438 23.099 702.211 36 720 36V34ZM679 1C681.727 1 684.025 3.25142 684.522 6.14295L686.493 5.804C685.867 2.16398 682.9 -1 679 -1V1ZM5.99999 544C3.23857 544 1 541.761 1 539H-1C-1 542.866 2.134 546 5.99999 546V544ZM1439 539C1439 541.761 1436.76 544 1434 544V546C1437.87 546 1441 542.866 1441 539H1439ZM1434 1C1436.76 1 1439 3.23858 1439 6H1441C1441 2.134 1437.87 -1 1434 -1V1ZM1 5.99999C1 3.23857 3.23857 1 6 1V-1C2.13401 -1 -1 2.134 -1 5.99999H1ZM755.478 6.14295C755.975 3.25142 758.273 1 761 1V-1C757.1 -1 754.133 2.16398 753.507 5.804L755.478 6.14295Z" fill="#1192F0" fill-opacity="0.2" mask="url(#path-1-inside-1_21_3340)"/>
</svg>
