<svg width="371" height="348" viewBox="0 0 371 348" fill="none" xmlns="http://www.w3.org/2000/svg">
<g opacity="0.4">
<mask id="mask0_10_2772" style="mask-type:alpha" maskUnits="userSpaceOnUse" x="0" y="0" width="371" height="348">
<rect width="371" height="348" rx="174" fill="url(#paint0_radial_10_2772)"/>
</mask>
<g mask="url(#mask0_10_2772)">
<path d="M0 0H3V3H0V0Z" fill="#F5FBFE"/>
<path d="M0 23H3V26H0V23Z" fill="#F5FBFE"/>
<path d="M0 46H3V49H0V46Z" fill="#F5FBFE"/>
<path d="M0 69H3V72H0V69Z" fill="#F5FBFE"/>
<path d="M0 92H3V95H0V92Z" fill="#F5FBFE"/>
<path d="M0 115H3V118H0V115Z" fill="#F5FBFE"/>
<path d="M0 138H3V141H0V138Z" fill="#F5FBFE"/>
<path d="M0 161H3V164H0V161Z" fill="#F5FBFE"/>
<path d="M0 184H3V187H0V184Z" fill="#F5FBFE"/>
<path d="M0 207H3V210H0V207Z" fill="#F5FBFE"/>
<path d="M0 230H3V233H0V230Z" fill="#F5FBFE"/>
<path d="M0 253H3V256H0V253Z" fill="#F5FBFE"/>
<path d="M0 276H3V279H0V276Z" fill="#F5FBFE"/>
<path d="M0 299H3V302H0V299Z" fill="#F5FBFE"/>
<path d="M0 322H3V325H0V322Z" fill="#F5FBFE"/>
<path d="M0 345H3V348H0V345Z" fill="#F5FBFE"/>
<path d="M23 0H26V3H23V0Z" fill="#F5FBFE"/>
<path d="M23 23H26V26H23V23Z" fill="#F5FBFE"/>
<path d="M23 46H26V49H23V46Z" fill="#F5FBFE"/>
<path d="M23 69H26V72H23V69Z" fill="#F5FBFE"/>
<path d="M23 92H26V95H23V92Z" fill="#F5FBFE"/>
<path d="M23 115H26V118H23V115Z" fill="#F5FBFE"/>
<path d="M23 138H26V141H23V138Z" fill="#F5FBFE"/>
<path d="M23 161H26V164H23V161Z" fill="#F5FBFE"/>
<path d="M23 184H26V187H23V184Z" fill="#F5FBFE"/>
<path d="M23 207H26V210H23V207Z" fill="#F5FBFE"/>
<path d="M23 230H26V233H23V230Z" fill="#F5FBFE"/>
<path d="M23 253H26V256H23V253Z" fill="#F5FBFE"/>
<path d="M23 276H26V279H23V276Z" fill="#F5FBFE"/>
<path d="M23 299H26V302H23V299Z" fill="#F5FBFE"/>
<path d="M23 322H26V325H23V322Z" fill="#F5FBFE"/>
<path d="M23 345H26V348H23V345Z" fill="#F5FBFE"/>
<path d="M46 0H49V3H46V0Z" fill="#F5FBFE"/>
<path d="M46 23H49V26H46V23Z" fill="#F5FBFE"/>
<path d="M46 46H49V49H46V46Z" fill="#F5FBFE"/>
<path d="M46 69H49V72H46V69Z" fill="#F5FBFE"/>
<path d="M46 92H49V95H46V92Z" fill="#F5FBFE"/>
<path d="M46 115H49V118H46V115Z" fill="#F5FBFE"/>
<path d="M46 138H49V141H46V138Z" fill="#F5FBFE"/>
<path d="M46 161H49V164H46V161Z" fill="#F5FBFE"/>
<path d="M46 184H49V187H46V184Z" fill="#F5FBFE"/>
<path d="M46 207H49V210H46V207Z" fill="#F5FBFE"/>
<path d="M46 230H49V233H46V230Z" fill="#F5FBFE"/>
<path d="M46 253H49V256H46V253Z" fill="#F5FBFE"/>
<path d="M46 276H49V279H46V276Z" fill="#F5FBFE"/>
<path d="M46 299H49V302H46V299Z" fill="#F5FBFE"/>
<path d="M46 322H49V325H46V322Z" fill="#F5FBFE"/>
<path d="M46 345H49V348H46V345Z" fill="#F5FBFE"/>
<path d="M69 0H72V3H69V0Z" fill="#F5FBFE"/>
<path d="M69 23H72V26H69V23Z" fill="#F5FBFE"/>
<path d="M69 46H72V49H69V46Z" fill="#F5FBFE"/>
<path d="M69 69H72V72H69V69Z" fill="#F5FBFE"/>
<path d="M69 92H72V95H69V92Z" fill="#F5FBFE"/>
<path d="M69 115H72V118H69V115Z" fill="#F5FBFE"/>
<path d="M69 138H72V141H69V138Z" fill="#F5FBFE"/>
<path d="M69 161H72V164H69V161Z" fill="#F5FBFE"/>
<path d="M69 184H72V187H69V184Z" fill="#F5FBFE"/>
<path d="M69 207H72V210H69V207Z" fill="#F5FBFE"/>
<path d="M69 230H72V233H69V230Z" fill="#F5FBFE"/>
<path d="M69 253H72V256H69V253Z" fill="#F5FBFE"/>
<path d="M69 276H72V279H69V276Z" fill="#F5FBFE"/>
<path d="M69 299H72V302H69V299Z" fill="#F5FBFE"/>
<path d="M69 322H72V325H69V322Z" fill="#F5FBFE"/>
<path d="M69 345H72V348H69V345Z" fill="#F5FBFE"/>
<path d="M92 0H95V3H92V0Z" fill="#F5FBFE"/>
<path d="M92 23H95V26H92V23Z" fill="#F5FBFE"/>
<path d="M92 46H95V49H92V46Z" fill="#F5FBFE"/>
<path d="M92 69H95V72H92V69Z" fill="#F5FBFE"/>
<path d="M92 92H95V95H92V92Z" fill="#F5FBFE"/>
<path d="M92 115H95V118H92V115Z" fill="#F5FBFE"/>
<path d="M92 138H95V141H92V138Z" fill="#F5FBFE"/>
<path d="M92 161H95V164H92V161Z" fill="#F5FBFE"/>
<path d="M92 184H95V187H92V184Z" fill="#F5FBFE"/>
<path d="M92 207H95V210H92V207Z" fill="#F5FBFE"/>
<path d="M92 230H95V233H92V230Z" fill="#F5FBFE"/>
<path d="M92 253H95V256H92V253Z" fill="#F5FBFE"/>
<path d="M92 276H95V279H92V276Z" fill="#F5FBFE"/>
<path d="M92 299H95V302H92V299Z" fill="#F5FBFE"/>
<path d="M92 322H95V325H92V322Z" fill="#F5FBFE"/>
<path d="M92 345H95V348H92V345Z" fill="#F5FBFE"/>
<path d="M115 0H118V3H115V0Z" fill="#F5FBFE"/>
<path d="M115 23H118V26H115V23Z" fill="#F5FBFE"/>
<path d="M115 46H118V49H115V46Z" fill="#F5FBFE"/>
<path d="M115 69H118V72H115V69Z" fill="#F5FBFE"/>
<path d="M115 92H118V95H115V92Z" fill="#F5FBFE"/>
<path d="M115 115H118V118H115V115Z" fill="#F5FBFE"/>
<path d="M115 138H118V141H115V138Z" fill="#F5FBFE"/>
<path d="M115 161H118V164H115V161Z" fill="#F5FBFE"/>
<path d="M115 184H118V187H115V184Z" fill="#F5FBFE"/>
<path d="M115 207H118V210H115V207Z" fill="#F5FBFE"/>
<path d="M115 230H118V233H115V230Z" fill="#F5FBFE"/>
<path d="M115 253H118V256H115V253Z" fill="#F5FBFE"/>
<path d="M115 276H118V279H115V276Z" fill="#F5FBFE"/>
<path d="M115 299H118V302H115V299Z" fill="#F5FBFE"/>
<path d="M115 322H118V325H115V322Z" fill="#F5FBFE"/>
<path d="M115 345H118V348H115V345Z" fill="#F5FBFE"/>
<path d="M138 0H141V3H138V0Z" fill="#F5FBFE"/>
<path d="M138 23H141V26H138V23Z" fill="#F5FBFE"/>
<path d="M138 46H141V49H138V46Z" fill="#F5FBFE"/>
<path d="M138 69H141V72H138V69Z" fill="#F5FBFE"/>
<path d="M138 92H141V95H138V92Z" fill="#F5FBFE"/>
<path d="M138 115H141V118H138V115Z" fill="#F5FBFE"/>
<path d="M138 138H141V141H138V138Z" fill="#F5FBFE"/>
<path d="M138 161H141V164H138V161Z" fill="#F5FBFE"/>
<path d="M138 184H141V187H138V184Z" fill="#F5FBFE"/>
<path d="M138 207H141V210H138V207Z" fill="#F5FBFE"/>
<path d="M138 230H141V233H138V230Z" fill="#F5FBFE"/>
<path d="M138 253H141V256H138V253Z" fill="#F5FBFE"/>
<path d="M138 276H141V279H138V276Z" fill="#F5FBFE"/>
<path d="M138 299H141V302H138V299Z" fill="#F5FBFE"/>
<path d="M138 322H141V325H138V322Z" fill="#F5FBFE"/>
<path d="M138 345H141V348H138V345Z" fill="#F5FBFE"/>
<path d="M161 0H164V3H161V0Z" fill="#F5FBFE"/>
<path d="M161 23H164V26H161V23Z" fill="#F5FBFE"/>
<path d="M161 46H164V49H161V46Z" fill="#F5FBFE"/>
<path d="M161 69H164V72H161V69Z" fill="#F5FBFE"/>
<path d="M161 92H164V95H161V92Z" fill="#F5FBFE"/>
<path d="M161 115H164V118H161V115Z" fill="#F5FBFE"/>
<path d="M161 138H164V141H161V138Z" fill="#F5FBFE"/>
<path d="M161 161H164V164H161V161Z" fill="#F5FBFE"/>
<path d="M161 184H164V187H161V184Z" fill="#F5FBFE"/>
<path d="M161 207H164V210H161V207Z" fill="#F5FBFE"/>
<path d="M161 230H164V233H161V230Z" fill="#F5FBFE"/>
<path d="M161 253H164V256H161V253Z" fill="#F5FBFE"/>
<path d="M161 276H164V279H161V276Z" fill="#F5FBFE"/>
<path d="M161 299H164V302H161V299Z" fill="#F5FBFE"/>
<path d="M161 322H164V325H161V322Z" fill="#F5FBFE"/>
<path d="M161 345H164V348H161V345Z" fill="#F5FBFE"/>
<path d="M184 0H187V3H184V0Z" fill="#F5FBFE"/>
<path d="M184 23H187V26H184V23Z" fill="#F5FBFE"/>
<path d="M184 46H187V49H184V46Z" fill="#F5FBFE"/>
<path d="M184 69H187V72H184V69Z" fill="#F5FBFE"/>
<path d="M184 92H187V95H184V92Z" fill="#F5FBFE"/>
<path d="M184 115H187V118H184V115Z" fill="#F5FBFE"/>
<path d="M184 138H187V141H184V138Z" fill="#F5FBFE"/>
<path d="M184 161H187V164H184V161Z" fill="#F5FBFE"/>
<path d="M184 184H187V187H184V184Z" fill="#F5FBFE"/>
<path d="M184 207H187V210H184V207Z" fill="#F5FBFE"/>
<path d="M184 230H187V233H184V230Z" fill="#F5FBFE"/>
<path d="M184 253H187V256H184V253Z" fill="#F5FBFE"/>
<path d="M184 276H187V279H184V276Z" fill="#F5FBFE"/>
<path d="M184 299H187V302H184V299Z" fill="#F5FBFE"/>
<path d="M184 322H187V325H184V322Z" fill="#F5FBFE"/>
<path d="M184 345H187V348H184V345Z" fill="#F5FBFE"/>
<path d="M207 0H210V3H207V0Z" fill="#F5FBFE"/>
<path d="M207 23H210V26H207V23Z" fill="#F5FBFE"/>
<path d="M207 46H210V49H207V46Z" fill="#F5FBFE"/>
<path d="M207 69H210V72H207V69Z" fill="#F5FBFE"/>
<path d="M207 92H210V95H207V92Z" fill="#F5FBFE"/>
<path d="M207 115H210V118H207V115Z" fill="#F5FBFE"/>
<path d="M207 138H210V141H207V138Z" fill="#F5FBFE"/>
<path d="M207 161H210V164H207V161Z" fill="#F5FBFE"/>
<path d="M207 184H210V187H207V184Z" fill="#F5FBFE"/>
<path d="M207 207H210V210H207V207Z" fill="#F5FBFE"/>
<path d="M207 230H210V233H207V230Z" fill="#F5FBFE"/>
<path d="M207 253H210V256H207V253Z" fill="#F5FBFE"/>
<path d="M207 276H210V279H207V276Z" fill="#F5FBFE"/>
<path d="M207 299H210V302H207V299Z" fill="#F5FBFE"/>
<path d="M207 322H210V325H207V322Z" fill="#F5FBFE"/>
<path d="M207 345H210V348H207V345Z" fill="#F5FBFE"/>
<path d="M230 0H233V3H230V0Z" fill="#F5FBFE"/>
<path d="M230 23H233V26H230V23Z" fill="#F5FBFE"/>
<path d="M230 46H233V49H230V46Z" fill="#F5FBFE"/>
<path d="M230 69H233V72H230V69Z" fill="#F5FBFE"/>
<path d="M230 92H233V95H230V92Z" fill="#F5FBFE"/>
<path d="M230 115H233V118H230V115Z" fill="#F5FBFE"/>
<path d="M230 138H233V141H230V138Z" fill="#F5FBFE"/>
<path d="M230 161H233V164H230V161Z" fill="#F5FBFE"/>
<path d="M230 184H233V187H230V184Z" fill="#F5FBFE"/>
<path d="M230 207H233V210H230V207Z" fill="#F5FBFE"/>
<path d="M230 230H233V233H230V230Z" fill="#F5FBFE"/>
<path d="M230 253H233V256H230V253Z" fill="#F5FBFE"/>
<path d="M230 276H233V279H230V276Z" fill="#F5FBFE"/>
<path d="M230 299H233V302H230V299Z" fill="#F5FBFE"/>
<path d="M230 322H233V325H230V322Z" fill="#F5FBFE"/>
<path d="M230 345H233V348H230V345Z" fill="#F5FBFE"/>
<path d="M253 0H256V3H253V0Z" fill="#F5FBFE"/>
<path d="M253 23H256V26H253V23Z" fill="#F5FBFE"/>
<path d="M253 46H256V49H253V46Z" fill="#F5FBFE"/>
<path d="M253 69H256V72H253V69Z" fill="#F5FBFE"/>
<path d="M253 92H256V95H253V92Z" fill="#F5FBFE"/>
<path d="M253 115H256V118H253V115Z" fill="#F5FBFE"/>
<path d="M253 138H256V141H253V138Z" fill="#F5FBFE"/>
<path d="M253 161H256V164H253V161Z" fill="#F5FBFE"/>
<path d="M253 184H256V187H253V184Z" fill="#F5FBFE"/>
<path d="M253 207H256V210H253V207Z" fill="#F5FBFE"/>
<path d="M253 230H256V233H253V230Z" fill="#F5FBFE"/>
<path d="M253 253H256V256H253V253Z" fill="#F5FBFE"/>
<path d="M253 276H256V279H253V276Z" fill="#F5FBFE"/>
<path d="M253 299H256V302H253V299Z" fill="#F5FBFE"/>
<path d="M253 322H256V325H253V322Z" fill="#F5FBFE"/>
<path d="M253 345H256V348H253V345Z" fill="#F5FBFE"/>
<path d="M276 0H279V3H276V0Z" fill="#F5FBFE"/>
<path d="M276 23H279V26H276V23Z" fill="#F5FBFE"/>
<path d="M276 46H279V49H276V46Z" fill="#F5FBFE"/>
<path d="M276 69H279V72H276V69Z" fill="#F5FBFE"/>
<path d="M276 92H279V95H276V92Z" fill="#F5FBFE"/>
<path d="M276 115H279V118H276V115Z" fill="#F5FBFE"/>
<path d="M276 138H279V141H276V138Z" fill="#F5FBFE"/>
<path d="M276 161H279V164H276V161Z" fill="#F5FBFE"/>
<path d="M276 184H279V187H276V184Z" fill="#F5FBFE"/>
<path d="M276 207H279V210H276V207Z" fill="#F5FBFE"/>
<path d="M276 230H279V233H276V230Z" fill="#F5FBFE"/>
<path d="M276 253H279V256H276V253Z" fill="#F5FBFE"/>
<path d="M276 276H279V279H276V276Z" fill="#F5FBFE"/>
<path d="M276 299H279V302H276V299Z" fill="#F5FBFE"/>
<path d="M276 322H279V325H276V322Z" fill="#F5FBFE"/>
<path d="M276 345H279V348H276V345Z" fill="#F5FBFE"/>
<path d="M299 0H302V3H299V0Z" fill="#F5FBFE"/>
<path d="M299 23H302V26H299V23Z" fill="#F5FBFE"/>
<path d="M299 46H302V49H299V46Z" fill="#F5FBFE"/>
<path d="M299 69H302V72H299V69Z" fill="#F5FBFE"/>
<path d="M299 92H302V95H299V92Z" fill="#F5FBFE"/>
<path d="M299 115H302V118H299V115Z" fill="#F5FBFE"/>
<path d="M299 138H302V141H299V138Z" fill="#F5FBFE"/>
<path d="M299 161H302V164H299V161Z" fill="#F5FBFE"/>
<path d="M299 184H302V187H299V184Z" fill="#F5FBFE"/>
<path d="M299 207H302V210H299V207Z" fill="#F5FBFE"/>
<path d="M299 230H302V233H299V230Z" fill="#F5FBFE"/>
<path d="M299 253H302V256H299V253Z" fill="#F5FBFE"/>
<path d="M299 276H302V279H299V276Z" fill="#F5FBFE"/>
<path d="M299 299H302V302H299V299Z" fill="#F5FBFE"/>
<path d="M299 322H302V325H299V322Z" fill="#F5FBFE"/>
<path d="M299 345H302V348H299V345Z" fill="#F5FBFE"/>
<path d="M322 0H325V3H322V0Z" fill="#F5FBFE"/>
<path d="M322 23H325V26H322V23Z" fill="#F5FBFE"/>
<path d="M322 46H325V49H322V46Z" fill="#F5FBFE"/>
<path d="M322 69H325V72H322V69Z" fill="#F5FBFE"/>
<path d="M322 92H325V95H322V92Z" fill="#F5FBFE"/>
<path d="M322 115H325V118H322V115Z" fill="#F5FBFE"/>
<path d="M322 138H325V141H322V138Z" fill="#F5FBFE"/>
<path d="M322 161H325V164H322V161Z" fill="#F5FBFE"/>
<path d="M322 184H325V187H322V184Z" fill="#F5FBFE"/>
<path d="M322 207H325V210H322V207Z" fill="#F5FBFE"/>
<path d="M322 230H325V233H322V230Z" fill="#F5FBFE"/>
<path d="M322 253H325V256H322V253Z" fill="#F5FBFE"/>
<path d="M322 276H325V279H322V276Z" fill="#F5FBFE"/>
<path d="M322 299H325V302H322V299Z" fill="#F5FBFE"/>
<path d="M322 322H325V325H322V322Z" fill="#F5FBFE"/>
<path d="M322 345H325V348H322V345Z" fill="#F5FBFE"/>
<path d="M345 0H348V3H345V0Z" fill="#F5FBFE"/>
<path d="M345 23H348V26H345V23Z" fill="#F5FBFE"/>
<path d="M345 46H348V49H345V46Z" fill="#F5FBFE"/>
<path d="M345 69H348V72H345V69Z" fill="#F5FBFE"/>
<path d="M345 92H348V95H345V92Z" fill="#F5FBFE"/>
<path d="M345 115H348V118H345V115Z" fill="#F5FBFE"/>
<path d="M345 138H348V141H345V138Z" fill="#F5FBFE"/>
<path d="M345 161H348V164H345V161Z" fill="#F5FBFE"/>
<path d="M345 184H348V187H345V184Z" fill="#F5FBFE"/>
<path d="M345 207H348V210H345V207Z" fill="#F5FBFE"/>
<path d="M345 230H348V233H345V230Z" fill="#F5FBFE"/>
<path d="M345 253H348V256H345V253Z" fill="#F5FBFE"/>
<path d="M345 276H348V279H345V276Z" fill="#F5FBFE"/>
<path d="M345 299H348V302H345V299Z" fill="#F5FBFE"/>
<path d="M345 322H348V325H345V322Z" fill="#F5FBFE"/>
<path d="M345 345H348V348H345V345Z" fill="#F5FBFE"/>
<path d="M368 0H371V3H368V0Z" fill="#F5FBFE"/>
<path d="M368 23H371V26H368V23Z" fill="#F5FBFE"/>
<path d="M368 46H371V49H368V46Z" fill="#F5FBFE"/>
<path d="M368 69H371V72H368V69Z" fill="#F5FBFE"/>
<path d="M368 92H371V95H368V92Z" fill="#F5FBFE"/>
<path d="M368 115H371V118H368V115Z" fill="#F5FBFE"/>
<path d="M368 138H371V141H368V138Z" fill="#F5FBFE"/>
<path d="M368 161H371V164H368V161Z" fill="#F5FBFE"/>
<path d="M368 184H371V187H368V184Z" fill="#F5FBFE"/>
<path d="M368 207H371V210H368V207Z" fill="#F5FBFE"/>
<path d="M368 230H371V233H368V230Z" fill="#F5FBFE"/>
<path d="M368 253H371V256H368V253Z" fill="#F5FBFE"/>
<path d="M368 276H371V279H368V276Z" fill="#F5FBFE"/>
<path d="M368 299H371V302H368V299Z" fill="#F5FBFE"/>
<path d="M368 322H371V325H368V322Z" fill="#F5FBFE"/>
<path d="M368 345H371V348H368V345Z" fill="#F5FBFE"/>
</g>
</g>
<defs>
<radialGradient id="paint0_radial_10_2772" cx="0" cy="0" r="1" gradientUnits="userSpaceOnUse" gradientTransform="translate(185.5 174) rotate(90) scale(174 185.5)">
<stop stop-color="#D9D9D9"/>
<stop offset="1" stop-color="#D9D9D9" stop-opacity="0"/>
</radialGradient>
</defs>
</svg>
