<svg width="90" height="37" viewBox="0 0 90 37" fill="none" xmlns="http://www.w3.org/2000/svg">
<g clip-path="url(#clip0_35_775)">
<mask id="path-1-inside-1_35_775" fill="white">
<path fill-rule="evenodd" clip-rule="evenodd" d="M45 35C62.2935 35 76.6576 22.4578 79.4923 5.97347C80.0539 2.7077 82.6863 0 86 0H759C762.314 0 765 2.68629 765 6V539C765 542.314 762.314 545 759 545H-669C-672.314 545 -675 542.314 -675 539V5.99999C-675 2.68628 -672.314 0 -669 0H3.99999C7.3137 0 9.94615 2.7077 10.5077 5.97348C13.3424 22.4578 27.7065 35 45 35Z"/>
</mask>
<path fill-rule="evenodd" clip-rule="evenodd" d="M45 35C62.2935 35 76.6576 22.4578 79.4923 5.97347C80.0539 2.7077 82.6863 0 86 0H759C762.314 0 765 2.68629 765 6V539C765 542.314 762.314 545 759 545H-669C-672.314 545 -675 542.314 -675 539V5.99999C-675 2.68628 -672.314 0 -669 0H3.99999C7.3137 0 9.94615 2.7077 10.5077 5.97348C13.3424 22.4578 27.7065 35 45 35Z" fill="#F5FBFE"/>
<path d="M10.5077 5.97348L9.52219 6.14295L10.5077 5.97348ZM79.4923 5.97347L80.4778 6.14295L79.4923 5.97347ZM78.5067 5.804C75.7532 21.8166 61.7984 34 45 34V36C62.7886 36 77.562 23.099 80.4778 6.14295L78.5067 5.804ZM86 1H759V-1H86V1ZM764 6V539H766V6H764ZM759 544H-669V546H759V544ZM-674 539V5.99999H-676V539H-674ZM-669 1H3.99999V-1H-669V1ZM45 34C28.2016 34 14.2468 21.8166 11.4933 5.804L9.52219 6.14295C12.438 23.099 27.2114 36 45 36V34ZM3.99999 1C6.72695 1 9.02497 3.25142 9.52219 6.14295L11.4933 5.804C10.8673 2.16398 7.90045 -1 3.99999 -1V1ZM-669 544C-671.761 544 -674 541.761 -674 539H-676C-676 542.866 -672.866 546 -669 546V544ZM764 539C764 541.761 761.761 544 759 544V546C762.866 546 766 542.866 766 539H764ZM759 1C761.761 1 764 3.23858 764 6H766C766 2.134 762.866 -1 759 -1V1ZM-674 5.99999C-674 3.23857 -671.761 1 -669 1V-1C-672.866 -1 -676 2.134 -676 5.99999H-674ZM80.4778 6.14295C80.975 3.25142 83.273 1 86 1V-1C82.0995 -1 79.1327 2.16398 78.5067 5.804L80.4778 6.14295Z" fill="#1192F0" fill-opacity="0.2" mask="url(#path-1-inside-1_35_775)"/>
</g>
<defs>
<clipPath id="clip0_35_775">
<rect width="90" height="37" fill="white"/>
</clipPath>
</defs>
</svg>
