<svg width="303" height="285" viewBox="0 0 303 285" fill="none" xmlns="http://www.w3.org/2000/svg">
<g opacity="0.8">
<mask id="mask0_104_445" style="mask-type:alpha" maskUnits="userSpaceOnUse" x="0" y="0" width="303" height="285">
<rect width="303" height="284.216" rx="142.108" fill="url(#paint0_radial_104_445)"/>
</mask>
<g mask="url(#mask0_104_445)">
<path d="M0 0H2.45013V2.45013H0V0Z" fill="#28D6B6"/>
<path d="M0 18.7844H2.45013V21.2345H0V18.7844Z" fill="#28D6B6"/>
<path d="M0 37.5687H2.45013V40.0189H0V37.5687Z" fill="#28D6B6"/>
<path d="M0 56.3531H2.45013V58.8032H0V56.3531Z" fill="#28D6B6"/>
<path d="M0 75.1375H2.45013V77.5876H0V75.1375Z" fill="#28D6B6"/>
<path d="M0 93.9218H2.45013V96.372H0V93.9218Z" fill="#28D6B6"/>
<path d="M0 112.706H2.45013V115.156H0V112.706Z" fill="#28D6B6"/>
<path d="M0 131.491H2.45013V133.941H0V131.491Z" fill="#28D6B6"/>
<path d="M0 150.275H2.45013V152.725H0V150.275Z" fill="#28D6B6"/>
<path d="M0 169.059H2.45013V171.509H0V169.059Z" fill="#28D6B6"/>
<path d="M0 187.844H2.45013V190.294H0V187.844Z" fill="#28D6B6"/>
<path d="M0 206.628H2.45013V209.078H0V206.628Z" fill="#28D6B6"/>
<path d="M0 225.412H2.45013V227.863H0V225.412Z" fill="#28D6B6"/>
<path d="M0 244.197H2.45013V246.647H0V244.197Z" fill="#28D6B6"/>
<path d="M0 262.981H2.45013V265.431H0V262.981Z" fill="#28D6B6"/>
<path d="M0 281.766H2.45013V284.216H0V281.766Z" fill="#28D6B6"/>
<path d="M18.7844 0H21.2345V2.45013H18.7844V0Z" fill="#28D6B6"/>
<path d="M18.7844 18.7844H21.2345V21.2345H18.7844V18.7844Z" fill="#28D6B6"/>
<path d="M18.7844 37.5687H21.2345V40.0189H18.7844V37.5687Z" fill="#28D6B6"/>
<path d="M18.7844 56.3531H21.2345V58.8032H18.7844V56.3531Z" fill="#28D6B6"/>
<path d="M18.7844 75.1375H21.2345V77.5876H18.7844V75.1375Z" fill="#28D6B6"/>
<path d="M18.7844 93.9218H21.2345V96.372H18.7844V93.9218Z" fill="#28D6B6"/>
<path d="M18.7844 112.706H21.2345V115.156H18.7844V112.706Z" fill="#28D6B6"/>
<path d="M18.7844 131.491H21.2345V133.941H18.7844V131.491Z" fill="#28D6B6"/>
<path d="M18.7844 150.275H21.2345V152.725H18.7844V150.275Z" fill="#28D6B6"/>
<path d="M18.7844 169.059H21.2345V171.509H18.7844V169.059Z" fill="#28D6B6"/>
<path d="M18.7844 187.844H21.2345V190.294H18.7844V187.844Z" fill="#28D6B6"/>
<path d="M18.7844 206.628H21.2345V209.078H18.7844V206.628Z" fill="#28D6B6"/>
<path d="M18.7844 225.412H21.2345V227.863H18.7844V225.412Z" fill="#28D6B6"/>
<path d="M18.7844 244.197H21.2345V246.647H18.7844V244.197Z" fill="#28D6B6"/>
<path d="M18.7844 262.981H21.2345V265.431H18.7844V262.981Z" fill="#28D6B6"/>
<path d="M18.7844 281.766H21.2345V284.216H18.7844V281.766Z" fill="#28D6B6"/>
<path d="M37.5687 0H40.0189V2.45013H37.5687V0Z" fill="#28D6B6"/>
<path d="M37.5687 18.7844H40.0189V21.2345H37.5687V18.7844Z" fill="#28D6B6"/>
<path d="M37.5687 37.5687H40.0189V40.0189H37.5687V37.5687Z" fill="#28D6B6"/>
<path d="M37.5687 56.3531H40.0189V58.8032H37.5687V56.3531Z" fill="#28D6B6"/>
<path d="M37.5687 75.1375H40.0189V77.5876H37.5687V75.1375Z" fill="#28D6B6"/>
<path d="M37.5687 93.9218H40.0189V96.372H37.5687V93.9218Z" fill="#28D6B6"/>
<path d="M37.5687 112.706H40.0189V115.156H37.5687V112.706Z" fill="#28D6B6"/>
<path d="M37.5687 131.491H40.0189V133.941H37.5687V131.491Z" fill="#28D6B6"/>
<path d="M37.5687 150.275H40.0189V152.725H37.5687V150.275Z" fill="#28D6B6"/>
<path d="M37.5687 169.059H40.0189V171.509H37.5687V169.059Z" fill="#28D6B6"/>
<path d="M37.5687 187.844H40.0189V190.294H37.5687V187.844Z" fill="#28D6B6"/>
<path d="M37.5687 206.628H40.0189V209.078H37.5687V206.628Z" fill="#28D6B6"/>
<path d="M37.5687 225.412H40.0189V227.863H37.5687V225.412Z" fill="#28D6B6"/>
<path d="M37.5687 244.197H40.0189V246.647H37.5687V244.197Z" fill="#28D6B6"/>
<path d="M37.5687 262.981H40.0189V265.431H37.5687V262.981Z" fill="#28D6B6"/>
<path d="M37.5687 281.766H40.0189V284.216H37.5687V281.766Z" fill="#28D6B6"/>
<path d="M56.3531 0H58.8032V2.45013H56.3531V0Z" fill="#28D6B6"/>
<path d="M56.3531 18.7844H58.8032V21.2345H56.3531V18.7844Z" fill="#28D6B6"/>
<path d="M56.3531 37.5687H58.8032V40.0189H56.3531V37.5687Z" fill="#28D6B6"/>
<path d="M56.3531 56.3531H58.8032V58.8032H56.3531V56.3531Z" fill="#28D6B6"/>
<path d="M56.3531 75.1375H58.8032V77.5876H56.3531V75.1375Z" fill="#28D6B6"/>
<path d="M56.3531 93.9218H58.8032V96.372H56.3531V93.9218Z" fill="#28D6B6"/>
<path d="M56.3531 112.706H58.8032V115.156H56.3531V112.706Z" fill="#28D6B6"/>
<path d="M56.3531 131.491H58.8032V133.941H56.3531V131.491Z" fill="#28D6B6"/>
<path d="M56.3531 150.275H58.8032V152.725H56.3531V150.275Z" fill="#28D6B6"/>
<path d="M56.3531 169.059H58.8032V171.509H56.3531V169.059Z" fill="#28D6B6"/>
<path d="M56.3531 187.844H58.8032V190.294H56.3531V187.844Z" fill="#28D6B6"/>
<path d="M56.3531 206.628H58.8032V209.078H56.3531V206.628Z" fill="#28D6B6"/>
<path d="M56.3531 225.412H58.8032V227.863H56.3531V225.412Z" fill="#28D6B6"/>
<path d="M56.3531 244.197H58.8032V246.647H56.3531V244.197Z" fill="#28D6B6"/>
<path d="M56.3531 262.981H58.8032V265.431H56.3531V262.981Z" fill="#28D6B6"/>
<path d="M56.3531 281.766H58.8032V284.216H56.3531V281.766Z" fill="#28D6B6"/>
<path d="M75.1375 0H77.5876V2.45013H75.1375V0Z" fill="#28D6B6"/>
<path d="M75.1375 18.7844H77.5876V21.2345H75.1375V18.7844Z" fill="#28D6B6"/>
<path d="M75.1375 37.5687H77.5876V40.0189H75.1375V37.5687Z" fill="#28D6B6"/>
<path d="M75.1375 56.3531H77.5876V58.8032H75.1375V56.3531Z" fill="#28D6B6"/>
<path d="M75.1375 75.1375H77.5876V77.5876H75.1375V75.1375Z" fill="#28D6B6"/>
<path d="M75.1375 93.9218H77.5876V96.372H75.1375V93.9218Z" fill="#28D6B6"/>
<path d="M75.1375 112.706H77.5876V115.156H75.1375V112.706Z" fill="#28D6B6"/>
<path d="M75.1375 131.491H77.5876V133.941H75.1375V131.491Z" fill="#28D6B6"/>
<path d="M75.1375 150.275H77.5876V152.725H75.1375V150.275Z" fill="#28D6B6"/>
<path d="M75.1375 169.059H77.5876V171.509H75.1375V169.059Z" fill="#28D6B6"/>
<path d="M75.1375 187.844H77.5876V190.294H75.1375V187.844Z" fill="#28D6B6"/>
<path d="M75.1375 206.628H77.5876V209.078H75.1375V206.628Z" fill="#28D6B6"/>
<path d="M75.1375 225.412H77.5876V227.863H75.1375V225.412Z" fill="#28D6B6"/>
<path d="M75.1375 244.197H77.5876V246.647H75.1375V244.197Z" fill="#28D6B6"/>
<path d="M75.1375 262.981H77.5876V265.431H75.1375V262.981Z" fill="#28D6B6"/>
<path d="M75.1375 281.766H77.5876V284.216H75.1375V281.766Z" fill="#28D6B6"/>
<path d="M93.9218 0H96.372V2.45013H93.9218V0Z" fill="#28D6B6"/>
<path d="M93.9218 18.7844H96.372V21.2345H93.9218V18.7844Z" fill="#28D6B6"/>
<path d="M93.9218 37.5687H96.372V40.0189H93.9218V37.5687Z" fill="#28D6B6"/>
<path d="M93.9218 56.3531H96.372V58.8032H93.9218V56.3531Z" fill="#28D6B6"/>
<path d="M93.9218 75.1375H96.372V77.5876H93.9218V75.1375Z" fill="#28D6B6"/>
<path d="M93.9218 93.9218H96.372V96.372H93.9218V93.9218Z" fill="#28D6B6"/>
<path d="M93.9218 112.706H96.372V115.156H93.9218V112.706Z" fill="#28D6B6"/>
<path d="M93.9218 131.491H96.372V133.941H93.9218V131.491Z" fill="#28D6B6"/>
<path d="M93.9218 150.275H96.372V152.725H93.9218V150.275Z" fill="#28D6B6"/>
<path d="M93.9218 169.059H96.372V171.509H93.9218V169.059Z" fill="#28D6B6"/>
<path d="M93.9218 187.844H96.372V190.294H93.9218V187.844Z" fill="#28D6B6"/>
<path d="M93.9218 206.628H96.372V209.078H93.9218V206.628Z" fill="#28D6B6"/>
<path d="M93.9218 225.412H96.372V227.863H93.9218V225.412Z" fill="#28D6B6"/>
<path d="M93.9218 244.197H96.372V246.647H93.9218V244.197Z" fill="#28D6B6"/>
<path d="M93.9218 262.981H96.372V265.431H93.9218V262.981Z" fill="#28D6B6"/>
<path d="M93.9218 281.766H96.372V284.216H93.9218V281.766Z" fill="#28D6B6"/>
<path d="M112.706 0H115.156V2.45013H112.706V0Z" fill="#28D6B6"/>
<path d="M112.706 18.7844H115.156V21.2345H112.706V18.7844Z" fill="#28D6B6"/>
<path d="M112.706 37.5687H115.156V40.0189H112.706V37.5687Z" fill="#28D6B6"/>
<path d="M112.706 56.3531H115.156V58.8032H112.706V56.3531Z" fill="#28D6B6"/>
<path d="M112.706 75.1375H115.156V77.5876H112.706V75.1375Z" fill="#28D6B6"/>
<path d="M112.706 93.9218H115.156V96.372H112.706V93.9218Z" fill="#28D6B6"/>
<path d="M112.706 112.706H115.156V115.156H112.706V112.706Z" fill="#28D6B6"/>
<path d="M112.706 131.491H115.156V133.941H112.706V131.491Z" fill="#28D6B6"/>
<path d="M112.706 150.275H115.156V152.725H112.706V150.275Z" fill="#28D6B6"/>
<path d="M112.706 169.059H115.156V171.509H112.706V169.059Z" fill="#28D6B6"/>
<path d="M112.706 187.844H115.156V190.294H112.706V187.844Z" fill="#28D6B6"/>
<path d="M112.706 206.628H115.156V209.078H112.706V206.628Z" fill="#28D6B6"/>
<path d="M112.706 225.412H115.156V227.863H112.706V225.412Z" fill="#28D6B6"/>
<path d="M112.706 244.197H115.156V246.647H112.706V244.197Z" fill="#28D6B6"/>
<path d="M112.706 262.981H115.156V265.431H112.706V262.981Z" fill="#28D6B6"/>
<path d="M112.706 281.766H115.156V284.216H112.706V281.766Z" fill="#28D6B6"/>
<path d="M131.491 0H133.941V2.45013H131.491V0Z" fill="#28D6B6"/>
<path d="M131.491 18.7844H133.941V21.2345H131.491V18.7844Z" fill="#28D6B6"/>
<path d="M131.491 37.5687H133.941V40.0189H131.491V37.5687Z" fill="#28D6B6"/>
<path d="M131.491 56.3531H133.941V58.8032H131.491V56.3531Z" fill="#28D6B6"/>
<path d="M131.491 75.1375H133.941V77.5876H131.491V75.1375Z" fill="#28D6B6"/>
<path d="M131.491 93.9218H133.941V96.372H131.491V93.9218Z" fill="#28D6B6"/>
<path d="M131.491 112.706H133.941V115.156H131.491V112.706Z" fill="#28D6B6"/>
<path d="M131.491 131.491H133.941V133.941H131.491V131.491Z" fill="#28D6B6"/>
<path d="M131.491 150.275H133.941V152.725H131.491V150.275Z" fill="#28D6B6"/>
<path d="M131.491 169.059H133.941V171.509H131.491V169.059Z" fill="#28D6B6"/>
<path d="M131.491 187.844H133.941V190.294H131.491V187.844Z" fill="#28D6B6"/>
<path d="M131.491 206.628H133.941V209.078H131.491V206.628Z" fill="#28D6B6"/>
<path d="M131.491 225.412H133.941V227.863H131.491V225.412Z" fill="#28D6B6"/>
<path d="M131.491 244.197H133.941V246.647H131.491V244.197Z" fill="#28D6B6"/>
<path d="M131.491 262.981H133.941V265.431H131.491V262.981Z" fill="#28D6B6"/>
<path d="M131.491 281.766H133.941V284.216H131.491V281.766Z" fill="#28D6B6"/>
<path d="M150.275 0H152.725V2.45013H150.275V0Z" fill="#28D6B6"/>
<path d="M150.275 18.7844H152.725V21.2345H150.275V18.7844Z" fill="#28D6B6"/>
<path d="M150.275 37.5687H152.725V40.0189H150.275V37.5687Z" fill="#28D6B6"/>
<path d="M150.275 56.3531H152.725V58.8032H150.275V56.3531Z" fill="#28D6B6"/>
<path d="M150.275 75.1375H152.725V77.5876H150.275V75.1375Z" fill="#28D6B6"/>
<path d="M150.275 93.9218H152.725V96.372H150.275V93.9218Z" fill="#28D6B6"/>
<path d="M150.275 112.706H152.725V115.156H150.275V112.706Z" fill="#28D6B6"/>
<path d="M150.275 131.491H152.725V133.941H150.275V131.491Z" fill="#28D6B6"/>
<path d="M150.275 150.275H152.725V152.725H150.275V150.275Z" fill="#28D6B6"/>
<path d="M150.275 169.059H152.725V171.509H150.275V169.059Z" fill="#28D6B6"/>
<path d="M150.275 187.844H152.725V190.294H150.275V187.844Z" fill="#28D6B6"/>
<path d="M150.275 206.628H152.725V209.078H150.275V206.628Z" fill="#28D6B6"/>
<path d="M150.275 225.412H152.725V227.863H150.275V225.412Z" fill="#28D6B6"/>
<path d="M150.275 244.197H152.725V246.647H150.275V244.197Z" fill="#28D6B6"/>
<path d="M150.275 262.981H152.725V265.431H150.275V262.981Z" fill="#28D6B6"/>
<path d="M150.275 281.766H152.725V284.216H150.275V281.766Z" fill="#28D6B6"/>
<path d="M169.059 0H171.509V2.45013H169.059V0Z" fill="#28D6B6"/>
<path d="M169.059 18.7844H171.509V21.2345H169.059V18.7844Z" fill="#28D6B6"/>
<path d="M169.059 37.5687H171.509V40.0189H169.059V37.5687Z" fill="#28D6B6"/>
<path d="M169.059 56.3531H171.509V58.8032H169.059V56.3531Z" fill="#28D6B6"/>
<path d="M169.059 75.1375H171.509V77.5876H169.059V75.1375Z" fill="#28D6B6"/>
<path d="M169.059 93.9218H171.509V96.372H169.059V93.9218Z" fill="#28D6B6"/>
<path d="M169.059 112.706H171.509V115.156H169.059V112.706Z" fill="#28D6B6"/>
<path d="M169.059 131.491H171.509V133.941H169.059V131.491Z" fill="#28D6B6"/>
<path d="M169.059 150.275H171.509V152.725H169.059V150.275Z" fill="#28D6B6"/>
<path d="M169.059 169.059H171.509V171.509H169.059V169.059Z" fill="#28D6B6"/>
<path d="M169.059 187.844H171.509V190.294H169.059V187.844Z" fill="#28D6B6"/>
<path d="M169.059 206.628H171.509V209.078H169.059V206.628Z" fill="#28D6B6"/>
<path d="M169.059 225.412H171.509V227.863H169.059V225.412Z" fill="#28D6B6"/>
<path d="M169.059 244.197H171.509V246.647H169.059V244.197Z" fill="#28D6B6"/>
<path d="M169.059 262.981H171.509V265.431H169.059V262.981Z" fill="#28D6B6"/>
<path d="M169.059 281.766H171.509V284.216H169.059V281.766Z" fill="#28D6B6"/>
<path d="M187.844 0H190.294V2.45013H187.844V0Z" fill="#28D6B6"/>
<path d="M187.844 18.7844H190.294V21.2345H187.844V18.7844Z" fill="#28D6B6"/>
<path d="M187.844 37.5687H190.294V40.0189H187.844V37.5687Z" fill="#28D6B6"/>
<path d="M187.844 56.3531H190.294V58.8032H187.844V56.3531Z" fill="#28D6B6"/>
<path d="M187.844 75.1375H190.294V77.5876H187.844V75.1375Z" fill="#28D6B6"/>
<path d="M187.844 93.9218H190.294V96.372H187.844V93.9218Z" fill="#28D6B6"/>
<path d="M187.844 112.706H190.294V115.156H187.844V112.706Z" fill="#28D6B6"/>
<path d="M187.844 131.491H190.294V133.941H187.844V131.491Z" fill="#28D6B6"/>
<path d="M187.844 150.275H190.294V152.725H187.844V150.275Z" fill="#28D6B6"/>
<path d="M187.844 169.059H190.294V171.509H187.844V169.059Z" fill="#28D6B6"/>
<path d="M187.844 187.844H190.294V190.294H187.844V187.844Z" fill="#28D6B6"/>
<path d="M187.844 206.628H190.294V209.078H187.844V206.628Z" fill="#28D6B6"/>
<path d="M187.844 225.412H190.294V227.863H187.844V225.412Z" fill="#28D6B6"/>
<path d="M187.844 244.197H190.294V246.647H187.844V244.197Z" fill="#28D6B6"/>
<path d="M187.844 262.981H190.294V265.431H187.844V262.981Z" fill="#28D6B6"/>
<path d="M187.844 281.766H190.294V284.216H187.844V281.766Z" fill="#28D6B6"/>
<path d="M206.628 0H209.078V2.45013H206.628V0Z" fill="#28D6B6"/>
<path d="M206.628 18.7844H209.078V21.2345H206.628V18.7844Z" fill="#28D6B6"/>
<path d="M206.628 37.5687H209.078V40.0189H206.628V37.5687Z" fill="#28D6B6"/>
<path d="M206.628 56.3531H209.078V58.8032H206.628V56.3531Z" fill="#28D6B6"/>
<path d="M206.628 75.1375H209.078V77.5876H206.628V75.1375Z" fill="#28D6B6"/>
<path d="M206.628 93.9218H209.078V96.372H206.628V93.9218Z" fill="#28D6B6"/>
<path d="M206.628 112.706H209.078V115.156H206.628V112.706Z" fill="#28D6B6"/>
<path d="M206.628 131.491H209.078V133.941H206.628V131.491Z" fill="#28D6B6"/>
<path d="M206.628 150.275H209.078V152.725H206.628V150.275Z" fill="#28D6B6"/>
<path d="M206.628 169.059H209.078V171.509H206.628V169.059Z" fill="#28D6B6"/>
<path d="M206.628 187.844H209.078V190.294H206.628V187.844Z" fill="#28D6B6"/>
<path d="M206.628 206.628H209.078V209.078H206.628V206.628Z" fill="#28D6B6"/>
<path d="M206.628 225.412H209.078V227.863H206.628V225.412Z" fill="#28D6B6"/>
<path d="M206.628 244.197H209.078V246.647H206.628V244.197Z" fill="#28D6B6"/>
<path d="M206.628 262.981H209.078V265.431H206.628V262.981Z" fill="#28D6B6"/>
<path d="M206.628 281.766H209.078V284.216H206.628V281.766Z" fill="#28D6B6"/>
<path d="M225.412 0H227.863V2.45013H225.412V0Z" fill="#28D6B6"/>
<path d="M225.412 18.7844H227.863V21.2345H225.412V18.7844Z" fill="#28D6B6"/>
<path d="M225.412 37.5687H227.863V40.0189H225.412V37.5687Z" fill="#28D6B6"/>
<path d="M225.412 56.3531H227.863V58.8032H225.412V56.3531Z" fill="#28D6B6"/>
<path d="M225.412 75.1375H227.863V77.5876H225.412V75.1375Z" fill="#28D6B6"/>
<path d="M225.412 93.9218H227.863V96.372H225.412V93.9218Z" fill="#28D6B6"/>
<path d="M225.412 112.706H227.863V115.156H225.412V112.706Z" fill="#28D6B6"/>
<path d="M225.412 131.491H227.863V133.941H225.412V131.491Z" fill="#28D6B6"/>
<path d="M225.412 150.275H227.863V152.725H225.412V150.275Z" fill="#28D6B6"/>
<path d="M225.412 169.059H227.863V171.509H225.412V169.059Z" fill="#28D6B6"/>
<path d="M225.412 187.844H227.863V190.294H225.412V187.844Z" fill="#28D6B6"/>
<path d="M225.412 206.628H227.863V209.078H225.412V206.628Z" fill="#28D6B6"/>
<path d="M225.412 225.412H227.863V227.863H225.412V225.412Z" fill="#28D6B6"/>
<path d="M225.412 244.197H227.863V246.647H225.412V244.197Z" fill="#28D6B6"/>
<path d="M225.412 262.981H227.863V265.431H225.412V262.981Z" fill="#28D6B6"/>
<path d="M225.412 281.766H227.863V284.216H225.412V281.766Z" fill="#28D6B6"/>
<path d="M244.197 0H246.647V2.45013H244.197V0Z" fill="#28D6B6"/>
<path d="M244.197 18.7844H246.647V21.2345H244.197V18.7844Z" fill="#28D6B6"/>
<path d="M244.197 37.5687H246.647V40.0189H244.197V37.5687Z" fill="#28D6B6"/>
<path d="M244.197 56.3531H246.647V58.8032H244.197V56.3531Z" fill="#28D6B6"/>
<path d="M244.197 75.1375H246.647V77.5876H244.197V75.1375Z" fill="#28D6B6"/>
<path d="M244.197 93.9218H246.647V96.372H244.197V93.9218Z" fill="#28D6B6"/>
<path d="M244.197 112.706H246.647V115.156H244.197V112.706Z" fill="#28D6B6"/>
<path d="M244.197 131.491H246.647V133.941H244.197V131.491Z" fill="#28D6B6"/>
<path d="M244.197 150.275H246.647V152.725H244.197V150.275Z" fill="#28D6B6"/>
<path d="M244.197 169.059H246.647V171.509H244.197V169.059Z" fill="#28D6B6"/>
<path d="M244.197 187.844H246.647V190.294H244.197V187.844Z" fill="#28D6B6"/>
<path d="M244.197 206.628H246.647V209.078H244.197V206.628Z" fill="#28D6B6"/>
<path d="M244.197 225.412H246.647V227.863H244.197V225.412Z" fill="#28D6B6"/>
<path d="M244.197 244.197H246.647V246.647H244.197V244.197Z" fill="#28D6B6"/>
<path d="M244.197 262.981H246.647V265.431H244.197V262.981Z" fill="#28D6B6"/>
<path d="M244.197 281.766H246.647V284.216H244.197V281.766Z" fill="#28D6B6"/>
<path d="M262.981 0H265.431V2.45013H262.981V0Z" fill="#28D6B6"/>
<path d="M262.981 18.7844H265.431V21.2345H262.981V18.7844Z" fill="#28D6B6"/>
<path d="M262.981 37.5687H265.431V40.0189H262.981V37.5687Z" fill="#28D6B6"/>
<path d="M262.981 56.3531H265.431V58.8032H262.981V56.3531Z" fill="#28D6B6"/>
<path d="M262.981 75.1375H265.431V77.5876H262.981V75.1375Z" fill="#28D6B6"/>
<path d="M262.981 93.9218H265.431V96.372H262.981V93.9218Z" fill="#28D6B6"/>
<path d="M262.981 112.706H265.431V115.156H262.981V112.706Z" fill="#28D6B6"/>
<path d="M262.981 131.491H265.431V133.941H262.981V131.491Z" fill="#28D6B6"/>
<path d="M262.981 150.275H265.431V152.725H262.981V150.275Z" fill="#28D6B6"/>
<path d="M262.981 169.059H265.431V171.509H262.981V169.059Z" fill="#28D6B6"/>
<path d="M262.981 187.844H265.431V190.294H262.981V187.844Z" fill="#28D6B6"/>
<path d="M262.981 206.628H265.431V209.078H262.981V206.628Z" fill="#28D6B6"/>
<path d="M262.981 225.412H265.431V227.863H262.981V225.412Z" fill="#28D6B6"/>
<path d="M262.981 244.197H265.431V246.647H262.981V244.197Z" fill="#28D6B6"/>
<path d="M262.981 262.981H265.431V265.431H262.981V262.981Z" fill="#28D6B6"/>
<path d="M262.981 281.766H265.431V284.216H262.981V281.766Z" fill="#28D6B6"/>
<path d="M281.766 0H284.216V2.45013H281.766V0Z" fill="#28D6B6"/>
<path d="M281.766 18.7844H284.216V21.2345H281.766V18.7844Z" fill="#28D6B6"/>
<path d="M281.766 37.5687H284.216V40.0189H281.766V37.5687Z" fill="#28D6B6"/>
<path d="M281.766 56.3531H284.216V58.8032H281.766V56.3531Z" fill="#28D6B6"/>
<path d="M281.766 75.1375H284.216V77.5876H281.766V75.1375Z" fill="#28D6B6"/>
<path d="M281.766 93.9218H284.216V96.372H281.766V93.9218Z" fill="#28D6B6"/>
<path d="M281.766 112.706H284.216V115.156H281.766V112.706Z" fill="#28D6B6"/>
<path d="M281.766 131.491H284.216V133.941H281.766V131.491Z" fill="#28D6B6"/>
<path d="M281.766 150.275H284.216V152.725H281.766V150.275Z" fill="#28D6B6"/>
<path d="M281.766 169.059H284.216V171.509H281.766V169.059Z" fill="#28D6B6"/>
<path d="M281.766 187.844H284.216V190.294H281.766V187.844Z" fill="#28D6B6"/>
<path d="M281.766 206.628H284.216V209.078H281.766V206.628Z" fill="#28D6B6"/>
<path d="M281.766 225.412H284.216V227.863H281.766V225.412Z" fill="#28D6B6"/>
<path d="M281.766 244.197H284.216V246.647H281.766V244.197Z" fill="#28D6B6"/>
<path d="M281.766 262.981H284.216V265.431H281.766V262.981Z" fill="#28D6B6"/>
<path d="M281.766 281.766H284.216V284.216H281.766V281.766Z" fill="#28D6B6"/>
<path d="M300.55 0H303V2.45013H300.55V0Z" fill="#28D6B6"/>
<path d="M300.55 18.7844H303V21.2345H300.55V18.7844Z" fill="#28D6B6"/>
<path d="M300.55 37.5687H303V40.0189H300.55V37.5687Z" fill="#28D6B6"/>
<path d="M300.55 56.3531H303V58.8032H300.55V56.3531Z" fill="#28D6B6"/>
<path d="M300.55 75.1375H303V77.5876H300.55V75.1375Z" fill="#28D6B6"/>
<path d="M300.55 93.9218H303V96.372H300.55V93.9218Z" fill="#28D6B6"/>
<path d="M300.55 112.706H303V115.156H300.55V112.706Z" fill="#28D6B6"/>
<path d="M300.55 131.491H303V133.941H300.55V131.491Z" fill="#28D6B6"/>
<path d="M300.55 150.275H303V152.725H300.55V150.275Z" fill="#28D6B6"/>
<path d="M300.55 169.059H303V171.509H300.55V169.059Z" fill="#28D6B6"/>
<path d="M300.55 187.844H303V190.294H300.55V187.844Z" fill="#28D6B6"/>
<path d="M300.55 206.628H303V209.078H300.55V206.628Z" fill="#28D6B6"/>
<path d="M300.55 225.412H303V227.863H300.55V225.412Z" fill="#28D6B6"/>
<path d="M300.55 244.197H303V246.647H300.55V244.197Z" fill="#28D6B6"/>
<path d="M300.55 262.981H303V265.431H300.55V262.981Z" fill="#28D6B6"/>
<path d="M300.55 281.766H303V284.216H300.55V281.766Z" fill="#28D6B6"/>
</g>
</g>
<defs>
<radialGradient id="paint0_radial_104_445" cx="0" cy="0" r="1" gradientUnits="userSpaceOnUse" gradientTransform="translate(151.5 142.108) rotate(90) scale(142.108 151.5)">
<stop stop-color="#D9D9D9"/>
<stop offset="1" stop-color="#D9D9D9" stop-opacity="0"/>
</radialGradient>
</defs>
</svg>
