<svg width="160" height="160" viewBox="0 0 160 160" fill="none" xmlns="http://www.w3.org/2000/svg">
<g clip-path="url(#clip0_113_687)">
<rect width="160" height="160" rx="80" fill="#F5FBFE" stroke="#1192F0" stroke-opacity="0.4" stroke-dasharray="13 13"/>
<path d="M38.3633 70L34.2852 75.1562L30.1953 70V79H24.8047V62.1953H29.5977L34.2852 68.1953L38.9609 62.1953H43.7656V79H38.3633V70ZM47.375 62.1953H55.2852C57.2383 62.1953 58.8047 62.7734 59.9844 63.9297C61.1719 65.0781 61.7656 66.543 61.7656 68.3242C61.7656 70.0977 61.1719 71.5625 59.9844 72.7188C58.8047 73.8672 57.2383 74.4414 55.2852 74.4414H52.7656V79H47.375V62.1953ZM54.9336 67H52.7656V69.6367H54.9336C55.3477 69.6367 55.6914 69.5117 55.9648 69.2617C56.2383 69.0039 56.375 68.6914 56.375 68.3242C56.375 67.957 56.2383 67.6445 55.9648 67.3867C55.6914 67.1289 55.3477 67 54.9336 67ZM70.7773 73.7148C70.7773 73.4883 70.6406 73.293 70.3672 73.1289C70.0938 72.9648 69.7422 72.8125 69.3125 72.6719C68.8906 72.5234 68.4141 72.3672 67.8828 72.2031C67.3594 72.0312 66.8359 71.8086 66.3125 71.5352C65.7969 71.2617 65.3281 70.9453 64.9062 70.5859C64.4844 70.2266 64.1367 69.7422 63.8633 69.1328C63.5898 68.5234 63.4531 67.8359 63.4531 67.0703C63.4531 65.6328 64.0664 64.3828 65.293 63.3203C66.5273 62.25 68.1523 61.7148 70.168 61.7148C70.9648 61.7148 71.7266 61.8008 72.4531 61.9727C73.1875 62.1367 73.7812 62.3359 74.2344 62.5703C74.6953 62.8047 75.0977 63.0391 75.4414 63.2734C75.7852 63.5 76.0273 63.7031 76.168 63.8828L76.4141 64.1172L73.2969 67.3633C73.2344 67.2695 73.1328 67.1602 72.9922 67.0352C72.8594 66.9023 72.582 66.7227 72.1602 66.4961C71.7461 66.2695 71.3242 66.1562 70.8945 66.1562C70.4336 66.1562 70.0781 66.2578 69.8281 66.4609C69.5781 66.6641 69.4531 66.9219 69.4531 67.2344C69.4531 67.4922 69.6328 67.7227 69.9922 67.9258C70.3516 68.1211 70.8008 68.2852 71.3398 68.418C71.8867 68.543 72.4766 68.7422 73.1094 69.0156C73.7422 69.2891 74.3281 69.5977 74.8672 69.9414C75.4141 70.2852 75.8672 70.7969 76.2266 71.4766C76.5938 72.1562 76.7773 72.9453 76.7773 73.8438C76.7773 75.3984 76.1484 76.7266 74.8906 77.8281C73.6328 78.9297 71.9414 79.4805 69.8164 79.4805C68.9648 79.4805 68.1367 79.3789 67.332 79.1758C66.5352 78.9805 65.8672 78.7422 65.3281 78.4609C64.7969 78.1797 64.3281 77.8984 63.9219 77.6172C63.5156 77.3359 63.2148 77.0938 63.0195 76.8906L62.7266 76.5977L65.8555 73.4805C65.9648 73.5898 66.1133 73.7344 66.3008 73.9141C66.4961 74.0859 66.8789 74.3164 67.4492 74.6055C68.0195 74.8945 68.5664 75.0391 69.0898 75.0391C69.6211 75.0391 70.0352 74.9102 70.332 74.6523C70.6289 74.3945 70.7773 74.082 70.7773 73.7148ZM77.4805 62.1953H91.7656V67.1172H87.3242V79H81.9219V67.1172H77.4805V62.1953ZM100.859 71.6758L99.6641 67.4805L98.457 71.6758H100.859ZM102.066 75.7656H97.2617L96.3008 79H90.5469L96.6641 62.1953H102.664L108.781 79H103.016L102.066 75.7656ZM107.574 62.1953H121.859V67.1172H117.418V79H112.016V67.1172H107.574V62.1953ZM131.105 73.7148C131.105 73.4883 130.969 73.293 130.695 73.1289C130.422 72.9648 130.07 72.8125 129.641 72.6719C129.219 72.5234 128.742 72.3672 128.211 72.2031C127.688 72.0312 127.164 71.8086 126.641 71.5352C126.125 71.2617 125.656 70.9453 125.234 70.5859C124.812 70.2266 124.465 69.7422 124.191 69.1328C123.918 68.5234 123.781 67.8359 123.781 67.0703C123.781 65.6328 124.395 64.3828 125.621 63.3203C126.855 62.25 128.48 61.7148 130.496 61.7148C131.293 61.7148 132.055 61.8008 132.781 61.9727C133.516 62.1367 134.109 62.3359 134.562 62.5703C135.023 62.8047 135.426 63.0391 135.77 63.2734C136.113 63.5 136.355 63.7031 136.496 63.8828L136.742 64.1172L133.625 67.3633C133.562 67.2695 133.461 67.1602 133.32 67.0352C133.188 66.9023 132.91 66.7227 132.488 66.4961C132.074 66.2695 131.652 66.1562 131.223 66.1562C130.762 66.1562 130.406 66.2578 130.156 66.4609C129.906 66.6641 129.781 66.9219 129.781 67.2344C129.781 67.4922 129.961 67.7227 130.32 67.9258C130.68 68.1211 131.129 68.2852 131.668 68.418C132.215 68.543 132.805 68.7422 133.438 69.0156C134.07 69.2891 134.656 69.5977 135.195 69.9414C135.742 70.2852 136.195 70.7969 136.555 71.4766C136.922 72.1562 137.105 72.9453 137.105 73.8438C137.105 75.3984 136.477 76.7266 135.219 77.8281C133.961 78.9297 132.27 79.4805 130.145 79.4805C129.293 79.4805 128.465 79.3789 127.66 79.1758C126.863 78.9805 126.195 78.7422 125.656 78.4609C125.125 78.1797 124.656 77.8984 124.25 77.6172C123.844 77.3359 123.543 77.0938 123.348 76.8906L123.055 76.5977L126.184 73.4805C126.293 73.5898 126.441 73.7344 126.629 73.9141C126.824 74.0859 127.207 74.3164 127.777 74.6055C128.348 74.8945 128.895 75.0391 129.418 75.0391C129.949 75.0391 130.363 74.9102 130.66 74.6523C130.957 74.3945 131.105 74.082 131.105 73.7148Z" fill="#1192F0"/>
<path d="M36.5391 90.3203H40.2188C40.9531 90.3203 41.5365 90.5104 41.9688 90.8906C42.401 91.2656 42.6172 91.7422 42.6172 92.3203C42.6172 92.6484 42.5443 92.9479 42.3984 93.2188C42.2578 93.4844 42.112 93.6693 41.9609 93.7734L41.7422 93.9219C41.7734 93.9323 41.8177 93.9505 41.875 93.9766C41.9323 94.0026 42.0365 94.0703 42.1875 94.1797C42.3385 94.2839 42.4688 94.401 42.5781 94.5312C42.6927 94.6562 42.7943 94.8281 42.8828 95.0469C42.9766 95.2656 43.0234 95.5026 43.0234 95.7578C43.0234 96.4193 42.7865 96.9583 42.3125 97.375C41.8438 97.7917 41.2005 98 40.3828 98H36.5391V90.3203ZM40.3828 94.5625H38.1406V96.6406H40.3828C40.7005 96.6406 40.9531 96.5469 41.1406 96.3594C41.3281 96.1719 41.4219 95.9193 41.4219 95.6016C41.4219 95.3151 41.3255 95.0703 41.1328 94.8672C40.9401 94.6641 40.6901 94.5625 40.3828 94.5625ZM40.8047 93.0703C40.9505 92.9245 41.0234 92.7292 41.0234 92.4844C41.0234 92.2344 40.9505 92.0391 40.8047 91.8984C40.6589 91.7526 40.4635 91.6797 40.2188 91.6797H38.1406V93.2812H40.2188C40.4635 93.2812 40.6589 93.2109 40.8047 93.0703ZM48.6875 96.9688C47.8958 96.1719 47.5 95.237 47.5 94.1641C47.5 93.0859 47.8958 92.1484 48.6875 91.3516C49.4844 90.5547 50.4219 90.1562 51.5 90.1562C52.099 90.1562 52.6562 90.2865 53.1719 90.5469C53.6875 90.8021 54.0573 91.0573 54.2812 91.3125L54.6172 91.6797L53.5781 92.7188C53.526 92.6354 53.4453 92.5339 53.3359 92.4141C53.2318 92.2891 53 92.1224 52.6406 91.9141C52.2865 91.7057 51.9062 91.6016 51.5 91.6016C50.849 91.6016 50.2839 91.849 49.8047 92.3438C49.3307 92.8385 49.0938 93.4453 49.0938 94.1641C49.0938 94.8776 49.3307 95.4818 49.8047 95.9766C50.2839 96.4714 50.849 96.7188 51.5 96.7188C51.9062 96.7188 52.2865 96.6172 52.6406 96.4141C53 96.2109 53.2578 96.013 53.4141 95.8203L53.6562 95.5234L54.6953 96.5625C54.6641 96.6042 54.6172 96.6641 54.5547 96.7422C54.4922 96.8151 54.3568 96.9427 54.1484 97.125C53.9401 97.3021 53.7214 97.4609 53.4922 97.6016C53.263 97.737 52.9661 97.8646 52.6016 97.9844C52.237 98.099 51.8698 98.1562 51.5 98.1562C50.4219 98.1562 49.4844 97.7604 48.6875 96.9688ZM63.0938 90.3203L60.1328 93.5234L63.3281 98H61.5703L59.0938 94.5625L57.8906 95.8438V98H56.2891V90.3203H57.8906V93.7578L61.1719 90.3203H63.0938ZM65.4844 90.3203H71.4062V98H69.8047V91.7578H67.0859V92.5625C67.0859 94.026 66.9688 95.1823 66.7344 96.0312C66.5052 96.875 66.2083 97.4401 65.8438 97.7266C65.4844 98.013 65.0182 98.1562 64.4453 98.1562C64.3047 98.1562 64.1536 98.1432 63.9922 98.1172C63.8359 98.0911 63.7135 98.0625 63.625 98.0312L63.4844 98V96.4766C63.6979 96.5286 63.8828 96.5573 64.0391 96.5625C64.3672 96.5625 64.625 96.474 64.8125 96.2969C65.0052 96.1198 65.1641 95.7292 65.2891 95.125C65.4193 94.5156 65.4844 93.6615 65.4844 92.5625V90.3203ZM79.8125 98H78.2109V97.2031C78.1901 97.224 78.1536 97.2578 78.1016 97.3047C78.0547 97.3516 77.9557 97.4297 77.8047 97.5391C77.6589 97.6432 77.5 97.7396 77.3281 97.8281C77.1562 97.9115 76.9401 97.987 76.6797 98.0547C76.4193 98.1224 76.1562 98.1562 75.8906 98.1562C75.1094 98.1562 74.4609 97.9297 73.9453 97.4766C73.4297 97.0234 73.1719 96.5052 73.1719 95.9219C73.1719 95.2917 73.3698 94.763 73.7656 94.3359C74.1667 93.9089 74.7135 93.638 75.4062 93.5234L78.2109 93.0391C78.2109 92.6328 78.0599 92.2917 77.7578 92.0156C77.4609 91.7396 77.0781 91.6016 76.6094 91.6016C76.2031 91.6016 75.8333 91.6875 75.5 91.8594C75.1719 92.026 74.9453 92.1953 74.8203 92.3672L74.6094 92.6406L73.5703 91.6016C73.6016 91.5599 73.6432 91.5078 73.6953 91.4453C73.7526 91.3776 73.875 91.263 74.0625 91.1016C74.2552 90.9349 74.4583 90.7865 74.6719 90.6562C74.8854 90.526 75.1667 90.4115 75.5156 90.3125C75.8698 90.2083 76.2344 90.1562 76.6094 90.1562C77.5469 90.1562 78.3151 90.4349 78.9141 90.9922C79.513 91.5443 79.8125 92.2266 79.8125 93.0391V98ZM76.1328 96.7188C76.7839 96.7188 77.2917 96.526 77.6562 96.1406C78.026 95.75 78.2109 95.1953 78.2109 94.4766V94.3203L75.7266 94.7188C75.4401 94.7708 75.2083 94.888 75.0312 95.0703C74.8542 95.2526 74.7656 95.4818 74.7656 95.7578C74.7656 96.013 74.888 96.237 75.1328 96.4297C75.3828 96.6224 75.7161 96.7188 76.1328 96.7188ZM80.9375 96.5625H81.4922C81.5234 96.5312 81.5677 96.4818 81.625 96.4141C81.6875 96.3411 81.7917 96.1823 81.9375 95.9375C82.0885 95.6927 82.2188 95.4297 82.3281 95.1484C82.4427 94.862 82.5443 94.487 82.6328 94.0234C82.7266 93.5599 82.7734 93.0729 82.7734 92.5625V90.3203H88.375V96.5625H89.4922V99.9219H87.8984V98H82.5391V99.9219H80.9375V96.5625ZM84.375 91.7578V92.5625C84.375 93.0729 84.3307 93.5573 84.2422 94.0156C84.1589 94.474 84.0521 94.8542 83.9219 95.1562C83.7969 95.4531 83.6693 95.7109 83.5391 95.9297C83.4141 96.1484 83.3099 96.3047 83.2266 96.3984L83.0938 96.5625H86.7734V91.7578H84.375ZM95.9062 98V95.1172C95.375 95.4922 94.7344 95.6797 93.9844 95.6797C93.0573 95.6797 92.3177 95.401 91.7656 94.8438C91.2188 94.2812 90.9453 93.5208 90.9453 92.5625V90.3203H92.5391V92.5625C92.5391 93.0417 92.6927 93.4427 93 93.7656C93.3125 94.0833 93.6927 94.2422 94.1406 94.2422C94.4688 94.2422 94.7786 94.1901 95.0703 94.0859C95.3672 93.9766 95.5807 93.8672 95.7109 93.7578L95.9062 93.6016V90.3203H97.5V98H95.9062ZM105.344 90.3203H106.781V98H105.18V92.9609L101.18 98H99.7422V90.3203H101.344V95.3594L105.344 90.3203ZM110.625 94.7969V98H109.023V90.3203H110.625V93.3594H114.383V90.3203H115.984V98H114.383V94.7969H110.625ZM120.07 98.7969L120.391 98L117.266 90.3203H118.945L121.188 95.9219L123.43 90.3203H125.109L121.664 98.7969C121.268 99.7448 120.875 100.409 120.484 100.789C120.099 101.169 119.615 101.359 119.031 101.359C118.818 101.359 118.617 101.346 118.43 101.32C118.242 101.294 118.104 101.266 118.016 101.234L117.906 101.203V99.7578C118.172 99.862 118.44 99.9167 118.711 99.9219C119.32 99.9167 119.773 99.5417 120.07 98.7969Z" fill="#242424"/>
</g>
<defs>
<clipPath id="clip0_113_687">
<rect width="160" height="160" rx="80" fill="white"/>
</clipPath>
</defs>
</svg>
