<svg width="84" height="80" viewBox="0 0 84 80" fill="none" xmlns="http://www.w3.org/2000/svg">
<g opacity="0.6">
<mask id="mask0_120_1771" style="mask-type:alpha" maskUnits="userSpaceOnUse" x="0" y="-79" width="169" height="159">
<rect y="-79" width="168.672" height="158.216" rx="79.1078" fill="url(#paint0_radial_120_1771)"/>
</mask>
<g mask="url(#mask0_120_1771)">
<path d="M0 -79H1.36393V-77.6361H0V-79Z" fill="#1192F0"/>
<path d="M0 -68.5432H1.36393V-67.1793H0V-68.5432Z" fill="#1192F0"/>
<path d="M0 -58.0864H1.36393V-56.7225H0V-58.0864Z" fill="#1192F0"/>
<path d="M0 -47.6297H1.36393V-46.2657H0V-47.6297Z" fill="#1192F0"/>
<path d="M0 -37.1729H1.36393V-35.809H0V-37.1729Z" fill="#1192F0"/>
<path d="M0 -26.7161H1.36393V-25.3522H0V-26.7161Z" fill="#1192F0"/>
<path d="M0 -16.2593H1.36393V-14.8954H0V-16.2593Z" fill="#1192F0"/>
<path d="M0 -5.80254H1.36393V-4.43861H0V-5.80254Z" fill="#1192F0"/>
<path d="M0 4.65424H1.36393V6.01817H0V4.65424Z" fill="#1192F0"/>
<path d="M0 15.111H1.36393V16.475H0V15.111Z" fill="#1192F0"/>
<path d="M0 25.5678H1.36393V26.9317H0V25.5678Z" fill="#1192F0"/>
<path d="M0 36.0246H1.36393V37.3885H0V36.0246Z" fill="#1192F0"/>
<path d="M0 46.4814H1.36393V47.8453H0V46.4814Z" fill="#1192F0"/>
<path d="M0 56.9381H1.36393V58.3021H0V56.9381Z" fill="#1192F0"/>
<path d="M0 67.3949H1.36393V68.7589H0V67.3949Z" fill="#1192F0"/>
<path d="M0 77.8517H1.36393V79.2156H0V77.8517Z" fill="#1192F0"/>
<path d="M10.4568 -79H11.8207V-77.6361H10.4568V-79Z" fill="#1192F0"/>
<path d="M10.4568 -68.5432H11.8207V-67.1793H10.4568V-68.5432Z" fill="#1192F0"/>
<path d="M10.4568 -58.0864H11.8207V-56.7225H10.4568V-58.0864Z" fill="#1192F0"/>
<path d="M10.4568 -47.6297H11.8207V-46.2657H10.4568V-47.6297Z" fill="#1192F0"/>
<path d="M10.4568 -37.1729H11.8207V-35.809H10.4568V-37.1729Z" fill="#1192F0"/>
<path d="M10.4568 -26.7161H11.8207V-25.3522H10.4568V-26.7161Z" fill="#1192F0"/>
<path d="M10.4568 -16.2593H11.8207V-14.8954H10.4568V-16.2593Z" fill="#1192F0"/>
<path d="M10.4568 -5.80254H11.8207V-4.43861H10.4568V-5.80254Z" fill="#1192F0"/>
<path d="M10.4568 4.65424H11.8207V6.01817H10.4568V4.65424Z" fill="#1192F0"/>
<path d="M10.4568 15.111H11.8207V16.475H10.4568V15.111Z" fill="#1192F0"/>
<path d="M10.4568 25.5678H11.8207V26.9317H10.4568V25.5678Z" fill="#1192F0"/>
<path d="M10.4568 36.0246H11.8207V37.3885H10.4568V36.0246Z" fill="#1192F0"/>
<path d="M10.4568 46.4814H11.8207V47.8453H10.4568V46.4814Z" fill="#1192F0"/>
<path d="M10.4568 56.9381H11.8207V58.3021H10.4568V56.9381Z" fill="#1192F0"/>
<path d="M10.4568 67.3949H11.8207V68.7589H10.4568V67.3949Z" fill="#1192F0"/>
<path d="M10.4568 77.8517H11.8207V79.2156H10.4568V77.8517Z" fill="#1192F0"/>
<path d="M20.9136 -79H22.2775V-77.6361H20.9136V-79Z" fill="#1192F0"/>
<path d="M20.9136 -68.5432H22.2775V-67.1793H20.9136V-68.5432Z" fill="#1192F0"/>
<path d="M20.9136 -58.0864H22.2775V-56.7225H20.9136V-58.0864Z" fill="#1192F0"/>
<path d="M20.9136 -47.6297H22.2775V-46.2657H20.9136V-47.6297Z" fill="#1192F0"/>
<path d="M20.9136 -37.1729H22.2775V-35.809H20.9136V-37.1729Z" fill="#1192F0"/>
<path d="M20.9136 -26.7161H22.2775V-25.3522H20.9136V-26.7161Z" fill="#1192F0"/>
<path d="M20.9136 -16.2593H22.2775V-14.8954H20.9136V-16.2593Z" fill="#1192F0"/>
<path d="M20.9136 -5.80254H22.2775V-4.43861H20.9136V-5.80254Z" fill="#1192F0"/>
<path d="M20.9136 4.65424H22.2775V6.01817H20.9136V4.65424Z" fill="#1192F0"/>
<path d="M20.9136 15.111H22.2775V16.475H20.9136V15.111Z" fill="#1192F0"/>
<path d="M20.9136 25.5678H22.2775V26.9317H20.9136V25.5678Z" fill="#1192F0"/>
<path d="M20.9136 36.0246H22.2775V37.3885H20.9136V36.0246Z" fill="#1192F0"/>
<path d="M20.9136 46.4814H22.2775V47.8453H20.9136V46.4814Z" fill="#1192F0"/>
<path d="M20.9136 56.9381H22.2775V58.3021H20.9136V56.9381Z" fill="#1192F0"/>
<path d="M20.9136 67.3949H22.2775V68.7589H20.9136V67.3949Z" fill="#1192F0"/>
<path d="M20.9136 77.8517H22.2775V79.2156H20.9136V77.8517Z" fill="#1192F0"/>
<path d="M31.3703 -79H32.7343V-77.6361H31.3703V-79Z" fill="#1192F0"/>
<path d="M31.3703 -68.5432H32.7343V-67.1793H31.3703V-68.5432Z" fill="#1192F0"/>
<path d="M31.3703 -58.0864H32.7343V-56.7225H31.3703V-58.0864Z" fill="#1192F0"/>
<path d="M31.3703 -47.6297H32.7343V-46.2657H31.3703V-47.6297Z" fill="#1192F0"/>
<path d="M31.3703 -37.1729H32.7343V-35.809H31.3703V-37.1729Z" fill="#1192F0"/>
<path d="M31.3703 -26.7161H32.7343V-25.3522H31.3703V-26.7161Z" fill="#1192F0"/>
<path d="M31.3703 -16.2593H32.7343V-14.8954H31.3703V-16.2593Z" fill="#1192F0"/>
<path d="M31.3703 -5.80254H32.7343V-4.43861H31.3703V-5.80254Z" fill="#1192F0"/>
<path d="M31.3703 4.65424H32.7343V6.01817H31.3703V4.65424Z" fill="#1192F0"/>
<path d="M31.3703 15.111H32.7343V16.475H31.3703V15.111Z" fill="#1192F0"/>
<path d="M31.3703 25.5678H32.7343V26.9317H31.3703V25.5678Z" fill="#1192F0"/>
<path d="M31.3703 36.0246H32.7343V37.3885H31.3703V36.0246Z" fill="#1192F0"/>
<path d="M31.3703 46.4814H32.7343V47.8453H31.3703V46.4814Z" fill="#1192F0"/>
<path d="M31.3703 56.9381H32.7343V58.3021H31.3703V56.9381Z" fill="#1192F0"/>
<path d="M31.3703 67.3949H32.7343V68.7589H31.3703V67.3949Z" fill="#1192F0"/>
<path d="M31.3703 77.8517H32.7343V79.2156H31.3703V77.8517Z" fill="#1192F0"/>
<path d="M41.8271 -79H43.191V-77.6361H41.8271V-79Z" fill="#1192F0"/>
<path d="M41.8271 -68.5432H43.191V-67.1793H41.8271V-68.5432Z" fill="#1192F0"/>
<path d="M41.8271 -58.0864H43.191V-56.7225H41.8271V-58.0864Z" fill="#1192F0"/>
<path d="M41.8271 -47.6297H43.191V-46.2657H41.8271V-47.6297Z" fill="#1192F0"/>
<path d="M41.8271 -37.1729H43.191V-35.809H41.8271V-37.1729Z" fill="#1192F0"/>
<path d="M41.8271 -26.7161H43.191V-25.3522H41.8271V-26.7161Z" fill="#1192F0"/>
<path d="M41.8271 -16.2593H43.191V-14.8954H41.8271V-16.2593Z" fill="#1192F0"/>
<path d="M41.8271 -5.80254H43.191V-4.43861H41.8271V-5.80254Z" fill="#1192F0"/>
<path d="M41.8271 4.65424H43.191V6.01817H41.8271V4.65424Z" fill="#1192F0"/>
<path d="M41.8271 15.111H43.191V16.475H41.8271V15.111Z" fill="#1192F0"/>
<path d="M41.8271 25.5678H43.191V26.9317H41.8271V25.5678Z" fill="#1192F0"/>
<path d="M41.8271 36.0246H43.191V37.3885H41.8271V36.0246Z" fill="#1192F0"/>
<path d="M41.8271 46.4814H43.191V47.8453H41.8271V46.4814Z" fill="#1192F0"/>
<path d="M41.8271 56.9381H43.191V58.3021H41.8271V56.9381Z" fill="#1192F0"/>
<path d="M41.8271 67.3949H43.191V68.7589H41.8271V67.3949Z" fill="#1192F0"/>
<path d="M41.8271 77.8517H43.191V79.2156H41.8271V77.8517Z" fill="#1192F0"/>
<path d="M52.2839 -79H53.6478V-77.6361H52.2839V-79Z" fill="#1192F0"/>
<path d="M52.2839 -68.5432H53.6478V-67.1793H52.2839V-68.5432Z" fill="#1192F0"/>
<path d="M52.2839 -58.0864H53.6478V-56.7225H52.2839V-58.0864Z" fill="#1192F0"/>
<path d="M52.2839 -47.6297H53.6478V-46.2657H52.2839V-47.6297Z" fill="#1192F0"/>
<path d="M52.2839 -37.1729H53.6478V-35.809H52.2839V-37.1729Z" fill="#1192F0"/>
<path d="M52.2839 -26.7161H53.6478V-25.3522H52.2839V-26.7161Z" fill="#1192F0"/>
<path d="M52.2839 -16.2593H53.6478V-14.8954H52.2839V-16.2593Z" fill="#1192F0"/>
<path d="M52.2839 -5.80254H53.6478V-4.43861H52.2839V-5.80254Z" fill="#1192F0"/>
<path d="M52.2839 4.65424H53.6478V6.01817H52.2839V4.65424Z" fill="#1192F0"/>
<path d="M52.2839 15.111H53.6478V16.475H52.2839V15.111Z" fill="#1192F0"/>
<path d="M52.2839 25.5678H53.6478V26.9317H52.2839V25.5678Z" fill="#1192F0"/>
<path d="M52.2839 36.0246H53.6478V37.3885H52.2839V36.0246Z" fill="#1192F0"/>
<path d="M52.2839 46.4814H53.6478V47.8453H52.2839V46.4814Z" fill="#1192F0"/>
<path d="M52.2839 56.9381H53.6478V58.3021H52.2839V56.9381Z" fill="#1192F0"/>
<path d="M52.2839 67.3949H53.6478V68.7589H52.2839V67.3949Z" fill="#1192F0"/>
<path d="M52.2839 77.8517H53.6478V79.2156H52.2839V77.8517Z" fill="#1192F0"/>
<path d="M62.7407 -79H64.1046V-77.6361H62.7407V-79Z" fill="#1192F0"/>
<path d="M62.7407 -68.5432H64.1046V-67.1793H62.7407V-68.5432Z" fill="#1192F0"/>
<path d="M62.7407 -58.0864H64.1046V-56.7225H62.7407V-58.0864Z" fill="#1192F0"/>
<path d="M62.7407 -47.6297H64.1046V-46.2657H62.7407V-47.6297Z" fill="#1192F0"/>
<path d="M62.7407 -37.1729H64.1046V-35.809H62.7407V-37.1729Z" fill="#1192F0"/>
<path d="M62.7407 -26.7161H64.1046V-25.3522H62.7407V-26.7161Z" fill="#1192F0"/>
<path d="M62.7407 -16.2593H64.1046V-14.8954H62.7407V-16.2593Z" fill="#1192F0"/>
<path d="M62.7407 -5.80254H64.1046V-4.43861H62.7407V-5.80254Z" fill="#1192F0"/>
<path d="M62.7407 4.65424H64.1046V6.01817H62.7407V4.65424Z" fill="#1192F0"/>
<path d="M62.7407 15.111H64.1046V16.475H62.7407V15.111Z" fill="#1192F0"/>
<path d="M62.7407 25.5678H64.1046V26.9317H62.7407V25.5678Z" fill="#1192F0"/>
<path d="M62.7407 36.0246H64.1046V37.3885H62.7407V36.0246Z" fill="#1192F0"/>
<path d="M62.7407 46.4814H64.1046V47.8453H62.7407V46.4814Z" fill="#1192F0"/>
<path d="M62.7407 56.9381H64.1046V58.3021H62.7407V56.9381Z" fill="#1192F0"/>
<path d="M62.7407 67.3949H64.1046V68.7589H62.7407V67.3949Z" fill="#1192F0"/>
<path d="M62.7407 77.8517H64.1046V79.2156H62.7407V77.8517Z" fill="#1192F0"/>
<path d="M73.1975 -79H74.5614V-77.6361H73.1975V-79Z" fill="#1192F0"/>
<path d="M73.1975 -68.5432H74.5614V-67.1793H73.1975V-68.5432Z" fill="#1192F0"/>
<path d="M73.1975 -58.0864H74.5614V-56.7225H73.1975V-58.0864Z" fill="#1192F0"/>
<path d="M73.1975 -47.6297H74.5614V-46.2657H73.1975V-47.6297Z" fill="#1192F0"/>
<path d="M73.1975 -37.1729H74.5614V-35.809H73.1975V-37.1729Z" fill="#1192F0"/>
<path d="M73.1975 -26.7161H74.5614V-25.3522H73.1975V-26.7161Z" fill="#1192F0"/>
<path d="M73.1975 -16.2593H74.5614V-14.8954H73.1975V-16.2593Z" fill="#1192F0"/>
<path d="M73.1975 -5.80254H74.5614V-4.43861H73.1975V-5.80254Z" fill="#1192F0"/>
<path d="M73.1975 4.65424H74.5614V6.01817H73.1975V4.65424Z" fill="#1192F0"/>
<path d="M73.1975 15.111H74.5614V16.475H73.1975V15.111Z" fill="#1192F0"/>
<path d="M73.1975 25.5678H74.5614V26.9317H73.1975V25.5678Z" fill="#1192F0"/>
<path d="M73.1975 36.0246H74.5614V37.3885H73.1975V36.0246Z" fill="#1192F0"/>
<path d="M73.1975 46.4814H74.5614V47.8453H73.1975V46.4814Z" fill="#1192F0"/>
<path d="M73.1975 56.9381H74.5614V58.3021H73.1975V56.9381Z" fill="#1192F0"/>
<path d="M73.1975 67.3949H74.5614V68.7589H73.1975V67.3949Z" fill="#1192F0"/>
<path d="M73.1975 77.8517H74.5614V79.2156H73.1975V77.8517Z" fill="#1192F0"/>
<path d="M83.6542 -79H85.0182V-77.6361H83.6542V-79Z" fill="#1192F0"/>
<path d="M83.6542 -68.5432H85.0182V-67.1793H83.6542V-68.5432Z" fill="#1192F0"/>
<path d="M83.6542 -58.0864H85.0182V-56.7225H83.6542V-58.0864Z" fill="#1192F0"/>
<path d="M83.6542 -47.6297H85.0182V-46.2657H83.6542V-47.6297Z" fill="#1192F0"/>
<path d="M83.6542 -37.1729H85.0182V-35.809H83.6542V-37.1729Z" fill="#1192F0"/>
<path d="M83.6542 -26.7161H85.0182V-25.3522H83.6542V-26.7161Z" fill="#1192F0"/>
<path d="M83.6542 -16.2593H85.0182V-14.8954H83.6542V-16.2593Z" fill="#1192F0"/>
<path d="M83.6542 -5.80254H85.0182V-4.43861H83.6542V-5.80254Z" fill="#1192F0"/>
<path d="M83.6542 4.65424H85.0182V6.01817H83.6542V4.65424Z" fill="#1192F0"/>
<path d="M83.6542 15.111H85.0182V16.475H83.6542V15.111Z" fill="#1192F0"/>
<path d="M83.6542 25.5678H85.0182V26.9317H83.6542V25.5678Z" fill="#1192F0"/>
<path d="M83.6542 36.0246H85.0182V37.3885H83.6542V36.0246Z" fill="#1192F0"/>
<path d="M83.6542 46.4814H85.0182V47.8453H83.6542V46.4814Z" fill="#1192F0"/>
<path d="M83.6542 56.9381H85.0182V58.3021H83.6542V56.9381Z" fill="#1192F0"/>
<path d="M83.6542 67.3949H85.0182V68.7589H83.6542V67.3949Z" fill="#1192F0"/>
<path d="M83.6542 77.8517H85.0182V79.2156H83.6542V77.8517Z" fill="#1192F0"/>
<path d="M94.111 -79H95.475V-77.6361H94.111V-79Z" fill="#1192F0"/>
<path d="M94.111 -68.5432H95.475V-67.1793H94.111V-68.5432Z" fill="#1192F0"/>
<path d="M94.111 -58.0864H95.475V-56.7225H94.111V-58.0864Z" fill="#1192F0"/>
<path d="M94.111 -47.6297H95.475V-46.2657H94.111V-47.6297Z" fill="#1192F0"/>
<path d="M94.111 -37.1729H95.475V-35.809H94.111V-37.1729Z" fill="#1192F0"/>
<path d="M94.111 -26.7161H95.475V-25.3522H94.111V-26.7161Z" fill="#1192F0"/>
<path d="M94.111 -16.2593H95.475V-14.8954H94.111V-16.2593Z" fill="#1192F0"/>
<path d="M94.111 -5.80254H95.475V-4.43861H94.111V-5.80254Z" fill="#1192F0"/>
<path d="M94.111 4.65424H95.475V6.01817H94.111V4.65424Z" fill="#1192F0"/>
<path d="M94.111 15.111H95.475V16.475H94.111V15.111Z" fill="#1192F0"/>
<path d="M94.111 25.5678H95.475V26.9317H94.111V25.5678Z" fill="#1192F0"/>
<path d="M94.111 36.0246H95.475V37.3885H94.111V36.0246Z" fill="#1192F0"/>
<path d="M94.111 46.4814H95.475V47.8453H94.111V46.4814Z" fill="#1192F0"/>
<path d="M94.111 56.9381H95.475V58.3021H94.111V56.9381Z" fill="#1192F0"/>
<path d="M94.111 67.3949H95.475V68.7589H94.111V67.3949Z" fill="#1192F0"/>
<path d="M94.111 77.8517H95.475V79.2156H94.111V77.8517Z" fill="#1192F0"/>
<path d="M104.568 -79H105.932V-77.6361H104.568V-79Z" fill="#1192F0"/>
<path d="M104.568 -68.5432H105.932V-67.1793H104.568V-68.5432Z" fill="#1192F0"/>
<path d="M104.568 -58.0864H105.932V-56.7225H104.568V-58.0864Z" fill="#1192F0"/>
<path d="M104.568 -47.6297H105.932V-46.2657H104.568V-47.6297Z" fill="#1192F0"/>
<path d="M104.568 -37.1729H105.932V-35.809H104.568V-37.1729Z" fill="#1192F0"/>
<path d="M104.568 -26.7161H105.932V-25.3522H104.568V-26.7161Z" fill="#1192F0"/>
<path d="M104.568 -16.2593H105.932V-14.8954H104.568V-16.2593Z" fill="#1192F0"/>
<path d="M104.568 -5.80254H105.932V-4.43861H104.568V-5.80254Z" fill="#1192F0"/>
<path d="M104.568 4.65424H105.932V6.01817H104.568V4.65424Z" fill="#1192F0"/>
<path d="M104.568 15.111H105.932V16.475H104.568V15.111Z" fill="#1192F0"/>
<path d="M104.568 25.5678H105.932V26.9317H104.568V25.5678Z" fill="#1192F0"/>
<path d="M104.568 36.0246H105.932V37.3885H104.568V36.0246Z" fill="#1192F0"/>
<path d="M104.568 46.4814H105.932V47.8453H104.568V46.4814Z" fill="#1192F0"/>
<path d="M104.568 56.9381H105.932V58.3021H104.568V56.9381Z" fill="#1192F0"/>
<path d="M104.568 67.3949H105.932V68.7589H104.568V67.3949Z" fill="#1192F0"/>
<path d="M104.568 77.8517H105.932V79.2156H104.568V77.8517Z" fill="#1192F0"/>
<path d="M115.025 -79H116.389V-77.6361H115.025V-79Z" fill="#1192F0"/>
<path d="M115.025 -68.5432H116.389V-67.1793H115.025V-68.5432Z" fill="#1192F0"/>
<path d="M115.025 -58.0864H116.389V-56.7225H115.025V-58.0864Z" fill="#1192F0"/>
<path d="M115.025 -47.6297H116.389V-46.2657H115.025V-47.6297Z" fill="#1192F0"/>
<path d="M115.025 -37.1729H116.389V-35.809H115.025V-37.1729Z" fill="#1192F0"/>
<path d="M115.025 -26.7161H116.389V-25.3522H115.025V-26.7161Z" fill="#1192F0"/>
<path d="M115.025 -16.2593H116.389V-14.8954H115.025V-16.2593Z" fill="#1192F0"/>
<path d="M115.025 -5.80254H116.389V-4.43861H115.025V-5.80254Z" fill="#1192F0"/>
<path d="M115.025 4.65424H116.389V6.01817H115.025V4.65424Z" fill="#1192F0"/>
<path d="M115.025 15.111H116.389V16.475H115.025V15.111Z" fill="#1192F0"/>
<path d="M115.025 25.5678H116.389V26.9317H115.025V25.5678Z" fill="#1192F0"/>
<path d="M115.025 36.0246H116.389V37.3885H115.025V36.0246Z" fill="#1192F0"/>
<path d="M115.025 46.4814H116.389V47.8453H115.025V46.4814Z" fill="#1192F0"/>
<path d="M115.025 56.9381H116.389V58.3021H115.025V56.9381Z" fill="#1192F0"/>
<path d="M115.025 67.3949H116.389V68.7589H115.025V67.3949Z" fill="#1192F0"/>
<path d="M115.025 77.8517H116.389V79.2156H115.025V77.8517Z" fill="#1192F0"/>
<path d="M125.481 -79H126.845V-77.6361H125.481V-79Z" fill="#1192F0"/>
<path d="M125.481 -68.5432H126.845V-67.1793H125.481V-68.5432Z" fill="#1192F0"/>
<path d="M125.481 -58.0864H126.845V-56.7225H125.481V-58.0864Z" fill="#1192F0"/>
<path d="M125.481 -47.6297H126.845V-46.2657H125.481V-47.6297Z" fill="#1192F0"/>
<path d="M125.481 -37.1729H126.845V-35.809H125.481V-37.1729Z" fill="#1192F0"/>
<path d="M125.481 -26.7161H126.845V-25.3522H125.481V-26.7161Z" fill="#1192F0"/>
<path d="M125.481 -16.2593H126.845V-14.8954H125.481V-16.2593Z" fill="#1192F0"/>
<path d="M125.481 -5.80254H126.845V-4.43861H125.481V-5.80254Z" fill="#1192F0"/>
<path d="M125.481 4.65424H126.845V6.01817H125.481V4.65424Z" fill="#1192F0"/>
<path d="M125.481 15.111H126.845V16.475H125.481V15.111Z" fill="#1192F0"/>
<path d="M125.481 25.5678H126.845V26.9317H125.481V25.5678Z" fill="#1192F0"/>
<path d="M125.481 36.0246H126.845V37.3885H125.481V36.0246Z" fill="#1192F0"/>
<path d="M125.481 46.4814H126.845V47.8453H125.481V46.4814Z" fill="#1192F0"/>
<path d="M125.481 56.9381H126.845V58.3021H125.481V56.9381Z" fill="#1192F0"/>
<path d="M125.481 67.3949H126.845V68.7589H125.481V67.3949Z" fill="#1192F0"/>
<path d="M125.481 77.8517H126.845V79.2156H125.481V77.8517Z" fill="#1192F0"/>
<path d="M135.938 -79H137.302V-77.6361H135.938V-79Z" fill="#1192F0"/>
<path d="M135.938 -68.5432H137.302V-67.1793H135.938V-68.5432Z" fill="#1192F0"/>
<path d="M135.938 -58.0864H137.302V-56.7225H135.938V-58.0864Z" fill="#1192F0"/>
<path d="M135.938 -47.6297H137.302V-46.2657H135.938V-47.6297Z" fill="#1192F0"/>
<path d="M135.938 -37.1729H137.302V-35.809H135.938V-37.1729Z" fill="#1192F0"/>
<path d="M135.938 -26.7161H137.302V-25.3522H135.938V-26.7161Z" fill="#1192F0"/>
<path d="M135.938 -16.2593H137.302V-14.8954H135.938V-16.2593Z" fill="#1192F0"/>
<path d="M135.938 -5.80254H137.302V-4.43861H135.938V-5.80254Z" fill="#1192F0"/>
<path d="M135.938 4.65424H137.302V6.01817H135.938V4.65424Z" fill="#1192F0"/>
<path d="M135.938 15.111H137.302V16.475H135.938V15.111Z" fill="#1192F0"/>
<path d="M135.938 25.5678H137.302V26.9317H135.938V25.5678Z" fill="#1192F0"/>
<path d="M135.938 36.0246H137.302V37.3885H135.938V36.0246Z" fill="#1192F0"/>
<path d="M135.938 46.4814H137.302V47.8453H135.938V46.4814Z" fill="#1192F0"/>
<path d="M135.938 56.9381H137.302V58.3021H135.938V56.9381Z" fill="#1192F0"/>
<path d="M135.938 67.3949H137.302V68.7589H135.938V67.3949Z" fill="#1192F0"/>
<path d="M135.938 77.8517H137.302V79.2156H135.938V77.8517Z" fill="#1192F0"/>
<path d="M146.395 -79H147.759V-77.6361H146.395V-79Z" fill="#1192F0"/>
<path d="M146.395 -68.5432H147.759V-67.1793H146.395V-68.5432Z" fill="#1192F0"/>
<path d="M146.395 -58.0864H147.759V-56.7225H146.395V-58.0864Z" fill="#1192F0"/>
<path d="M146.395 -47.6297H147.759V-46.2657H146.395V-47.6297Z" fill="#1192F0"/>
<path d="M146.395 -37.1729H147.759V-35.809H146.395V-37.1729Z" fill="#1192F0"/>
<path d="M146.395 -26.7161H147.759V-25.3522H146.395V-26.7161Z" fill="#1192F0"/>
<path d="M146.395 -16.2593H147.759V-14.8954H146.395V-16.2593Z" fill="#1192F0"/>
<path d="M146.395 -5.80254H147.759V-4.43861H146.395V-5.80254Z" fill="#1192F0"/>
<path d="M146.395 4.65424H147.759V6.01817H146.395V4.65424Z" fill="#1192F0"/>
<path d="M146.395 15.111H147.759V16.475H146.395V15.111Z" fill="#1192F0"/>
<path d="M146.395 25.5678H147.759V26.9317H146.395V25.5678Z" fill="#1192F0"/>
<path d="M146.395 36.0246H147.759V37.3885H146.395V36.0246Z" fill="#1192F0"/>
<path d="M146.395 46.4814H147.759V47.8453H146.395V46.4814Z" fill="#1192F0"/>
<path d="M146.395 56.9381H147.759V58.3021H146.395V56.9381Z" fill="#1192F0"/>
<path d="M146.395 67.3949H147.759V68.7589H146.395V67.3949Z" fill="#1192F0"/>
<path d="M146.395 77.8517H147.759V79.2156H146.395V77.8517Z" fill="#1192F0"/>
<path d="M156.852 -79H158.216V-77.6361H156.852V-79Z" fill="#1192F0"/>
<path d="M156.852 -68.5432H158.216V-67.1793H156.852V-68.5432Z" fill="#1192F0"/>
<path d="M156.852 -58.0864H158.216V-56.7225H156.852V-58.0864Z" fill="#1192F0"/>
<path d="M156.852 -47.6297H158.216V-46.2657H156.852V-47.6297Z" fill="#1192F0"/>
<path d="M156.852 -37.1729H158.216V-35.809H156.852V-37.1729Z" fill="#1192F0"/>
<path d="M156.852 -26.7161H158.216V-25.3522H156.852V-26.7161Z" fill="#1192F0"/>
<path d="M156.852 -16.2593H158.216V-14.8954H156.852V-16.2593Z" fill="#1192F0"/>
<path d="M156.852 -5.80254H158.216V-4.43861H156.852V-5.80254Z" fill="#1192F0"/>
<path d="M156.852 4.65424H158.216V6.01817H156.852V4.65424Z" fill="#1192F0"/>
<path d="M156.852 15.111H158.216V16.475H156.852V15.111Z" fill="#1192F0"/>
<path d="M156.852 25.5678H158.216V26.9317H156.852V25.5678Z" fill="#1192F0"/>
<path d="M156.852 36.0246H158.216V37.3885H156.852V36.0246Z" fill="#1192F0"/>
<path d="M156.852 46.4814H158.216V47.8453H156.852V46.4814Z" fill="#1192F0"/>
<path d="M156.852 56.9381H158.216V58.3021H156.852V56.9381Z" fill="#1192F0"/>
<path d="M156.852 67.3949H158.216V68.7589H156.852V67.3949Z" fill="#1192F0"/>
<path d="M156.852 77.8517H158.216V79.2156H156.852V77.8517Z" fill="#1192F0"/>
<path d="M167.308 -79H168.672V-77.6361H167.308V-79Z" fill="#1192F0"/>
<path d="M167.308 -68.5432H168.672V-67.1793H167.308V-68.5432Z" fill="#1192F0"/>
<path d="M167.308 -58.0864H168.672V-56.7225H167.308V-58.0864Z" fill="#1192F0"/>
<path d="M167.308 -47.6297H168.672V-46.2657H167.308V-47.6297Z" fill="#1192F0"/>
<path d="M167.308 -37.1729H168.672V-35.809H167.308V-37.1729Z" fill="#1192F0"/>
<path d="M167.308 -26.7161H168.672V-25.3522H167.308V-26.7161Z" fill="#1192F0"/>
<path d="M167.308 -16.2593H168.672V-14.8954H167.308V-16.2593Z" fill="#1192F0"/>
<path d="M167.308 -5.80254H168.672V-4.43861H167.308V-5.80254Z" fill="#1192F0"/>
<path d="M167.308 4.65424H168.672V6.01817H167.308V4.65424Z" fill="#1192F0"/>
<path d="M167.308 15.111H168.672V16.475H167.308V15.111Z" fill="#1192F0"/>
<path d="M167.308 25.5678H168.672V26.9317H167.308V25.5678Z" fill="#1192F0"/>
<path d="M167.308 36.0246H168.672V37.3885H167.308V36.0246Z" fill="#1192F0"/>
<path d="M167.308 46.4814H168.672V47.8453H167.308V46.4814Z" fill="#1192F0"/>
<path d="M167.308 56.9381H168.672V58.3021H167.308V56.9381Z" fill="#1192F0"/>
<path d="M167.308 67.3949H168.672V68.7589H167.308V67.3949Z" fill="#1192F0"/>
<path d="M167.308 77.8517H168.672V79.2156H167.308V77.8517Z" fill="#1192F0"/>
</g>
</g>
<defs>
<radialGradient id="paint0_radial_120_1771" cx="0" cy="0" r="1" gradientUnits="userSpaceOnUse" gradientTransform="translate(84.3362 0.107819) rotate(90) scale(79.1078 84.3362)">
<stop stop-color="#D9D9D9"/>
<stop offset="1" stop-color="#D9D9D9" stop-opacity="0"/>
</radialGradient>
</defs>
</svg>
