<svg width="85" height="79" viewBox="0 0 85 79" fill="none" xmlns="http://www.w3.org/2000/svg">
<g opacity="0.6">
<mask id="mask0_120_1786" style="mask-type:alpha" maskUnits="userSpaceOnUse" x="0" y="0" width="170" height="159">
<rect x="0.671875" width="168.672" height="158.216" rx="79.1078" fill="url(#paint0_radial_120_1786)"/>
</mask>
<g mask="url(#mask0_120_1786)">
<path d="M0.671875 0H2.0358V1.36393H0.671875V0Z" fill="#28D6B6"/>
<path d="M0.671875 10.4568H2.0358V11.8207H0.671875V10.4568Z" fill="#28D6B6"/>
<path d="M0.671875 20.9136H2.0358V22.2775H0.671875V20.9136Z" fill="#28D6B6"/>
<path d="M0.671875 31.3703H2.0358V32.7343H0.671875V31.3703Z" fill="#28D6B6"/>
<path d="M0.671875 41.8271H2.0358V43.191H0.671875V41.8271Z" fill="#28D6B6"/>
<path d="M0.671875 52.2839H2.0358V53.6478H0.671875V52.2839Z" fill="#28D6B6"/>
<path d="M0.671875 62.7407H2.0358V64.1046H0.671875V62.7407Z" fill="#28D6B6"/>
<path d="M0.671875 73.1975H2.0358V74.5614H0.671875V73.1975Z" fill="#28D6B6"/>
<path d="M0.671875 83.6542H2.0358V85.0182H0.671875V83.6542Z" fill="#28D6B6"/>
<path d="M0.671875 94.111H2.0358V95.475H0.671875V94.111Z" fill="#28D6B6"/>
<path d="M0.671875 104.568H2.0358V105.932H0.671875V104.568Z" fill="#28D6B6"/>
<path d="M0.671875 115.025H2.0358V116.389H0.671875V115.025Z" fill="#28D6B6"/>
<path d="M0.671875 125.481H2.0358V126.845H0.671875V125.481Z" fill="#28D6B6"/>
<path d="M0.671875 135.938H2.0358V137.302H0.671875V135.938Z" fill="#28D6B6"/>
<path d="M0.671875 146.395H2.0358V147.759H0.671875V146.395Z" fill="#28D6B6"/>
<path d="M0.671875 156.852H2.0358V158.216H0.671875V156.852Z" fill="#28D6B6"/>
<path d="M11.1287 0H12.4926V1.36393H11.1287V0Z" fill="#28D6B6"/>
<path d="M11.1287 10.4568H12.4926V11.8207H11.1287V10.4568Z" fill="#28D6B6"/>
<path d="M11.1287 20.9136H12.4926V22.2775H11.1287V20.9136Z" fill="#28D6B6"/>
<path d="M11.1287 31.3703H12.4926V32.7343H11.1287V31.3703Z" fill="#28D6B6"/>
<path d="M11.1287 41.8271H12.4926V43.191H11.1287V41.8271Z" fill="#28D6B6"/>
<path d="M11.1287 52.2839H12.4926V53.6478H11.1287V52.2839Z" fill="#28D6B6"/>
<path d="M11.1287 62.7407H12.4926V64.1046H11.1287V62.7407Z" fill="#28D6B6"/>
<path d="M11.1287 73.1975H12.4926V74.5614H11.1287V73.1975Z" fill="#28D6B6"/>
<path d="M11.1287 83.6542H12.4926V85.0182H11.1287V83.6542Z" fill="#28D6B6"/>
<path d="M11.1287 94.111H12.4926V95.475H11.1287V94.111Z" fill="#28D6B6"/>
<path d="M11.1287 104.568H12.4926V105.932H11.1287V104.568Z" fill="#28D6B6"/>
<path d="M11.1287 115.025H12.4926V116.389H11.1287V115.025Z" fill="#28D6B6"/>
<path d="M11.1287 125.481H12.4926V126.845H11.1287V125.481Z" fill="#28D6B6"/>
<path d="M11.1287 135.938H12.4926V137.302H11.1287V135.938Z" fill="#28D6B6"/>
<path d="M11.1287 146.395H12.4926V147.759H11.1287V146.395Z" fill="#28D6B6"/>
<path d="M11.1287 156.852H12.4926V158.216H11.1287V156.852Z" fill="#28D6B6"/>
<path d="M21.5854 0H22.9494V1.36393H21.5854V0Z" fill="#28D6B6"/>
<path d="M21.5854 10.4568H22.9494V11.8207H21.5854V10.4568Z" fill="#28D6B6"/>
<path d="M21.5854 20.9136H22.9494V22.2775H21.5854V20.9136Z" fill="#28D6B6"/>
<path d="M21.5854 31.3703H22.9494V32.7343H21.5854V31.3703Z" fill="#28D6B6"/>
<path d="M21.5854 41.8271H22.9494V43.191H21.5854V41.8271Z" fill="#28D6B6"/>
<path d="M21.5854 52.2839H22.9494V53.6478H21.5854V52.2839Z" fill="#28D6B6"/>
<path d="M21.5854 62.7407H22.9494V64.1046H21.5854V62.7407Z" fill="#28D6B6"/>
<path d="M21.5854 73.1975H22.9494V74.5614H21.5854V73.1975Z" fill="#28D6B6"/>
<path d="M21.5854 83.6542H22.9494V85.0182H21.5854V83.6542Z" fill="#28D6B6"/>
<path d="M21.5854 94.111H22.9494V95.475H21.5854V94.111Z" fill="#28D6B6"/>
<path d="M21.5854 104.568H22.9494V105.932H21.5854V104.568Z" fill="#28D6B6"/>
<path d="M21.5854 115.025H22.9494V116.389H21.5854V115.025Z" fill="#28D6B6"/>
<path d="M21.5854 125.481H22.9494V126.845H21.5854V125.481Z" fill="#28D6B6"/>
<path d="M21.5854 135.938H22.9494V137.302H21.5854V135.938Z" fill="#28D6B6"/>
<path d="M21.5854 146.395H22.9494V147.759H21.5854V146.395Z" fill="#28D6B6"/>
<path d="M21.5854 156.852H22.9494V158.216H21.5854V156.852Z" fill="#28D6B6"/>
<path d="M32.0422 0H33.4061V1.36393H32.0422V0Z" fill="#28D6B6"/>
<path d="M32.0422 10.4568H33.4061V11.8207H32.0422V10.4568Z" fill="#28D6B6"/>
<path d="M32.0422 20.9136H33.4061V22.2775H32.0422V20.9136Z" fill="#28D6B6"/>
<path d="M32.0422 31.3703H33.4061V32.7343H32.0422V31.3703Z" fill="#28D6B6"/>
<path d="M32.0422 41.8271H33.4061V43.191H32.0422V41.8271Z" fill="#28D6B6"/>
<path d="M32.0422 52.2839H33.4061V53.6478H32.0422V52.2839Z" fill="#28D6B6"/>
<path d="M32.0422 62.7407H33.4061V64.1046H32.0422V62.7407Z" fill="#28D6B6"/>
<path d="M32.0422 73.1975H33.4061V74.5614H32.0422V73.1975Z" fill="#28D6B6"/>
<path d="M32.0422 83.6542H33.4061V85.0182H32.0422V83.6542Z" fill="#28D6B6"/>
<path d="M32.0422 94.111H33.4061V95.475H32.0422V94.111Z" fill="#28D6B6"/>
<path d="M32.0422 104.568H33.4061V105.932H32.0422V104.568Z" fill="#28D6B6"/>
<path d="M32.0422 115.025H33.4061V116.389H32.0422V115.025Z" fill="#28D6B6"/>
<path d="M32.0422 125.481H33.4061V126.845H32.0422V125.481Z" fill="#28D6B6"/>
<path d="M32.0422 135.938H33.4061V137.302H32.0422V135.938Z" fill="#28D6B6"/>
<path d="M32.0422 146.395H33.4061V147.759H32.0422V146.395Z" fill="#28D6B6"/>
<path d="M32.0422 156.852H33.4061V158.216H32.0422V156.852Z" fill="#28D6B6"/>
<path d="M42.499 0H43.8629V1.36393H42.499V0Z" fill="#28D6B6"/>
<path d="M42.499 10.4568H43.8629V11.8207H42.499V10.4568Z" fill="#28D6B6"/>
<path d="M42.499 20.9136H43.8629V22.2775H42.499V20.9136Z" fill="#28D6B6"/>
<path d="M42.499 31.3703H43.8629V32.7343H42.499V31.3703Z" fill="#28D6B6"/>
<path d="M42.499 41.8271H43.8629V43.191H42.499V41.8271Z" fill="#28D6B6"/>
<path d="M42.499 52.2839H43.8629V53.6478H42.499V52.2839Z" fill="#28D6B6"/>
<path d="M42.499 62.7407H43.8629V64.1046H42.499V62.7407Z" fill="#28D6B6"/>
<path d="M42.499 73.1975H43.8629V74.5614H42.499V73.1975Z" fill="#28D6B6"/>
<path d="M42.499 83.6542H43.8629V85.0182H42.499V83.6542Z" fill="#28D6B6"/>
<path d="M42.499 94.111H43.8629V95.475H42.499V94.111Z" fill="#28D6B6"/>
<path d="M42.499 104.568H43.8629V105.932H42.499V104.568Z" fill="#28D6B6"/>
<path d="M42.499 115.025H43.8629V116.389H42.499V115.025Z" fill="#28D6B6"/>
<path d="M42.499 125.481H43.8629V126.845H42.499V125.481Z" fill="#28D6B6"/>
<path d="M42.499 135.938H43.8629V137.302H42.499V135.938Z" fill="#28D6B6"/>
<path d="M42.499 146.395H43.8629V147.759H42.499V146.395Z" fill="#28D6B6"/>
<path d="M42.499 156.852H43.8629V158.216H42.499V156.852Z" fill="#28D6B6"/>
<path d="M52.9558 0H54.3197V1.36393H52.9558V0Z" fill="#28D6B6"/>
<path d="M52.9558 10.4568H54.3197V11.8207H52.9558V10.4568Z" fill="#28D6B6"/>
<path d="M52.9558 20.9136H54.3197V22.2775H52.9558V20.9136Z" fill="#28D6B6"/>
<path d="M52.9558 31.3703H54.3197V32.7343H52.9558V31.3703Z" fill="#28D6B6"/>
<path d="M52.9558 41.8271H54.3197V43.191H52.9558V41.8271Z" fill="#28D6B6"/>
<path d="M52.9558 52.2839H54.3197V53.6478H52.9558V52.2839Z" fill="#28D6B6"/>
<path d="M52.9558 62.7407H54.3197V64.1046H52.9558V62.7407Z" fill="#28D6B6"/>
<path d="M52.9558 73.1975H54.3197V74.5614H52.9558V73.1975Z" fill="#28D6B6"/>
<path d="M52.9558 83.6542H54.3197V85.0182H52.9558V83.6542Z" fill="#28D6B6"/>
<path d="M52.9558 94.111H54.3197V95.475H52.9558V94.111Z" fill="#28D6B6"/>
<path d="M52.9558 104.568H54.3197V105.932H52.9558V104.568Z" fill="#28D6B6"/>
<path d="M52.9558 115.025H54.3197V116.389H52.9558V115.025Z" fill="#28D6B6"/>
<path d="M52.9558 125.481H54.3197V126.845H52.9558V125.481Z" fill="#28D6B6"/>
<path d="M52.9558 135.938H54.3197V137.302H52.9558V135.938Z" fill="#28D6B6"/>
<path d="M52.9558 146.395H54.3197V147.759H52.9558V146.395Z" fill="#28D6B6"/>
<path d="M52.9558 156.852H54.3197V158.216H52.9558V156.852Z" fill="#28D6B6"/>
<path d="M63.4126 0H64.7765V1.36393H63.4126V0Z" fill="#28D6B6"/>
<path d="M63.4126 10.4568H64.7765V11.8207H63.4126V10.4568Z" fill="#28D6B6"/>
<path d="M63.4126 20.9136H64.7765V22.2775H63.4126V20.9136Z" fill="#28D6B6"/>
<path d="M63.4126 31.3703H64.7765V32.7343H63.4126V31.3703Z" fill="#28D6B6"/>
<path d="M63.4126 41.8271H64.7765V43.191H63.4126V41.8271Z" fill="#28D6B6"/>
<path d="M63.4126 52.2839H64.7765V53.6478H63.4126V52.2839Z" fill="#28D6B6"/>
<path d="M63.4126 62.7407H64.7765V64.1046H63.4126V62.7407Z" fill="#28D6B6"/>
<path d="M63.4126 73.1975H64.7765V74.5614H63.4126V73.1975Z" fill="#28D6B6"/>
<path d="M63.4126 83.6542H64.7765V85.0182H63.4126V83.6542Z" fill="#28D6B6"/>
<path d="M63.4126 94.111H64.7765V95.475H63.4126V94.111Z" fill="#28D6B6"/>
<path d="M63.4126 104.568H64.7765V105.932H63.4126V104.568Z" fill="#28D6B6"/>
<path d="M63.4126 115.025H64.7765V116.389H63.4126V115.025Z" fill="#28D6B6"/>
<path d="M63.4126 125.481H64.7765V126.845H63.4126V125.481Z" fill="#28D6B6"/>
<path d="M63.4126 135.938H64.7765V137.302H63.4126V135.938Z" fill="#28D6B6"/>
<path d="M63.4126 146.395H64.7765V147.759H63.4126V146.395Z" fill="#28D6B6"/>
<path d="M63.4126 156.852H64.7765V158.216H63.4126V156.852Z" fill="#28D6B6"/>
<path d="M73.8693 0H75.2333V1.36393H73.8693V0Z" fill="#28D6B6"/>
<path d="M73.8693 10.4568H75.2333V11.8207H73.8693V10.4568Z" fill="#28D6B6"/>
<path d="M73.8693 20.9136H75.2333V22.2775H73.8693V20.9136Z" fill="#28D6B6"/>
<path d="M73.8693 31.3703H75.2333V32.7343H73.8693V31.3703Z" fill="#28D6B6"/>
<path d="M73.8693 41.8271H75.2333V43.191H73.8693V41.8271Z" fill="#28D6B6"/>
<path d="M73.8693 52.2839H75.2333V53.6478H73.8693V52.2839Z" fill="#28D6B6"/>
<path d="M73.8693 62.7407H75.2333V64.1046H73.8693V62.7407Z" fill="#28D6B6"/>
<path d="M73.8693 73.1975H75.2333V74.5614H73.8693V73.1975Z" fill="#28D6B6"/>
<path d="M73.8693 83.6542H75.2333V85.0182H73.8693V83.6542Z" fill="#28D6B6"/>
<path d="M73.8693 94.111H75.2333V95.475H73.8693V94.111Z" fill="#28D6B6"/>
<path d="M73.8693 104.568H75.2333V105.932H73.8693V104.568Z" fill="#28D6B6"/>
<path d="M73.8693 115.025H75.2333V116.389H73.8693V115.025Z" fill="#28D6B6"/>
<path d="M73.8693 125.481H75.2333V126.845H73.8693V125.481Z" fill="#28D6B6"/>
<path d="M73.8693 135.938H75.2333V137.302H73.8693V135.938Z" fill="#28D6B6"/>
<path d="M73.8693 146.395H75.2333V147.759H73.8693V146.395Z" fill="#28D6B6"/>
<path d="M73.8693 156.852H75.2333V158.216H73.8693V156.852Z" fill="#28D6B6"/>
<path d="M84.3261 0H85.69V1.36393H84.3261V0Z" fill="#28D6B6"/>
<path d="M84.3261 10.4568H85.69V11.8207H84.3261V10.4568Z" fill="#28D6B6"/>
<path d="M84.3261 20.9136H85.69V22.2775H84.3261V20.9136Z" fill="#28D6B6"/>
<path d="M84.3261 31.3703H85.69V32.7343H84.3261V31.3703Z" fill="#28D6B6"/>
<path d="M84.3261 41.8271H85.69V43.191H84.3261V41.8271Z" fill="#28D6B6"/>
<path d="M84.3261 52.2839H85.69V53.6478H84.3261V52.2839Z" fill="#28D6B6"/>
<path d="M84.3261 62.7407H85.69V64.1046H84.3261V62.7407Z" fill="#28D6B6"/>
<path d="M84.3261 73.1975H85.69V74.5614H84.3261V73.1975Z" fill="#28D6B6"/>
<path d="M84.3261 83.6542H85.69V85.0182H84.3261V83.6542Z" fill="#28D6B6"/>
<path d="M84.3261 94.111H85.69V95.475H84.3261V94.111Z" fill="#28D6B6"/>
<path d="M84.3261 104.568H85.69V105.932H84.3261V104.568Z" fill="#28D6B6"/>
<path d="M84.3261 115.025H85.69V116.389H84.3261V115.025Z" fill="#28D6B6"/>
<path d="M84.3261 125.481H85.69V126.845H84.3261V125.481Z" fill="#28D6B6"/>
<path d="M84.3261 135.938H85.69V137.302H84.3261V135.938Z" fill="#28D6B6"/>
<path d="M84.3261 146.395H85.69V147.759H84.3261V146.395Z" fill="#28D6B6"/>
<path d="M84.3261 156.852H85.69V158.216H84.3261V156.852Z" fill="#28D6B6"/>
<path d="M94.7829 0H96.1468V1.36393H94.7829V0Z" fill="#28D6B6"/>
<path d="M94.7829 10.4568H96.1468V11.8207H94.7829V10.4568Z" fill="#28D6B6"/>
<path d="M94.7829 20.9136H96.1468V22.2775H94.7829V20.9136Z" fill="#28D6B6"/>
<path d="M94.7829 31.3703H96.1468V32.7343H94.7829V31.3703Z" fill="#28D6B6"/>
<path d="M94.7829 41.8271H96.1468V43.191H94.7829V41.8271Z" fill="#28D6B6"/>
<path d="M94.7829 52.2839H96.1468V53.6478H94.7829V52.2839Z" fill="#28D6B6"/>
<path d="M94.7829 62.7407H96.1468V64.1046H94.7829V62.7407Z" fill="#28D6B6"/>
<path d="M94.7829 73.1975H96.1468V74.5614H94.7829V73.1975Z" fill="#28D6B6"/>
<path d="M94.7829 83.6542H96.1468V85.0182H94.7829V83.6542Z" fill="#28D6B6"/>
<path d="M94.7829 94.111H96.1468V95.475H94.7829V94.111Z" fill="#28D6B6"/>
<path d="M94.7829 104.568H96.1468V105.932H94.7829V104.568Z" fill="#28D6B6"/>
<path d="M94.7829 115.025H96.1468V116.389H94.7829V115.025Z" fill="#28D6B6"/>
<path d="M94.7829 125.481H96.1468V126.845H94.7829V125.481Z" fill="#28D6B6"/>
<path d="M94.7829 135.938H96.1468V137.302H94.7829V135.938Z" fill="#28D6B6"/>
<path d="M94.7829 146.395H96.1468V147.759H94.7829V146.395Z" fill="#28D6B6"/>
<path d="M94.7829 156.852H96.1468V158.216H94.7829V156.852Z" fill="#28D6B6"/>
<path d="M105.24 0H106.604V1.36393H105.24V0Z" fill="#28D6B6"/>
<path d="M105.24 10.4568H106.604V11.8207H105.24V10.4568Z" fill="#28D6B6"/>
<path d="M105.24 20.9136H106.604V22.2775H105.24V20.9136Z" fill="#28D6B6"/>
<path d="M105.24 31.3703H106.604V32.7343H105.24V31.3703Z" fill="#28D6B6"/>
<path d="M105.24 41.8271H106.604V43.191H105.24V41.8271Z" fill="#28D6B6"/>
<path d="M105.24 52.2839H106.604V53.6478H105.24V52.2839Z" fill="#28D6B6"/>
<path d="M105.24 62.7407H106.604V64.1046H105.24V62.7407Z" fill="#28D6B6"/>
<path d="M105.24 73.1975H106.604V74.5614H105.24V73.1975Z" fill="#28D6B6"/>
<path d="M105.24 83.6542H106.604V85.0182H105.24V83.6542Z" fill="#28D6B6"/>
<path d="M105.24 94.111H106.604V95.475H105.24V94.111Z" fill="#28D6B6"/>
<path d="M105.24 104.568H106.604V105.932H105.24V104.568Z" fill="#28D6B6"/>
<path d="M105.24 115.025H106.604V116.389H105.24V115.025Z" fill="#28D6B6"/>
<path d="M105.24 125.481H106.604V126.845H105.24V125.481Z" fill="#28D6B6"/>
<path d="M105.24 135.938H106.604V137.302H105.24V135.938Z" fill="#28D6B6"/>
<path d="M105.24 146.395H106.604V147.759H105.24V146.395Z" fill="#28D6B6"/>
<path d="M105.24 156.852H106.604V158.216H105.24V156.852Z" fill="#28D6B6"/>
<path d="M115.696 0H117.06V1.36393H115.696V0Z" fill="#28D6B6"/>
<path d="M115.696 10.4568H117.06V11.8207H115.696V10.4568Z" fill="#28D6B6"/>
<path d="M115.696 20.9136H117.06V22.2775H115.696V20.9136Z" fill="#28D6B6"/>
<path d="M115.696 31.3703H117.06V32.7343H115.696V31.3703Z" fill="#28D6B6"/>
<path d="M115.696 41.8271H117.06V43.191H115.696V41.8271Z" fill="#28D6B6"/>
<path d="M115.696 52.2839H117.06V53.6478H115.696V52.2839Z" fill="#28D6B6"/>
<path d="M115.696 62.7407H117.06V64.1046H115.696V62.7407Z" fill="#28D6B6"/>
<path d="M115.696 73.1975H117.06V74.5614H115.696V73.1975Z" fill="#28D6B6"/>
<path d="M115.696 83.6542H117.06V85.0182H115.696V83.6542Z" fill="#28D6B6"/>
<path d="M115.696 94.111H117.06V95.475H115.696V94.111Z" fill="#28D6B6"/>
<path d="M115.696 104.568H117.06V105.932H115.696V104.568Z" fill="#28D6B6"/>
<path d="M115.696 115.025H117.06V116.389H115.696V115.025Z" fill="#28D6B6"/>
<path d="M115.696 125.481H117.06V126.845H115.696V125.481Z" fill="#28D6B6"/>
<path d="M115.696 135.938H117.06V137.302H115.696V135.938Z" fill="#28D6B6"/>
<path d="M115.696 146.395H117.06V147.759H115.696V146.395Z" fill="#28D6B6"/>
<path d="M115.696 156.852H117.06V158.216H115.696V156.852Z" fill="#28D6B6"/>
<path d="M126.153 0H127.517V1.36393H126.153V0Z" fill="#28D6B6"/>
<path d="M126.153 10.4568H127.517V11.8207H126.153V10.4568Z" fill="#28D6B6"/>
<path d="M126.153 20.9136H127.517V22.2775H126.153V20.9136Z" fill="#28D6B6"/>
<path d="M126.153 31.3703H127.517V32.7343H126.153V31.3703Z" fill="#28D6B6"/>
<path d="M126.153 41.8271H127.517V43.191H126.153V41.8271Z" fill="#28D6B6"/>
<path d="M126.153 52.2839H127.517V53.6478H126.153V52.2839Z" fill="#28D6B6"/>
<path d="M126.153 62.7407H127.517V64.1046H126.153V62.7407Z" fill="#28D6B6"/>
<path d="M126.153 73.1975H127.517V74.5614H126.153V73.1975Z" fill="#28D6B6"/>
<path d="M126.153 83.6542H127.517V85.0182H126.153V83.6542Z" fill="#28D6B6"/>
<path d="M126.153 94.111H127.517V95.475H126.153V94.111Z" fill="#28D6B6"/>
<path d="M126.153 104.568H127.517V105.932H126.153V104.568Z" fill="#28D6B6"/>
<path d="M126.153 115.025H127.517V116.389H126.153V115.025Z" fill="#28D6B6"/>
<path d="M126.153 125.481H127.517V126.845H126.153V125.481Z" fill="#28D6B6"/>
<path d="M126.153 135.938H127.517V137.302H126.153V135.938Z" fill="#28D6B6"/>
<path d="M126.153 146.395H127.517V147.759H126.153V146.395Z" fill="#28D6B6"/>
<path d="M126.153 156.852H127.517V158.216H126.153V156.852Z" fill="#28D6B6"/>
<path d="M136.61 0H137.974V1.36393H136.61V0Z" fill="#28D6B6"/>
<path d="M136.61 10.4568H137.974V11.8207H136.61V10.4568Z" fill="#28D6B6"/>
<path d="M136.61 20.9136H137.974V22.2775H136.61V20.9136Z" fill="#28D6B6"/>
<path d="M136.61 31.3703H137.974V32.7343H136.61V31.3703Z" fill="#28D6B6"/>
<path d="M136.61 41.8271H137.974V43.191H136.61V41.8271Z" fill="#28D6B6"/>
<path d="M136.61 52.2839H137.974V53.6478H136.61V52.2839Z" fill="#28D6B6"/>
<path d="M136.61 62.7407H137.974V64.1046H136.61V62.7407Z" fill="#28D6B6"/>
<path d="M136.61 73.1975H137.974V74.5614H136.61V73.1975Z" fill="#28D6B6"/>
<path d="M136.61 83.6542H137.974V85.0182H136.61V83.6542Z" fill="#28D6B6"/>
<path d="M136.61 94.111H137.974V95.475H136.61V94.111Z" fill="#28D6B6"/>
<path d="M136.61 104.568H137.974V105.932H136.61V104.568Z" fill="#28D6B6"/>
<path d="M136.61 115.025H137.974V116.389H136.61V115.025Z" fill="#28D6B6"/>
<path d="M136.61 125.481H137.974V126.845H136.61V125.481Z" fill="#28D6B6"/>
<path d="M136.61 135.938H137.974V137.302H136.61V135.938Z" fill="#28D6B6"/>
<path d="M136.61 146.395H137.974V147.759H136.61V146.395Z" fill="#28D6B6"/>
<path d="M136.61 156.852H137.974V158.216H136.61V156.852Z" fill="#28D6B6"/>
<path d="M147.067 0H148.431V1.36393H147.067V0Z" fill="#28D6B6"/>
<path d="M147.067 10.4568H148.431V11.8207H147.067V10.4568Z" fill="#28D6B6"/>
<path d="M147.067 20.9136H148.431V22.2775H147.067V20.9136Z" fill="#28D6B6"/>
<path d="M147.067 31.3703H148.431V32.7343H147.067V31.3703Z" fill="#28D6B6"/>
<path d="M147.067 41.8271H148.431V43.191H147.067V41.8271Z" fill="#28D6B6"/>
<path d="M147.067 52.2839H148.431V53.6478H147.067V52.2839Z" fill="#28D6B6"/>
<path d="M147.067 62.7407H148.431V64.1046H147.067V62.7407Z" fill="#28D6B6"/>
<path d="M147.067 73.1975H148.431V74.5614H147.067V73.1975Z" fill="#28D6B6"/>
<path d="M147.067 83.6542H148.431V85.0182H147.067V83.6542Z" fill="#28D6B6"/>
<path d="M147.067 94.111H148.431V95.475H147.067V94.111Z" fill="#28D6B6"/>
<path d="M147.067 104.568H148.431V105.932H147.067V104.568Z" fill="#28D6B6"/>
<path d="M147.067 115.025H148.431V116.389H147.067V115.025Z" fill="#28D6B6"/>
<path d="M147.067 125.481H148.431V126.845H147.067V125.481Z" fill="#28D6B6"/>
<path d="M147.067 135.938H148.431V137.302H147.067V135.938Z" fill="#28D6B6"/>
<path d="M147.067 146.395H148.431V147.759H147.067V146.395Z" fill="#28D6B6"/>
<path d="M147.067 156.852H148.431V158.216H147.067V156.852Z" fill="#28D6B6"/>
<path d="M157.524 0H158.888V1.36393H157.524V0Z" fill="#28D6B6"/>
<path d="M157.524 10.4568H158.888V11.8207H157.524V10.4568Z" fill="#28D6B6"/>
<path d="M157.524 20.9136H158.888V22.2775H157.524V20.9136Z" fill="#28D6B6"/>
<path d="M157.524 31.3703H158.888V32.7343H157.524V31.3703Z" fill="#28D6B6"/>
<path d="M157.524 41.8271H158.888V43.191H157.524V41.8271Z" fill="#28D6B6"/>
<path d="M157.524 52.2839H158.888V53.6478H157.524V52.2839Z" fill="#28D6B6"/>
<path d="M157.524 62.7407H158.888V64.1046H157.524V62.7407Z" fill="#28D6B6"/>
<path d="M157.524 73.1975H158.888V74.5614H157.524V73.1975Z" fill="#28D6B6"/>
<path d="M157.524 83.6542H158.888V85.0182H157.524V83.6542Z" fill="#28D6B6"/>
<path d="M157.524 94.111H158.888V95.475H157.524V94.111Z" fill="#28D6B6"/>
<path d="M157.524 104.568H158.888V105.932H157.524V104.568Z" fill="#28D6B6"/>
<path d="M157.524 115.025H158.888V116.389H157.524V115.025Z" fill="#28D6B6"/>
<path d="M157.524 125.481H158.888V126.845H157.524V125.481Z" fill="#28D6B6"/>
<path d="M157.524 135.938H158.888V137.302H157.524V135.938Z" fill="#28D6B6"/>
<path d="M157.524 146.395H158.888V147.759H157.524V146.395Z" fill="#28D6B6"/>
<path d="M157.524 156.852H158.888V158.216H157.524V156.852Z" fill="#28D6B6"/>
<path d="M167.98 0H169.344V1.36393H167.98V0Z" fill="#28D6B6"/>
<path d="M167.98 10.4568H169.344V11.8207H167.98V10.4568Z" fill="#28D6B6"/>
<path d="M167.98 20.9136H169.344V22.2775H167.98V20.9136Z" fill="#28D6B6"/>
<path d="M167.98 31.3703H169.344V32.7343H167.98V31.3703Z" fill="#28D6B6"/>
<path d="M167.98 41.8271H169.344V43.191H167.98V41.8271Z" fill="#28D6B6"/>
<path d="M167.98 52.2839H169.344V53.6478H167.98V52.2839Z" fill="#28D6B6"/>
<path d="M167.98 62.7407H169.344V64.1046H167.98V62.7407Z" fill="#28D6B6"/>
<path d="M167.98 73.1975H169.344V74.5614H167.98V73.1975Z" fill="#28D6B6"/>
<path d="M167.98 83.6542H169.344V85.0182H167.98V83.6542Z" fill="#28D6B6"/>
<path d="M167.98 94.111H169.344V95.475H167.98V94.111Z" fill="#28D6B6"/>
<path d="M167.98 104.568H169.344V105.932H167.98V104.568Z" fill="#28D6B6"/>
<path d="M167.98 115.025H169.344V116.389H167.98V115.025Z" fill="#28D6B6"/>
<path d="M167.98 125.481H169.344V126.845H167.98V125.481Z" fill="#28D6B6"/>
<path d="M167.98 135.938H169.344V137.302H167.98V135.938Z" fill="#28D6B6"/>
<path d="M167.98 146.395H169.344V147.759H167.98V146.395Z" fill="#28D6B6"/>
<path d="M167.98 156.852H169.344V158.216H167.98V156.852Z" fill="#28D6B6"/>
</g>
</g>
<defs>
<radialGradient id="paint0_radial_120_1786" cx="0" cy="0" r="1" gradientUnits="userSpaceOnUse" gradientTransform="translate(85.0081 79.1078) rotate(90) scale(79.1078 84.3362)">
<stop stop-color="#D9D9D9"/>
<stop offset="1" stop-color="#D9D9D9" stop-opacity="0"/>
</radialGradient>
</defs>
</svg>
