<svg width="169" height="159" viewBox="0 0 169 159" fill="none" xmlns="http://www.w3.org/2000/svg">
<g opacity="0.5">
<mask id="mask0_117_1534" style="mask-type:alpha" maskUnits="userSpaceOnUse" x="0" y="0" width="169" height="159">
<rect width="168.672" height="158.216" rx="79.1078" fill="url(#paint0_radial_117_1534)"/>
</mask>
<g mask="url(#mask0_117_1534)">
<path d="M0 0H1.36393V1.36393H0V0Z" fill="#1192F0"/>
<path d="M0 10.4568H1.36393V11.8207H0V10.4568Z" fill="#1192F0"/>
<path d="M0 20.9136H1.36393V22.2775H0V20.9136Z" fill="#1192F0"/>
<path d="M0 31.3703H1.36393V32.7343H0V31.3703Z" fill="#1192F0"/>
<path d="M0 41.8271H1.36393V43.191H0V41.8271Z" fill="#1192F0"/>
<path d="M0 52.2839H1.36393V53.6478H0V52.2839Z" fill="#1192F0"/>
<path d="M0 62.7407H1.36393V64.1046H0V62.7407Z" fill="#1192F0"/>
<path d="M0 73.1975H1.36393V74.5614H0V73.1975Z" fill="#1192F0"/>
<path d="M0 83.6542H1.36393V85.0182H0V83.6542Z" fill="#1192F0"/>
<path d="M0 94.111H1.36393V95.475H0V94.111Z" fill="#1192F0"/>
<path d="M0 104.568H1.36393V105.932H0V104.568Z" fill="#1192F0"/>
<path d="M0 115.025H1.36393V116.389H0V115.025Z" fill="#1192F0"/>
<path d="M0 125.481H1.36393V126.845H0V125.481Z" fill="#1192F0"/>
<path d="M0 135.938H1.36393V137.302H0V135.938Z" fill="#1192F0"/>
<path d="M0 146.395H1.36393V147.759H0V146.395Z" fill="#1192F0"/>
<path d="M0 156.852H1.36393V158.216H0V156.852Z" fill="#1192F0"/>
<path d="M10.4568 0H11.8207V1.36393H10.4568V0Z" fill="#1192F0"/>
<path d="M10.4568 10.4568H11.8207V11.8207H10.4568V10.4568Z" fill="#1192F0"/>
<path d="M10.4568 20.9136H11.8207V22.2775H10.4568V20.9136Z" fill="#1192F0"/>
<path d="M10.4568 31.3703H11.8207V32.7343H10.4568V31.3703Z" fill="#1192F0"/>
<path d="M10.4568 41.8271H11.8207V43.191H10.4568V41.8271Z" fill="#1192F0"/>
<path d="M10.4568 52.2839H11.8207V53.6478H10.4568V52.2839Z" fill="#1192F0"/>
<path d="M10.4568 62.7407H11.8207V64.1046H10.4568V62.7407Z" fill="#1192F0"/>
<path d="M10.4568 73.1975H11.8207V74.5614H10.4568V73.1975Z" fill="#1192F0"/>
<path d="M10.4568 83.6542H11.8207V85.0182H10.4568V83.6542Z" fill="#1192F0"/>
<path d="M10.4568 94.111H11.8207V95.475H10.4568V94.111Z" fill="#1192F0"/>
<path d="M10.4568 104.568H11.8207V105.932H10.4568V104.568Z" fill="#1192F0"/>
<path d="M10.4568 115.025H11.8207V116.389H10.4568V115.025Z" fill="#1192F0"/>
<path d="M10.4568 125.481H11.8207V126.845H10.4568V125.481Z" fill="#1192F0"/>
<path d="M10.4568 135.938H11.8207V137.302H10.4568V135.938Z" fill="#1192F0"/>
<path d="M10.4568 146.395H11.8207V147.759H10.4568V146.395Z" fill="#1192F0"/>
<path d="M10.4568 156.852H11.8207V158.216H10.4568V156.852Z" fill="#1192F0"/>
<path d="M20.9136 0H22.2775V1.36393H20.9136V0Z" fill="#1192F0"/>
<path d="M20.9136 10.4568H22.2775V11.8207H20.9136V10.4568Z" fill="#1192F0"/>
<path d="M20.9136 20.9136H22.2775V22.2775H20.9136V20.9136Z" fill="#1192F0"/>
<path d="M20.9136 31.3703H22.2775V32.7343H20.9136V31.3703Z" fill="#1192F0"/>
<path d="M20.9136 41.8271H22.2775V43.191H20.9136V41.8271Z" fill="#1192F0"/>
<path d="M20.9136 52.2839H22.2775V53.6478H20.9136V52.2839Z" fill="#1192F0"/>
<path d="M20.9136 62.7407H22.2775V64.1046H20.9136V62.7407Z" fill="#1192F0"/>
<path d="M20.9136 73.1975H22.2775V74.5614H20.9136V73.1975Z" fill="#1192F0"/>
<path d="M20.9136 83.6542H22.2775V85.0182H20.9136V83.6542Z" fill="#1192F0"/>
<path d="M20.9136 94.111H22.2775V95.475H20.9136V94.111Z" fill="#1192F0"/>
<path d="M20.9136 104.568H22.2775V105.932H20.9136V104.568Z" fill="#1192F0"/>
<path d="M20.9136 115.025H22.2775V116.389H20.9136V115.025Z" fill="#1192F0"/>
<path d="M20.9136 125.481H22.2775V126.845H20.9136V125.481Z" fill="#1192F0"/>
<path d="M20.9136 135.938H22.2775V137.302H20.9136V135.938Z" fill="#1192F0"/>
<path d="M20.9136 146.395H22.2775V147.759H20.9136V146.395Z" fill="#1192F0"/>
<path d="M20.9136 156.852H22.2775V158.216H20.9136V156.852Z" fill="#1192F0"/>
<path d="M31.3703 0H32.7343V1.36393H31.3703V0Z" fill="#1192F0"/>
<path d="M31.3703 10.4568H32.7343V11.8207H31.3703V10.4568Z" fill="#1192F0"/>
<path d="M31.3703 20.9136H32.7343V22.2775H31.3703V20.9136Z" fill="#1192F0"/>
<path d="M31.3703 31.3703H32.7343V32.7343H31.3703V31.3703Z" fill="#1192F0"/>
<path d="M31.3703 41.8271H32.7343V43.191H31.3703V41.8271Z" fill="#1192F0"/>
<path d="M31.3703 52.2839H32.7343V53.6478H31.3703V52.2839Z" fill="#1192F0"/>
<path d="M31.3703 62.7407H32.7343V64.1046H31.3703V62.7407Z" fill="#1192F0"/>
<path d="M31.3703 73.1975H32.7343V74.5614H31.3703V73.1975Z" fill="#1192F0"/>
<path d="M31.3703 83.6542H32.7343V85.0182H31.3703V83.6542Z" fill="#1192F0"/>
<path d="M31.3703 94.111H32.7343V95.475H31.3703V94.111Z" fill="#1192F0"/>
<path d="M31.3703 104.568H32.7343V105.932H31.3703V104.568Z" fill="#1192F0"/>
<path d="M31.3703 115.025H32.7343V116.389H31.3703V115.025Z" fill="#1192F0"/>
<path d="M31.3703 125.481H32.7343V126.845H31.3703V125.481Z" fill="#1192F0"/>
<path d="M31.3703 135.938H32.7343V137.302H31.3703V135.938Z" fill="#1192F0"/>
<path d="M31.3703 146.395H32.7343V147.759H31.3703V146.395Z" fill="#1192F0"/>
<path d="M31.3703 156.852H32.7343V158.216H31.3703V156.852Z" fill="#1192F0"/>
<path d="M41.8271 0H43.191V1.36393H41.8271V0Z" fill="#1192F0"/>
<path d="M41.8271 10.4568H43.191V11.8207H41.8271V10.4568Z" fill="#1192F0"/>
<path d="M41.8271 20.9136H43.191V22.2775H41.8271V20.9136Z" fill="#1192F0"/>
<path d="M41.8271 31.3703H43.191V32.7343H41.8271V31.3703Z" fill="#1192F0"/>
<path d="M41.8271 41.8271H43.191V43.191H41.8271V41.8271Z" fill="#1192F0"/>
<path d="M41.8271 52.2839H43.191V53.6478H41.8271V52.2839Z" fill="#1192F0"/>
<path d="M41.8271 62.7407H43.191V64.1046H41.8271V62.7407Z" fill="#1192F0"/>
<path d="M41.8271 73.1975H43.191V74.5614H41.8271V73.1975Z" fill="#1192F0"/>
<path d="M41.8271 83.6542H43.191V85.0182H41.8271V83.6542Z" fill="#1192F0"/>
<path d="M41.8271 94.111H43.191V95.475H41.8271V94.111Z" fill="#1192F0"/>
<path d="M41.8271 104.568H43.191V105.932H41.8271V104.568Z" fill="#1192F0"/>
<path d="M41.8271 115.025H43.191V116.389H41.8271V115.025Z" fill="#1192F0"/>
<path d="M41.8271 125.481H43.191V126.845H41.8271V125.481Z" fill="#1192F0"/>
<path d="M41.8271 135.938H43.191V137.302H41.8271V135.938Z" fill="#1192F0"/>
<path d="M41.8271 146.395H43.191V147.759H41.8271V146.395Z" fill="#1192F0"/>
<path d="M41.8271 156.852H43.191V158.216H41.8271V156.852Z" fill="#1192F0"/>
<path d="M52.2839 0H53.6478V1.36393H52.2839V0Z" fill="#1192F0"/>
<path d="M52.2839 10.4568H53.6478V11.8207H52.2839V10.4568Z" fill="#1192F0"/>
<path d="M52.2839 20.9136H53.6478V22.2775H52.2839V20.9136Z" fill="#1192F0"/>
<path d="M52.2839 31.3703H53.6478V32.7343H52.2839V31.3703Z" fill="#1192F0"/>
<path d="M52.2839 41.8271H53.6478V43.191H52.2839V41.8271Z" fill="#1192F0"/>
<path d="M52.2839 52.2839H53.6478V53.6478H52.2839V52.2839Z" fill="#1192F0"/>
<path d="M52.2839 62.7407H53.6478V64.1046H52.2839V62.7407Z" fill="#1192F0"/>
<path d="M52.2839 73.1975H53.6478V74.5614H52.2839V73.1975Z" fill="#1192F0"/>
<path d="M52.2839 83.6542H53.6478V85.0182H52.2839V83.6542Z" fill="#1192F0"/>
<path d="M52.2839 94.111H53.6478V95.475H52.2839V94.111Z" fill="#1192F0"/>
<path d="M52.2839 104.568H53.6478V105.932H52.2839V104.568Z" fill="#1192F0"/>
<path d="M52.2839 115.025H53.6478V116.389H52.2839V115.025Z" fill="#1192F0"/>
<path d="M52.2839 125.481H53.6478V126.845H52.2839V125.481Z" fill="#1192F0"/>
<path d="M52.2839 135.938H53.6478V137.302H52.2839V135.938Z" fill="#1192F0"/>
<path d="M52.2839 146.395H53.6478V147.759H52.2839V146.395Z" fill="#1192F0"/>
<path d="M52.2839 156.852H53.6478V158.216H52.2839V156.852Z" fill="#1192F0"/>
<path d="M62.7407 0H64.1046V1.36393H62.7407V0Z" fill="#1192F0"/>
<path d="M62.7407 10.4568H64.1046V11.8207H62.7407V10.4568Z" fill="#1192F0"/>
<path d="M62.7407 20.9136H64.1046V22.2775H62.7407V20.9136Z" fill="#1192F0"/>
<path d="M62.7407 31.3703H64.1046V32.7343H62.7407V31.3703Z" fill="#1192F0"/>
<path d="M62.7407 41.8271H64.1046V43.191H62.7407V41.8271Z" fill="#1192F0"/>
<path d="M62.7407 52.2839H64.1046V53.6478H62.7407V52.2839Z" fill="#1192F0"/>
<path d="M62.7407 62.7407H64.1046V64.1046H62.7407V62.7407Z" fill="#1192F0"/>
<path d="M62.7407 73.1975H64.1046V74.5614H62.7407V73.1975Z" fill="#1192F0"/>
<path d="M62.7407 83.6542H64.1046V85.0182H62.7407V83.6542Z" fill="#1192F0"/>
<path d="M62.7407 94.111H64.1046V95.475H62.7407V94.111Z" fill="#1192F0"/>
<path d="M62.7407 104.568H64.1046V105.932H62.7407V104.568Z" fill="#1192F0"/>
<path d="M62.7407 115.025H64.1046V116.389H62.7407V115.025Z" fill="#1192F0"/>
<path d="M62.7407 125.481H64.1046V126.845H62.7407V125.481Z" fill="#1192F0"/>
<path d="M62.7407 135.938H64.1046V137.302H62.7407V135.938Z" fill="#1192F0"/>
<path d="M62.7407 146.395H64.1046V147.759H62.7407V146.395Z" fill="#1192F0"/>
<path d="M62.7407 156.852H64.1046V158.216H62.7407V156.852Z" fill="#1192F0"/>
<path d="M73.1975 0H74.5614V1.36393H73.1975V0Z" fill="#1192F0"/>
<path d="M73.1975 10.4568H74.5614V11.8207H73.1975V10.4568Z" fill="#1192F0"/>
<path d="M73.1975 20.9136H74.5614V22.2775H73.1975V20.9136Z" fill="#1192F0"/>
<path d="M73.1975 31.3703H74.5614V32.7343H73.1975V31.3703Z" fill="#1192F0"/>
<path d="M73.1975 41.8271H74.5614V43.191H73.1975V41.8271Z" fill="#1192F0"/>
<path d="M73.1975 52.2839H74.5614V53.6478H73.1975V52.2839Z" fill="#1192F0"/>
<path d="M73.1975 62.7407H74.5614V64.1046H73.1975V62.7407Z" fill="#1192F0"/>
<path d="M73.1975 73.1975H74.5614V74.5614H73.1975V73.1975Z" fill="#1192F0"/>
<path d="M73.1975 83.6542H74.5614V85.0182H73.1975V83.6542Z" fill="#1192F0"/>
<path d="M73.1975 94.111H74.5614V95.475H73.1975V94.111Z" fill="#1192F0"/>
<path d="M73.1975 104.568H74.5614V105.932H73.1975V104.568Z" fill="#1192F0"/>
<path d="M73.1975 115.025H74.5614V116.389H73.1975V115.025Z" fill="#1192F0"/>
<path d="M73.1975 125.481H74.5614V126.845H73.1975V125.481Z" fill="#1192F0"/>
<path d="M73.1975 135.938H74.5614V137.302H73.1975V135.938Z" fill="#1192F0"/>
<path d="M73.1975 146.395H74.5614V147.759H73.1975V146.395Z" fill="#1192F0"/>
<path d="M73.1975 156.852H74.5614V158.216H73.1975V156.852Z" fill="#1192F0"/>
<path d="M83.6542 0H85.0182V1.36393H83.6542V0Z" fill="#1192F0"/>
<path d="M83.6542 10.4568H85.0182V11.8207H83.6542V10.4568Z" fill="#1192F0"/>
<path d="M83.6542 20.9136H85.0182V22.2775H83.6542V20.9136Z" fill="#1192F0"/>
<path d="M83.6542 31.3703H85.0182V32.7343H83.6542V31.3703Z" fill="#1192F0"/>
<path d="M83.6542 41.8271H85.0182V43.191H83.6542V41.8271Z" fill="#1192F0"/>
<path d="M83.6542 52.2839H85.0182V53.6478H83.6542V52.2839Z" fill="#1192F0"/>
<path d="M83.6542 62.7407H85.0182V64.1046H83.6542V62.7407Z" fill="#1192F0"/>
<path d="M83.6542 73.1975H85.0182V74.5614H83.6542V73.1975Z" fill="#1192F0"/>
<path d="M83.6542 83.6542H85.0182V85.0182H83.6542V83.6542Z" fill="#1192F0"/>
<path d="M83.6542 94.111H85.0182V95.475H83.6542V94.111Z" fill="#1192F0"/>
<path d="M83.6542 104.568H85.0182V105.932H83.6542V104.568Z" fill="#1192F0"/>
<path d="M83.6542 115.025H85.0182V116.389H83.6542V115.025Z" fill="#1192F0"/>
<path d="M83.6542 125.481H85.0182V126.845H83.6542V125.481Z" fill="#1192F0"/>
<path d="M83.6542 135.938H85.0182V137.302H83.6542V135.938Z" fill="#1192F0"/>
<path d="M83.6542 146.395H85.0182V147.759H83.6542V146.395Z" fill="#1192F0"/>
<path d="M83.6542 156.852H85.0182V158.216H83.6542V156.852Z" fill="#1192F0"/>
<path d="M94.111 0H95.475V1.36393H94.111V0Z" fill="#1192F0"/>
<path d="M94.111 10.4568H95.475V11.8207H94.111V10.4568Z" fill="#1192F0"/>
<path d="M94.111 20.9136H95.475V22.2775H94.111V20.9136Z" fill="#1192F0"/>
<path d="M94.111 31.3703H95.475V32.7343H94.111V31.3703Z" fill="#1192F0"/>
<path d="M94.111 41.8271H95.475V43.191H94.111V41.8271Z" fill="#1192F0"/>
<path d="M94.111 52.2839H95.475V53.6478H94.111V52.2839Z" fill="#1192F0"/>
<path d="M94.111 62.7407H95.475V64.1046H94.111V62.7407Z" fill="#1192F0"/>
<path d="M94.111 73.1975H95.475V74.5614H94.111V73.1975Z" fill="#1192F0"/>
<path d="M94.111 83.6542H95.475V85.0182H94.111V83.6542Z" fill="#1192F0"/>
<path d="M94.111 94.111H95.475V95.475H94.111V94.111Z" fill="#1192F0"/>
<path d="M94.111 104.568H95.475V105.932H94.111V104.568Z" fill="#1192F0"/>
<path d="M94.111 115.025H95.475V116.389H94.111V115.025Z" fill="#1192F0"/>
<path d="M94.111 125.481H95.475V126.845H94.111V125.481Z" fill="#1192F0"/>
<path d="M94.111 135.938H95.475V137.302H94.111V135.938Z" fill="#1192F0"/>
<path d="M94.111 146.395H95.475V147.759H94.111V146.395Z" fill="#1192F0"/>
<path d="M94.111 156.852H95.475V158.216H94.111V156.852Z" fill="#1192F0"/>
<path d="M104.568 0H105.932V1.36393H104.568V0Z" fill="#1192F0"/>
<path d="M104.568 10.4568H105.932V11.8207H104.568V10.4568Z" fill="#1192F0"/>
<path d="M104.568 20.9136H105.932V22.2775H104.568V20.9136Z" fill="#1192F0"/>
<path d="M104.568 31.3703H105.932V32.7343H104.568V31.3703Z" fill="#1192F0"/>
<path d="M104.568 41.8271H105.932V43.191H104.568V41.8271Z" fill="#1192F0"/>
<path d="M104.568 52.2839H105.932V53.6478H104.568V52.2839Z" fill="#1192F0"/>
<path d="M104.568 62.7407H105.932V64.1046H104.568V62.7407Z" fill="#1192F0"/>
<path d="M104.568 73.1975H105.932V74.5614H104.568V73.1975Z" fill="#1192F0"/>
<path d="M104.568 83.6542H105.932V85.0182H104.568V83.6542Z" fill="#1192F0"/>
<path d="M104.568 94.111H105.932V95.475H104.568V94.111Z" fill="#1192F0"/>
<path d="M104.568 104.568H105.932V105.932H104.568V104.568Z" fill="#1192F0"/>
<path d="M104.568 115.025H105.932V116.389H104.568V115.025Z" fill="#1192F0"/>
<path d="M104.568 125.481H105.932V126.845H104.568V125.481Z" fill="#1192F0"/>
<path d="M104.568 135.938H105.932V137.302H104.568V135.938Z" fill="#1192F0"/>
<path d="M104.568 146.395H105.932V147.759H104.568V146.395Z" fill="#1192F0"/>
<path d="M104.568 156.852H105.932V158.216H104.568V156.852Z" fill="#1192F0"/>
<path d="M115.025 0H116.389V1.36393H115.025V0Z" fill="#1192F0"/>
<path d="M115.025 10.4568H116.389V11.8207H115.025V10.4568Z" fill="#1192F0"/>
<path d="M115.025 20.9136H116.389V22.2775H115.025V20.9136Z" fill="#1192F0"/>
<path d="M115.025 31.3703H116.389V32.7343H115.025V31.3703Z" fill="#1192F0"/>
<path d="M115.025 41.8271H116.389V43.191H115.025V41.8271Z" fill="#1192F0"/>
<path d="M115.025 52.2839H116.389V53.6478H115.025V52.2839Z" fill="#1192F0"/>
<path d="M115.025 62.7407H116.389V64.1046H115.025V62.7407Z" fill="#1192F0"/>
<path d="M115.025 73.1975H116.389V74.5614H115.025V73.1975Z" fill="#1192F0"/>
<path d="M115.025 83.6542H116.389V85.0182H115.025V83.6542Z" fill="#1192F0"/>
<path d="M115.025 94.111H116.389V95.475H115.025V94.111Z" fill="#1192F0"/>
<path d="M115.025 104.568H116.389V105.932H115.025V104.568Z" fill="#1192F0"/>
<path d="M115.025 115.025H116.389V116.389H115.025V115.025Z" fill="#1192F0"/>
<path d="M115.025 125.481H116.389V126.845H115.025V125.481Z" fill="#1192F0"/>
<path d="M115.025 135.938H116.389V137.302H115.025V135.938Z" fill="#1192F0"/>
<path d="M115.025 146.395H116.389V147.759H115.025V146.395Z" fill="#1192F0"/>
<path d="M115.025 156.852H116.389V158.216H115.025V156.852Z" fill="#1192F0"/>
<path d="M125.481 0H126.845V1.36393H125.481V0Z" fill="#1192F0"/>
<path d="M125.481 10.4568H126.845V11.8207H125.481V10.4568Z" fill="#1192F0"/>
<path d="M125.481 20.9136H126.845V22.2775H125.481V20.9136Z" fill="#1192F0"/>
<path d="M125.481 31.3703H126.845V32.7343H125.481V31.3703Z" fill="#1192F0"/>
<path d="M125.481 41.8271H126.845V43.191H125.481V41.8271Z" fill="#1192F0"/>
<path d="M125.481 52.2839H126.845V53.6478H125.481V52.2839Z" fill="#1192F0"/>
<path d="M125.481 62.7407H126.845V64.1046H125.481V62.7407Z" fill="#1192F0"/>
<path d="M125.481 73.1975H126.845V74.5614H125.481V73.1975Z" fill="#1192F0"/>
<path d="M125.481 83.6542H126.845V85.0182H125.481V83.6542Z" fill="#1192F0"/>
<path d="M125.481 94.111H126.845V95.475H125.481V94.111Z" fill="#1192F0"/>
<path d="M125.481 104.568H126.845V105.932H125.481V104.568Z" fill="#1192F0"/>
<path d="M125.481 115.025H126.845V116.389H125.481V115.025Z" fill="#1192F0"/>
<path d="M125.481 125.481H126.845V126.845H125.481V125.481Z" fill="#1192F0"/>
<path d="M125.481 135.938H126.845V137.302H125.481V135.938Z" fill="#1192F0"/>
<path d="M125.481 146.395H126.845V147.759H125.481V146.395Z" fill="#1192F0"/>
<path d="M125.481 156.852H126.845V158.216H125.481V156.852Z" fill="#1192F0"/>
<path d="M135.938 0H137.302V1.36393H135.938V0Z" fill="#1192F0"/>
<path d="M135.938 10.4568H137.302V11.8207H135.938V10.4568Z" fill="#1192F0"/>
<path d="M135.938 20.9136H137.302V22.2775H135.938V20.9136Z" fill="#1192F0"/>
<path d="M135.938 31.3703H137.302V32.7343H135.938V31.3703Z" fill="#1192F0"/>
<path d="M135.938 41.8271H137.302V43.191H135.938V41.8271Z" fill="#1192F0"/>
<path d="M135.938 52.2839H137.302V53.6478H135.938V52.2839Z" fill="#1192F0"/>
<path d="M135.938 62.7407H137.302V64.1046H135.938V62.7407Z" fill="#1192F0"/>
<path d="M135.938 73.1975H137.302V74.5614H135.938V73.1975Z" fill="#1192F0"/>
<path d="M135.938 83.6542H137.302V85.0182H135.938V83.6542Z" fill="#1192F0"/>
<path d="M135.938 94.111H137.302V95.475H135.938V94.111Z" fill="#1192F0"/>
<path d="M135.938 104.568H137.302V105.932H135.938V104.568Z" fill="#1192F0"/>
<path d="M135.938 115.025H137.302V116.389H135.938V115.025Z" fill="#1192F0"/>
<path d="M135.938 125.481H137.302V126.845H135.938V125.481Z" fill="#1192F0"/>
<path d="M135.938 135.938H137.302V137.302H135.938V135.938Z" fill="#1192F0"/>
<path d="M135.938 146.395H137.302V147.759H135.938V146.395Z" fill="#1192F0"/>
<path d="M135.938 156.852H137.302V158.216H135.938V156.852Z" fill="#1192F0"/>
<path d="M146.395 0H147.759V1.36393H146.395V0Z" fill="#1192F0"/>
<path d="M146.395 10.4568H147.759V11.8207H146.395V10.4568Z" fill="#1192F0"/>
<path d="M146.395 20.9136H147.759V22.2775H146.395V20.9136Z" fill="#1192F0"/>
<path d="M146.395 31.3703H147.759V32.7343H146.395V31.3703Z" fill="#1192F0"/>
<path d="M146.395 41.8271H147.759V43.191H146.395V41.8271Z" fill="#1192F0"/>
<path d="M146.395 52.2839H147.759V53.6478H146.395V52.2839Z" fill="#1192F0"/>
<path d="M146.395 62.7407H147.759V64.1046H146.395V62.7407Z" fill="#1192F0"/>
<path d="M146.395 73.1975H147.759V74.5614H146.395V73.1975Z" fill="#1192F0"/>
<path d="M146.395 83.6542H147.759V85.0182H146.395V83.6542Z" fill="#1192F0"/>
<path d="M146.395 94.111H147.759V95.475H146.395V94.111Z" fill="#1192F0"/>
<path d="M146.395 104.568H147.759V105.932H146.395V104.568Z" fill="#1192F0"/>
<path d="M146.395 115.025H147.759V116.389H146.395V115.025Z" fill="#1192F0"/>
<path d="M146.395 125.481H147.759V126.845H146.395V125.481Z" fill="#1192F0"/>
<path d="M146.395 135.938H147.759V137.302H146.395V135.938Z" fill="#1192F0"/>
<path d="M146.395 146.395H147.759V147.759H146.395V146.395Z" fill="#1192F0"/>
<path d="M146.395 156.852H147.759V158.216H146.395V156.852Z" fill="#1192F0"/>
<path d="M156.852 0H158.216V1.36393H156.852V0Z" fill="#1192F0"/>
<path d="M156.852 10.4568H158.216V11.8207H156.852V10.4568Z" fill="#1192F0"/>
<path d="M156.852 20.9136H158.216V22.2775H156.852V20.9136Z" fill="#1192F0"/>
<path d="M156.852 31.3703H158.216V32.7343H156.852V31.3703Z" fill="#1192F0"/>
<path d="M156.852 41.8271H158.216V43.191H156.852V41.8271Z" fill="#1192F0"/>
<path d="M156.852 52.2839H158.216V53.6478H156.852V52.2839Z" fill="#1192F0"/>
<path d="M156.852 62.7407H158.216V64.1046H156.852V62.7407Z" fill="#1192F0"/>
<path d="M156.852 73.1975H158.216V74.5614H156.852V73.1975Z" fill="#1192F0"/>
<path d="M156.852 83.6542H158.216V85.0182H156.852V83.6542Z" fill="#1192F0"/>
<path d="M156.852 94.111H158.216V95.475H156.852V94.111Z" fill="#1192F0"/>
<path d="M156.852 104.568H158.216V105.932H156.852V104.568Z" fill="#1192F0"/>
<path d="M156.852 115.025H158.216V116.389H156.852V115.025Z" fill="#1192F0"/>
<path d="M156.852 125.481H158.216V126.845H156.852V125.481Z" fill="#1192F0"/>
<path d="M156.852 135.938H158.216V137.302H156.852V135.938Z" fill="#1192F0"/>
<path d="M156.852 146.395H158.216V147.759H156.852V146.395Z" fill="#1192F0"/>
<path d="M156.852 156.852H158.216V158.216H156.852V156.852Z" fill="#1192F0"/>
<path d="M167.308 0H168.672V1.36393H167.308V0Z" fill="#1192F0"/>
<path d="M167.308 10.4568H168.672V11.8207H167.308V10.4568Z" fill="#1192F0"/>
<path d="M167.308 20.9136H168.672V22.2775H167.308V20.9136Z" fill="#1192F0"/>
<path d="M167.308 31.3703H168.672V32.7343H167.308V31.3703Z" fill="#1192F0"/>
<path d="M167.308 41.8271H168.672V43.191H167.308V41.8271Z" fill="#1192F0"/>
<path d="M167.308 52.2839H168.672V53.6478H167.308V52.2839Z" fill="#1192F0"/>
<path d="M167.308 62.7407H168.672V64.1046H167.308V62.7407Z" fill="#1192F0"/>
<path d="M167.308 73.1975H168.672V74.5614H167.308V73.1975Z" fill="#1192F0"/>
<path d="M167.308 83.6542H168.672V85.0182H167.308V83.6542Z" fill="#1192F0"/>
<path d="M167.308 94.111H168.672V95.475H167.308V94.111Z" fill="#1192F0"/>
<path d="M167.308 104.568H168.672V105.932H167.308V104.568Z" fill="#1192F0"/>
<path d="M167.308 115.025H168.672V116.389H167.308V115.025Z" fill="#1192F0"/>
<path d="M167.308 125.481H168.672V126.845H167.308V125.481Z" fill="#1192F0"/>
<path d="M167.308 135.938H168.672V137.302H167.308V135.938Z" fill="#1192F0"/>
<path d="M167.308 146.395H168.672V147.759H167.308V146.395Z" fill="#1192F0"/>
<path d="M167.308 156.852H168.672V158.216H167.308V156.852Z" fill="#1192F0"/>
</g>
</g>
<defs>
<radialGradient id="paint0_radial_117_1534" cx="0" cy="0" r="1" gradientUnits="userSpaceOnUse" gradientTransform="translate(84.3362 79.1078) rotate(90) scale(79.1078 84.3362)">
<stop stop-color="#D9D9D9"/>
<stop offset="1" stop-color="#D9D9D9" stop-opacity="0"/>
</radialGradient>
</defs>
</svg>
