<svg width="85" height="80" viewBox="0 0 85 80" fill="none" xmlns="http://www.w3.org/2000/svg">
<g opacity="0.6">
<mask id="mask0_120_1774" style="mask-type:alpha" maskUnits="userSpaceOnUse" x="-84" y="-79" width="169" height="159">
<rect x="-84" y="-79" width="168.672" height="158.216" rx="79.1078" fill="url(#paint0_radial_120_1774)"/>
</mask>
<g mask="url(#mask0_120_1774)">
<path d="M-84 -79H-82.6361V-77.6361H-84V-79Z" fill="#28D6B6"/>
<path d="M-84 -68.5432H-82.6361V-67.1793H-84V-68.5432Z" fill="#28D6B6"/>
<path d="M-84 -58.0864H-82.6361V-56.7225H-84V-58.0864Z" fill="#28D6B6"/>
<path d="M-84 -47.6297H-82.6361V-46.2657H-84V-47.6297Z" fill="#28D6B6"/>
<path d="M-84 -37.1729H-82.6361V-35.809H-84V-37.1729Z" fill="#28D6B6"/>
<path d="M-84 -26.7161H-82.6361V-25.3522H-84V-26.7161Z" fill="#28D6B6"/>
<path d="M-84 -16.2593H-82.6361V-14.8954H-84V-16.2593Z" fill="#28D6B6"/>
<path d="M-84 -5.80254H-82.6361V-4.43861H-84V-5.80254Z" fill="#28D6B6"/>
<path d="M-84 4.65424H-82.6361V6.01817H-84V4.65424Z" fill="#28D6B6"/>
<path d="M-84 15.111H-82.6361V16.475H-84V15.111Z" fill="#28D6B6"/>
<path d="M-84 25.5678H-82.6361V26.9317H-84V25.5678Z" fill="#28D6B6"/>
<path d="M-84 36.0246H-82.6361V37.3885H-84V36.0246Z" fill="#28D6B6"/>
<path d="M-84 46.4814H-82.6361V47.8453H-84V46.4814Z" fill="#28D6B6"/>
<path d="M-84 56.9381H-82.6361V58.3021H-84V56.9381Z" fill="#28D6B6"/>
<path d="M-84 67.3949H-82.6361V68.7589H-84V67.3949Z" fill="#28D6B6"/>
<path d="M-84 77.8517H-82.6361V79.2156H-84V77.8517Z" fill="#28D6B6"/>
<path d="M-73.5432 -79H-72.1793V-77.6361H-73.5432V-79Z" fill="#28D6B6"/>
<path d="M-73.5432 -68.5432H-72.1793V-67.1793H-73.5432V-68.5432Z" fill="#28D6B6"/>
<path d="M-73.5432 -58.0864H-72.1793V-56.7225H-73.5432V-58.0864Z" fill="#28D6B6"/>
<path d="M-73.5432 -47.6297H-72.1793V-46.2657H-73.5432V-47.6297Z" fill="#28D6B6"/>
<path d="M-73.5432 -37.1729H-72.1793V-35.809H-73.5432V-37.1729Z" fill="#28D6B6"/>
<path d="M-73.5432 -26.7161H-72.1793V-25.3522H-73.5432V-26.7161Z" fill="#28D6B6"/>
<path d="M-73.5432 -16.2593H-72.1793V-14.8954H-73.5432V-16.2593Z" fill="#28D6B6"/>
<path d="M-73.5432 -5.80254H-72.1793V-4.43861H-73.5432V-5.80254Z" fill="#28D6B6"/>
<path d="M-73.5432 4.65424H-72.1793V6.01817H-73.5432V4.65424Z" fill="#28D6B6"/>
<path d="M-73.5432 15.111H-72.1793V16.475H-73.5432V15.111Z" fill="#28D6B6"/>
<path d="M-73.5432 25.5678H-72.1793V26.9317H-73.5432V25.5678Z" fill="#28D6B6"/>
<path d="M-73.5432 36.0246H-72.1793V37.3885H-73.5432V36.0246Z" fill="#28D6B6"/>
<path d="M-73.5432 46.4814H-72.1793V47.8453H-73.5432V46.4814Z" fill="#28D6B6"/>
<path d="M-73.5432 56.9381H-72.1793V58.3021H-73.5432V56.9381Z" fill="#28D6B6"/>
<path d="M-73.5432 67.3949H-72.1793V68.7589H-73.5432V67.3949Z" fill="#28D6B6"/>
<path d="M-73.5432 77.8517H-72.1793V79.2156H-73.5432V77.8517Z" fill="#28D6B6"/>
<path d="M-63.0864 -79H-61.7225V-77.6361H-63.0864V-79Z" fill="#28D6B6"/>
<path d="M-63.0864 -68.5432H-61.7225V-67.1793H-63.0864V-68.5432Z" fill="#28D6B6"/>
<path d="M-63.0864 -58.0864H-61.7225V-56.7225H-63.0864V-58.0864Z" fill="#28D6B6"/>
<path d="M-63.0864 -47.6297H-61.7225V-46.2657H-63.0864V-47.6297Z" fill="#28D6B6"/>
<path d="M-63.0864 -37.1729H-61.7225V-35.809H-63.0864V-37.1729Z" fill="#28D6B6"/>
<path d="M-63.0864 -26.7161H-61.7225V-25.3522H-63.0864V-26.7161Z" fill="#28D6B6"/>
<path d="M-63.0864 -16.2593H-61.7225V-14.8954H-63.0864V-16.2593Z" fill="#28D6B6"/>
<path d="M-63.0864 -5.80254H-61.7225V-4.43861H-63.0864V-5.80254Z" fill="#28D6B6"/>
<path d="M-63.0864 4.65424H-61.7225V6.01817H-63.0864V4.65424Z" fill="#28D6B6"/>
<path d="M-63.0864 15.111H-61.7225V16.475H-63.0864V15.111Z" fill="#28D6B6"/>
<path d="M-63.0864 25.5678H-61.7225V26.9317H-63.0864V25.5678Z" fill="#28D6B6"/>
<path d="M-63.0864 36.0246H-61.7225V37.3885H-63.0864V36.0246Z" fill="#28D6B6"/>
<path d="M-63.0864 46.4814H-61.7225V47.8453H-63.0864V46.4814Z" fill="#28D6B6"/>
<path d="M-63.0864 56.9381H-61.7225V58.3021H-63.0864V56.9381Z" fill="#28D6B6"/>
<path d="M-63.0864 67.3949H-61.7225V68.7589H-63.0864V67.3949Z" fill="#28D6B6"/>
<path d="M-63.0864 77.8517H-61.7225V79.2156H-63.0864V77.8517Z" fill="#28D6B6"/>
<path d="M-52.6297 -79H-51.2657V-77.6361H-52.6297V-79Z" fill="#28D6B6"/>
<path d="M-52.6297 -68.5432H-51.2657V-67.1793H-52.6297V-68.5432Z" fill="#28D6B6"/>
<path d="M-52.6297 -58.0864H-51.2657V-56.7225H-52.6297V-58.0864Z" fill="#28D6B6"/>
<path d="M-52.6297 -47.6297H-51.2657V-46.2657H-52.6297V-47.6297Z" fill="#28D6B6"/>
<path d="M-52.6297 -37.1729H-51.2657V-35.809H-52.6297V-37.1729Z" fill="#28D6B6"/>
<path d="M-52.6297 -26.7161H-51.2657V-25.3522H-52.6297V-26.7161Z" fill="#28D6B6"/>
<path d="M-52.6297 -16.2593H-51.2657V-14.8954H-52.6297V-16.2593Z" fill="#28D6B6"/>
<path d="M-52.6297 -5.80254H-51.2657V-4.43861H-52.6297V-5.80254Z" fill="#28D6B6"/>
<path d="M-52.6297 4.65424H-51.2657V6.01817H-52.6297V4.65424Z" fill="#28D6B6"/>
<path d="M-52.6297 15.111H-51.2657V16.475H-52.6297V15.111Z" fill="#28D6B6"/>
<path d="M-52.6297 25.5678H-51.2657V26.9317H-52.6297V25.5678Z" fill="#28D6B6"/>
<path d="M-52.6297 36.0246H-51.2657V37.3885H-52.6297V36.0246Z" fill="#28D6B6"/>
<path d="M-52.6297 46.4814H-51.2657V47.8453H-52.6297V46.4814Z" fill="#28D6B6"/>
<path d="M-52.6297 56.9381H-51.2657V58.3021H-52.6297V56.9381Z" fill="#28D6B6"/>
<path d="M-52.6297 67.3949H-51.2657V68.7589H-52.6297V67.3949Z" fill="#28D6B6"/>
<path d="M-52.6297 77.8517H-51.2657V79.2156H-52.6297V77.8517Z" fill="#28D6B6"/>
<path d="M-42.1729 -79H-40.809V-77.6361H-42.1729V-79Z" fill="#28D6B6"/>
<path d="M-42.1729 -68.5432H-40.809V-67.1793H-42.1729V-68.5432Z" fill="#28D6B6"/>
<path d="M-42.1729 -58.0864H-40.809V-56.7225H-42.1729V-58.0864Z" fill="#28D6B6"/>
<path d="M-42.1729 -47.6297H-40.809V-46.2657H-42.1729V-47.6297Z" fill="#28D6B6"/>
<path d="M-42.1729 -37.1729H-40.809V-35.809H-42.1729V-37.1729Z" fill="#28D6B6"/>
<path d="M-42.1729 -26.7161H-40.809V-25.3522H-42.1729V-26.7161Z" fill="#28D6B6"/>
<path d="M-42.1729 -16.2593H-40.809V-14.8954H-42.1729V-16.2593Z" fill="#28D6B6"/>
<path d="M-42.1729 -5.80254H-40.809V-4.43861H-42.1729V-5.80254Z" fill="#28D6B6"/>
<path d="M-42.1729 4.65424H-40.809V6.01817H-42.1729V4.65424Z" fill="#28D6B6"/>
<path d="M-42.1729 15.111H-40.809V16.475H-42.1729V15.111Z" fill="#28D6B6"/>
<path d="M-42.1729 25.5678H-40.809V26.9317H-42.1729V25.5678Z" fill="#28D6B6"/>
<path d="M-42.1729 36.0246H-40.809V37.3885H-42.1729V36.0246Z" fill="#28D6B6"/>
<path d="M-42.1729 46.4814H-40.809V47.8453H-42.1729V46.4814Z" fill="#28D6B6"/>
<path d="M-42.1729 56.9381H-40.809V58.3021H-42.1729V56.9381Z" fill="#28D6B6"/>
<path d="M-42.1729 67.3949H-40.809V68.7589H-42.1729V67.3949Z" fill="#28D6B6"/>
<path d="M-42.1729 77.8517H-40.809V79.2156H-42.1729V77.8517Z" fill="#28D6B6"/>
<path d="M-31.7161 -79H-30.3522V-77.6361H-31.7161V-79Z" fill="#28D6B6"/>
<path d="M-31.7161 -68.5432H-30.3522V-67.1793H-31.7161V-68.5432Z" fill="#28D6B6"/>
<path d="M-31.7161 -58.0864H-30.3522V-56.7225H-31.7161V-58.0864Z" fill="#28D6B6"/>
<path d="M-31.7161 -47.6297H-30.3522V-46.2657H-31.7161V-47.6297Z" fill="#28D6B6"/>
<path d="M-31.7161 -37.1729H-30.3522V-35.809H-31.7161V-37.1729Z" fill="#28D6B6"/>
<path d="M-31.7161 -26.7161H-30.3522V-25.3522H-31.7161V-26.7161Z" fill="#28D6B6"/>
<path d="M-31.7161 -16.2593H-30.3522V-14.8954H-31.7161V-16.2593Z" fill="#28D6B6"/>
<path d="M-31.7161 -5.80254H-30.3522V-4.43861H-31.7161V-5.80254Z" fill="#28D6B6"/>
<path d="M-31.7161 4.65424H-30.3522V6.01817H-31.7161V4.65424Z" fill="#28D6B6"/>
<path d="M-31.7161 15.111H-30.3522V16.475H-31.7161V15.111Z" fill="#28D6B6"/>
<path d="M-31.7161 25.5678H-30.3522V26.9317H-31.7161V25.5678Z" fill="#28D6B6"/>
<path d="M-31.7161 36.0246H-30.3522V37.3885H-31.7161V36.0246Z" fill="#28D6B6"/>
<path d="M-31.7161 46.4814H-30.3522V47.8453H-31.7161V46.4814Z" fill="#28D6B6"/>
<path d="M-31.7161 56.9381H-30.3522V58.3021H-31.7161V56.9381Z" fill="#28D6B6"/>
<path d="M-31.7161 67.3949H-30.3522V68.7589H-31.7161V67.3949Z" fill="#28D6B6"/>
<path d="M-31.7161 77.8517H-30.3522V79.2156H-31.7161V77.8517Z" fill="#28D6B6"/>
<path d="M-21.2593 -79H-19.8954V-77.6361H-21.2593V-79Z" fill="#28D6B6"/>
<path d="M-21.2593 -68.5432H-19.8954V-67.1793H-21.2593V-68.5432Z" fill="#28D6B6"/>
<path d="M-21.2593 -58.0864H-19.8954V-56.7225H-21.2593V-58.0864Z" fill="#28D6B6"/>
<path d="M-21.2593 -47.6297H-19.8954V-46.2657H-21.2593V-47.6297Z" fill="#28D6B6"/>
<path d="M-21.2593 -37.1729H-19.8954V-35.809H-21.2593V-37.1729Z" fill="#28D6B6"/>
<path d="M-21.2593 -26.7161H-19.8954V-25.3522H-21.2593V-26.7161Z" fill="#28D6B6"/>
<path d="M-21.2593 -16.2593H-19.8954V-14.8954H-21.2593V-16.2593Z" fill="#28D6B6"/>
<path d="M-21.2593 -5.80254H-19.8954V-4.43861H-21.2593V-5.80254Z" fill="#28D6B6"/>
<path d="M-21.2593 4.65424H-19.8954V6.01817H-21.2593V4.65424Z" fill="#28D6B6"/>
<path d="M-21.2593 15.111H-19.8954V16.475H-21.2593V15.111Z" fill="#28D6B6"/>
<path d="M-21.2593 25.5678H-19.8954V26.9317H-21.2593V25.5678Z" fill="#28D6B6"/>
<path d="M-21.2593 36.0246H-19.8954V37.3885H-21.2593V36.0246Z" fill="#28D6B6"/>
<path d="M-21.2593 46.4814H-19.8954V47.8453H-21.2593V46.4814Z" fill="#28D6B6"/>
<path d="M-21.2593 56.9381H-19.8954V58.3021H-21.2593V56.9381Z" fill="#28D6B6"/>
<path d="M-21.2593 67.3949H-19.8954V68.7589H-21.2593V67.3949Z" fill="#28D6B6"/>
<path d="M-21.2593 77.8517H-19.8954V79.2156H-21.2593V77.8517Z" fill="#28D6B6"/>
<path d="M-10.8025 -79H-9.43861V-77.6361H-10.8025V-79Z" fill="#28D6B6"/>
<path d="M-10.8025 -68.5432H-9.43861V-67.1793H-10.8025V-68.5432Z" fill="#28D6B6"/>
<path d="M-10.8025 -58.0864H-9.43861V-56.7225H-10.8025V-58.0864Z" fill="#28D6B6"/>
<path d="M-10.8025 -47.6297H-9.43861V-46.2657H-10.8025V-47.6297Z" fill="#28D6B6"/>
<path d="M-10.8025 -37.1729H-9.43861V-35.809H-10.8025V-37.1729Z" fill="#28D6B6"/>
<path d="M-10.8025 -26.7161H-9.43861V-25.3522H-10.8025V-26.7161Z" fill="#28D6B6"/>
<path d="M-10.8025 -16.2593H-9.43861V-14.8954H-10.8025V-16.2593Z" fill="#28D6B6"/>
<path d="M-10.8025 -5.80254H-9.43861V-4.43861H-10.8025V-5.80254Z" fill="#28D6B6"/>
<path d="M-10.8025 4.65424H-9.43861V6.01817H-10.8025V4.65424Z" fill="#28D6B6"/>
<path d="M-10.8025 15.111H-9.43861V16.475H-10.8025V15.111Z" fill="#28D6B6"/>
<path d="M-10.8025 25.5678H-9.43861V26.9317H-10.8025V25.5678Z" fill="#28D6B6"/>
<path d="M-10.8025 36.0246H-9.43861V37.3885H-10.8025V36.0246Z" fill="#28D6B6"/>
<path d="M-10.8025 46.4814H-9.43861V47.8453H-10.8025V46.4814Z" fill="#28D6B6"/>
<path d="M-10.8025 56.9381H-9.43861V58.3021H-10.8025V56.9381Z" fill="#28D6B6"/>
<path d="M-10.8025 67.3949H-9.43861V68.7589H-10.8025V67.3949Z" fill="#28D6B6"/>
<path d="M-10.8025 77.8517H-9.43861V79.2156H-10.8025V77.8517Z" fill="#28D6B6"/>
<path d="M-0.345757 -79H1.01817V-77.6361H-0.345757V-79Z" fill="#28D6B6"/>
<path d="M-0.345757 -68.5432H1.01817V-67.1793H-0.345757V-68.5432Z" fill="#28D6B6"/>
<path d="M-0.345757 -58.0864H1.01817V-56.7225H-0.345757V-58.0864Z" fill="#28D6B6"/>
<path d="M-0.345757 -47.6297H1.01817V-46.2657H-0.345757V-47.6297Z" fill="#28D6B6"/>
<path d="M-0.345757 -37.1729H1.01817V-35.809H-0.345757V-37.1729Z" fill="#28D6B6"/>
<path d="M-0.345757 -26.7161H1.01817V-25.3522H-0.345757V-26.7161Z" fill="#28D6B6"/>
<path d="M-0.345757 -16.2593H1.01817V-14.8954H-0.345757V-16.2593Z" fill="#28D6B6"/>
<path d="M-0.345757 -5.80254H1.01817V-4.43861H-0.345757V-5.80254Z" fill="#28D6B6"/>
<path d="M-0.345757 4.65424H1.01817V6.01817H-0.345757V4.65424Z" fill="#28D6B6"/>
<path d="M-0.345757 15.111H1.01817V16.475H-0.345757V15.111Z" fill="#28D6B6"/>
<path d="M-0.345757 25.5678H1.01817V26.9317H-0.345757V25.5678Z" fill="#28D6B6"/>
<path d="M-0.345757 36.0246H1.01817V37.3885H-0.345757V36.0246Z" fill="#28D6B6"/>
<path d="M-0.345757 46.4814H1.01817V47.8453H-0.345757V46.4814Z" fill="#28D6B6"/>
<path d="M-0.345757 56.9381H1.01817V58.3021H-0.345757V56.9381Z" fill="#28D6B6"/>
<path d="M-0.345757 67.3949H1.01817V68.7589H-0.345757V67.3949Z" fill="#28D6B6"/>
<path d="M-0.345757 77.8517H1.01817V79.2156H-0.345757V77.8517Z" fill="#28D6B6"/>
<path d="M10.111 -79H11.475V-77.6361H10.111V-79Z" fill="#28D6B6"/>
<path d="M10.111 -68.5432H11.475V-67.1793H10.111V-68.5432Z" fill="#28D6B6"/>
<path d="M10.111 -58.0864H11.475V-56.7225H10.111V-58.0864Z" fill="#28D6B6"/>
<path d="M10.111 -47.6297H11.475V-46.2657H10.111V-47.6297Z" fill="#28D6B6"/>
<path d="M10.111 -37.1729H11.475V-35.809H10.111V-37.1729Z" fill="#28D6B6"/>
<path d="M10.111 -26.7161H11.475V-25.3522H10.111V-26.7161Z" fill="#28D6B6"/>
<path d="M10.111 -16.2593H11.475V-14.8954H10.111V-16.2593Z" fill="#28D6B6"/>
<path d="M10.111 -5.80254H11.475V-4.43861H10.111V-5.80254Z" fill="#28D6B6"/>
<path d="M10.111 4.65424H11.475V6.01817H10.111V4.65424Z" fill="#28D6B6"/>
<path d="M10.111 15.111H11.475V16.475H10.111V15.111Z" fill="#28D6B6"/>
<path d="M10.111 25.5678H11.475V26.9317H10.111V25.5678Z" fill="#28D6B6"/>
<path d="M10.111 36.0246H11.475V37.3885H10.111V36.0246Z" fill="#28D6B6"/>
<path d="M10.111 46.4814H11.475V47.8453H10.111V46.4814Z" fill="#28D6B6"/>
<path d="M10.111 56.9381H11.475V58.3021H10.111V56.9381Z" fill="#28D6B6"/>
<path d="M10.111 67.3949H11.475V68.7589H10.111V67.3949Z" fill="#28D6B6"/>
<path d="M10.111 77.8517H11.475V79.2156H10.111V77.8517Z" fill="#28D6B6"/>
<path d="M20.5678 -79H21.9317V-77.6361H20.5678V-79Z" fill="#28D6B6"/>
<path d="M20.5678 -68.5432H21.9317V-67.1793H20.5678V-68.5432Z" fill="#28D6B6"/>
<path d="M20.5678 -58.0864H21.9317V-56.7225H20.5678V-58.0864Z" fill="#28D6B6"/>
<path d="M20.5678 -47.6297H21.9317V-46.2657H20.5678V-47.6297Z" fill="#28D6B6"/>
<path d="M20.5678 -37.1729H21.9317V-35.809H20.5678V-37.1729Z" fill="#28D6B6"/>
<path d="M20.5678 -26.7161H21.9317V-25.3522H20.5678V-26.7161Z" fill="#28D6B6"/>
<path d="M20.5678 -16.2593H21.9317V-14.8954H20.5678V-16.2593Z" fill="#28D6B6"/>
<path d="M20.5678 -5.80254H21.9317V-4.43861H20.5678V-5.80254Z" fill="#28D6B6"/>
<path d="M20.5678 4.65424H21.9317V6.01817H20.5678V4.65424Z" fill="#28D6B6"/>
<path d="M20.5678 15.111H21.9317V16.475H20.5678V15.111Z" fill="#28D6B6"/>
<path d="M20.5678 25.5678H21.9317V26.9317H20.5678V25.5678Z" fill="#28D6B6"/>
<path d="M20.5678 36.0246H21.9317V37.3885H20.5678V36.0246Z" fill="#28D6B6"/>
<path d="M20.5678 46.4814H21.9317V47.8453H20.5678V46.4814Z" fill="#28D6B6"/>
<path d="M20.5678 56.9381H21.9317V58.3021H20.5678V56.9381Z" fill="#28D6B6"/>
<path d="M20.5678 67.3949H21.9317V68.7589H20.5678V67.3949Z" fill="#28D6B6"/>
<path d="M20.5678 77.8517H21.9317V79.2156H20.5678V77.8517Z" fill="#28D6B6"/>
<path d="M31.0246 -79H32.3885V-77.6361H31.0246V-79Z" fill="#28D6B6"/>
<path d="M31.0246 -68.5432H32.3885V-67.1793H31.0246V-68.5432Z" fill="#28D6B6"/>
<path d="M31.0246 -58.0864H32.3885V-56.7225H31.0246V-58.0864Z" fill="#28D6B6"/>
<path d="M31.0246 -47.6297H32.3885V-46.2657H31.0246V-47.6297Z" fill="#28D6B6"/>
<path d="M31.0246 -37.1729H32.3885V-35.809H31.0246V-37.1729Z" fill="#28D6B6"/>
<path d="M31.0246 -26.7161H32.3885V-25.3522H31.0246V-26.7161Z" fill="#28D6B6"/>
<path d="M31.0246 -16.2593H32.3885V-14.8954H31.0246V-16.2593Z" fill="#28D6B6"/>
<path d="M31.0246 -5.80254H32.3885V-4.43861H31.0246V-5.80254Z" fill="#28D6B6"/>
<path d="M31.0246 4.65424H32.3885V6.01817H31.0246V4.65424Z" fill="#28D6B6"/>
<path d="M31.0246 15.111H32.3885V16.475H31.0246V15.111Z" fill="#28D6B6"/>
<path d="M31.0246 25.5678H32.3885V26.9317H31.0246V25.5678Z" fill="#28D6B6"/>
<path d="M31.0246 36.0246H32.3885V37.3885H31.0246V36.0246Z" fill="#28D6B6"/>
<path d="M31.0246 46.4814H32.3885V47.8453H31.0246V46.4814Z" fill="#28D6B6"/>
<path d="M31.0246 56.9381H32.3885V58.3021H31.0246V56.9381Z" fill="#28D6B6"/>
<path d="M31.0246 67.3949H32.3885V68.7589H31.0246V67.3949Z" fill="#28D6B6"/>
<path d="M31.0246 77.8517H32.3885V79.2156H31.0246V77.8517Z" fill="#28D6B6"/>
<path d="M41.4814 -79H42.8453V-77.6361H41.4814V-79Z" fill="#28D6B6"/>
<path d="M41.4814 -68.5432H42.8453V-67.1793H41.4814V-68.5432Z" fill="#28D6B6"/>
<path d="M41.4814 -58.0864H42.8453V-56.7225H41.4814V-58.0864Z" fill="#28D6B6"/>
<path d="M41.4814 -47.6297H42.8453V-46.2657H41.4814V-47.6297Z" fill="#28D6B6"/>
<path d="M41.4814 -37.1729H42.8453V-35.809H41.4814V-37.1729Z" fill="#28D6B6"/>
<path d="M41.4814 -26.7161H42.8453V-25.3522H41.4814V-26.7161Z" fill="#28D6B6"/>
<path d="M41.4814 -16.2593H42.8453V-14.8954H41.4814V-16.2593Z" fill="#28D6B6"/>
<path d="M41.4814 -5.80254H42.8453V-4.43861H41.4814V-5.80254Z" fill="#28D6B6"/>
<path d="M41.4814 4.65424H42.8453V6.01817H41.4814V4.65424Z" fill="#28D6B6"/>
<path d="M41.4814 15.111H42.8453V16.475H41.4814V15.111Z" fill="#28D6B6"/>
<path d="M41.4814 25.5678H42.8453V26.9317H41.4814V25.5678Z" fill="#28D6B6"/>
<path d="M41.4814 36.0246H42.8453V37.3885H41.4814V36.0246Z" fill="#28D6B6"/>
<path d="M41.4814 46.4814H42.8453V47.8453H41.4814V46.4814Z" fill="#28D6B6"/>
<path d="M41.4814 56.9381H42.8453V58.3021H41.4814V56.9381Z" fill="#28D6B6"/>
<path d="M41.4814 67.3949H42.8453V68.7589H41.4814V67.3949Z" fill="#28D6B6"/>
<path d="M41.4814 77.8517H42.8453V79.2156H41.4814V77.8517Z" fill="#28D6B6"/>
<path d="M51.9381 -79H53.3021V-77.6361H51.9381V-79Z" fill="#28D6B6"/>
<path d="M51.9381 -68.5432H53.3021V-67.1793H51.9381V-68.5432Z" fill="#28D6B6"/>
<path d="M51.9381 -58.0864H53.3021V-56.7225H51.9381V-58.0864Z" fill="#28D6B6"/>
<path d="M51.9381 -47.6297H53.3021V-46.2657H51.9381V-47.6297Z" fill="#28D6B6"/>
<path d="M51.9381 -37.1729H53.3021V-35.809H51.9381V-37.1729Z" fill="#28D6B6"/>
<path d="M51.9381 -26.7161H53.3021V-25.3522H51.9381V-26.7161Z" fill="#28D6B6"/>
<path d="M51.9381 -16.2593H53.3021V-14.8954H51.9381V-16.2593Z" fill="#28D6B6"/>
<path d="M51.9381 -5.80254H53.3021V-4.43861H51.9381V-5.80254Z" fill="#28D6B6"/>
<path d="M51.9381 4.65424H53.3021V6.01817H51.9381V4.65424Z" fill="#28D6B6"/>
<path d="M51.9381 15.111H53.3021V16.475H51.9381V15.111Z" fill="#28D6B6"/>
<path d="M51.9381 25.5678H53.3021V26.9317H51.9381V25.5678Z" fill="#28D6B6"/>
<path d="M51.9381 36.0246H53.3021V37.3885H51.9381V36.0246Z" fill="#28D6B6"/>
<path d="M51.9381 46.4814H53.3021V47.8453H51.9381V46.4814Z" fill="#28D6B6"/>
<path d="M51.9381 56.9381H53.3021V58.3021H51.9381V56.9381Z" fill="#28D6B6"/>
<path d="M51.9381 67.3949H53.3021V68.7589H51.9381V67.3949Z" fill="#28D6B6"/>
<path d="M51.9381 77.8517H53.3021V79.2156H51.9381V77.8517Z" fill="#28D6B6"/>
<path d="M62.3949 -79H63.7589V-77.6361H62.3949V-79Z" fill="#28D6B6"/>
<path d="M62.3949 -68.5432H63.7589V-67.1793H62.3949V-68.5432Z" fill="#28D6B6"/>
<path d="M62.3949 -58.0864H63.7589V-56.7225H62.3949V-58.0864Z" fill="#28D6B6"/>
<path d="M62.3949 -47.6297H63.7589V-46.2657H62.3949V-47.6297Z" fill="#28D6B6"/>
<path d="M62.3949 -37.1729H63.7589V-35.809H62.3949V-37.1729Z" fill="#28D6B6"/>
<path d="M62.3949 -26.7161H63.7589V-25.3522H62.3949V-26.7161Z" fill="#28D6B6"/>
<path d="M62.3949 -16.2593H63.7589V-14.8954H62.3949V-16.2593Z" fill="#28D6B6"/>
<path d="M62.3949 -5.80254H63.7589V-4.43861H62.3949V-5.80254Z" fill="#28D6B6"/>
<path d="M62.3949 4.65424H63.7589V6.01817H62.3949V4.65424Z" fill="#28D6B6"/>
<path d="M62.3949 15.111H63.7589V16.475H62.3949V15.111Z" fill="#28D6B6"/>
<path d="M62.3949 25.5678H63.7589V26.9317H62.3949V25.5678Z" fill="#28D6B6"/>
<path d="M62.3949 36.0246H63.7589V37.3885H62.3949V36.0246Z" fill="#28D6B6"/>
<path d="M62.3949 46.4814H63.7589V47.8453H62.3949V46.4814Z" fill="#28D6B6"/>
<path d="M62.3949 56.9381H63.7589V58.3021H62.3949V56.9381Z" fill="#28D6B6"/>
<path d="M62.3949 67.3949H63.7589V68.7589H62.3949V67.3949Z" fill="#28D6B6"/>
<path d="M62.3949 77.8517H63.7589V79.2156H62.3949V77.8517Z" fill="#28D6B6"/>
<path d="M72.8517 -79H74.2156V-77.6361H72.8517V-79Z" fill="#28D6B6"/>
<path d="M72.8517 -68.5432H74.2156V-67.1793H72.8517V-68.5432Z" fill="#28D6B6"/>
<path d="M72.8517 -58.0864H74.2156V-56.7225H72.8517V-58.0864Z" fill="#28D6B6"/>
<path d="M72.8517 -47.6297H74.2156V-46.2657H72.8517V-47.6297Z" fill="#28D6B6"/>
<path d="M72.8517 -37.1729H74.2156V-35.809H72.8517V-37.1729Z" fill="#28D6B6"/>
<path d="M72.8517 -26.7161H74.2156V-25.3522H72.8517V-26.7161Z" fill="#28D6B6"/>
<path d="M72.8517 -16.2593H74.2156V-14.8954H72.8517V-16.2593Z" fill="#28D6B6"/>
<path d="M72.8517 -5.80254H74.2156V-4.43861H72.8517V-5.80254Z" fill="#28D6B6"/>
<path d="M72.8517 4.65424H74.2156V6.01817H72.8517V4.65424Z" fill="#28D6B6"/>
<path d="M72.8517 15.111H74.2156V16.475H72.8517V15.111Z" fill="#28D6B6"/>
<path d="M72.8517 25.5678H74.2156V26.9317H72.8517V25.5678Z" fill="#28D6B6"/>
<path d="M72.8517 36.0246H74.2156V37.3885H72.8517V36.0246Z" fill="#28D6B6"/>
<path d="M72.8517 46.4814H74.2156V47.8453H72.8517V46.4814Z" fill="#28D6B6"/>
<path d="M72.8517 56.9381H74.2156V58.3021H72.8517V56.9381Z" fill="#28D6B6"/>
<path d="M72.8517 67.3949H74.2156V68.7589H72.8517V67.3949Z" fill="#28D6B6"/>
<path d="M72.8517 77.8517H74.2156V79.2156H72.8517V77.8517Z" fill="#28D6B6"/>
<path d="M83.3085 -79H84.6724V-77.6361H83.3085V-79Z" fill="#28D6B6"/>
<path d="M83.3085 -68.5432H84.6724V-67.1793H83.3085V-68.5432Z" fill="#28D6B6"/>
<path d="M83.3085 -58.0864H84.6724V-56.7225H83.3085V-58.0864Z" fill="#28D6B6"/>
<path d="M83.3085 -47.6297H84.6724V-46.2657H83.3085V-47.6297Z" fill="#28D6B6"/>
<path d="M83.3085 -37.1729H84.6724V-35.809H83.3085V-37.1729Z" fill="#28D6B6"/>
<path d="M83.3085 -26.7161H84.6724V-25.3522H83.3085V-26.7161Z" fill="#28D6B6"/>
<path d="M83.3085 -16.2593H84.6724V-14.8954H83.3085V-16.2593Z" fill="#28D6B6"/>
<path d="M83.3085 -5.80254H84.6724V-4.43861H83.3085V-5.80254Z" fill="#28D6B6"/>
<path d="M83.3085 4.65424H84.6724V6.01817H83.3085V4.65424Z" fill="#28D6B6"/>
<path d="M83.3085 15.111H84.6724V16.475H83.3085V15.111Z" fill="#28D6B6"/>
<path d="M83.3085 25.5678H84.6724V26.9317H83.3085V25.5678Z" fill="#28D6B6"/>
<path d="M83.3085 36.0246H84.6724V37.3885H83.3085V36.0246Z" fill="#28D6B6"/>
<path d="M83.3085 46.4814H84.6724V47.8453H83.3085V46.4814Z" fill="#28D6B6"/>
<path d="M83.3085 56.9381H84.6724V58.3021H83.3085V56.9381Z" fill="#28D6B6"/>
<path d="M83.3085 67.3949H84.6724V68.7589H83.3085V67.3949Z" fill="#28D6B6"/>
<path d="M83.3085 77.8517H84.6724V79.2156H83.3085V77.8517Z" fill="#28D6B6"/>
</g>
</g>
<defs>
<radialGradient id="paint0_radial_120_1774" cx="0" cy="0" r="1" gradientUnits="userSpaceOnUse" gradientTransform="translate(0.336205 0.107819) rotate(90) scale(79.1078 84.3362)">
<stop stop-color="#D9D9D9"/>
<stop offset="1" stop-color="#D9D9D9" stop-opacity="0"/>
</radialGradient>
</defs>
</svg>
