<svg width="85" height="79" viewBox="0 0 85 79" fill="none" xmlns="http://www.w3.org/2000/svg">
<g opacity="0.6">
<mask id="mask0_120_1783" style="mask-type:alpha" maskUnits="userSpaceOnUse" x="-84" y="0" width="169" height="159">
<rect x="-84" width="168.672" height="158.216" rx="79.1078" fill="url(#paint0_radial_120_1783)"/>
</mask>
<g mask="url(#mask0_120_1783)">
<path d="M-84 0H-82.6361V1.36393H-84V0Z" fill="#1192F0"/>
<path d="M-84 10.4568H-82.6361V11.8207H-84V10.4568Z" fill="#1192F0"/>
<path d="M-84 20.9136H-82.6361V22.2775H-84V20.9136Z" fill="#1192F0"/>
<path d="M-84 31.3703H-82.6361V32.7343H-84V31.3703Z" fill="#1192F0"/>
<path d="M-84 41.8271H-82.6361V43.191H-84V41.8271Z" fill="#1192F0"/>
<path d="M-84 52.2839H-82.6361V53.6478H-84V52.2839Z" fill="#1192F0"/>
<path d="M-84 62.7407H-82.6361V64.1046H-84V62.7407Z" fill="#1192F0"/>
<path d="M-84 73.1975H-82.6361V74.5614H-84V73.1975Z" fill="#1192F0"/>
<path d="M-84 83.6542H-82.6361V85.0182H-84V83.6542Z" fill="#1192F0"/>
<path d="M-84 94.111H-82.6361V95.475H-84V94.111Z" fill="#1192F0"/>
<path d="M-84 104.568H-82.6361V105.932H-84V104.568Z" fill="#1192F0"/>
<path d="M-84 115.025H-82.6361V116.389H-84V115.025Z" fill="#1192F0"/>
<path d="M-84 125.481H-82.6361V126.845H-84V125.481Z" fill="#1192F0"/>
<path d="M-84 135.938H-82.6361V137.302H-84V135.938Z" fill="#1192F0"/>
<path d="M-84 146.395H-82.6361V147.759H-84V146.395Z" fill="#1192F0"/>
<path d="M-84 156.852H-82.6361V158.216H-84V156.852Z" fill="#1192F0"/>
<path d="M-73.5432 0H-72.1793V1.36393H-73.5432V0Z" fill="#1192F0"/>
<path d="M-73.5432 10.4568H-72.1793V11.8207H-73.5432V10.4568Z" fill="#1192F0"/>
<path d="M-73.5432 20.9136H-72.1793V22.2775H-73.5432V20.9136Z" fill="#1192F0"/>
<path d="M-73.5432 31.3703H-72.1793V32.7343H-73.5432V31.3703Z" fill="#1192F0"/>
<path d="M-73.5432 41.8271H-72.1793V43.191H-73.5432V41.8271Z" fill="#1192F0"/>
<path d="M-73.5432 52.2839H-72.1793V53.6478H-73.5432V52.2839Z" fill="#1192F0"/>
<path d="M-73.5432 62.7407H-72.1793V64.1046H-73.5432V62.7407Z" fill="#1192F0"/>
<path d="M-73.5432 73.1975H-72.1793V74.5614H-73.5432V73.1975Z" fill="#1192F0"/>
<path d="M-73.5432 83.6542H-72.1793V85.0182H-73.5432V83.6542Z" fill="#1192F0"/>
<path d="M-73.5432 94.111H-72.1793V95.475H-73.5432V94.111Z" fill="#1192F0"/>
<path d="M-73.5432 104.568H-72.1793V105.932H-73.5432V104.568Z" fill="#1192F0"/>
<path d="M-73.5432 115.025H-72.1793V116.389H-73.5432V115.025Z" fill="#1192F0"/>
<path d="M-73.5432 125.481H-72.1793V126.845H-73.5432V125.481Z" fill="#1192F0"/>
<path d="M-73.5432 135.938H-72.1793V137.302H-73.5432V135.938Z" fill="#1192F0"/>
<path d="M-73.5432 146.395H-72.1793V147.759H-73.5432V146.395Z" fill="#1192F0"/>
<path d="M-73.5432 156.852H-72.1793V158.216H-73.5432V156.852Z" fill="#1192F0"/>
<path d="M-63.0864 0H-61.7225V1.36393H-63.0864V0Z" fill="#1192F0"/>
<path d="M-63.0864 10.4568H-61.7225V11.8207H-63.0864V10.4568Z" fill="#1192F0"/>
<path d="M-63.0864 20.9136H-61.7225V22.2775H-63.0864V20.9136Z" fill="#1192F0"/>
<path d="M-63.0864 31.3703H-61.7225V32.7343H-63.0864V31.3703Z" fill="#1192F0"/>
<path d="M-63.0864 41.8271H-61.7225V43.191H-63.0864V41.8271Z" fill="#1192F0"/>
<path d="M-63.0864 52.2839H-61.7225V53.6478H-63.0864V52.2839Z" fill="#1192F0"/>
<path d="M-63.0864 62.7407H-61.7225V64.1046H-63.0864V62.7407Z" fill="#1192F0"/>
<path d="M-63.0864 73.1975H-61.7225V74.5614H-63.0864V73.1975Z" fill="#1192F0"/>
<path d="M-63.0864 83.6542H-61.7225V85.0182H-63.0864V83.6542Z" fill="#1192F0"/>
<path d="M-63.0864 94.111H-61.7225V95.475H-63.0864V94.111Z" fill="#1192F0"/>
<path d="M-63.0864 104.568H-61.7225V105.932H-63.0864V104.568Z" fill="#1192F0"/>
<path d="M-63.0864 115.025H-61.7225V116.389H-63.0864V115.025Z" fill="#1192F0"/>
<path d="M-63.0864 125.481H-61.7225V126.845H-63.0864V125.481Z" fill="#1192F0"/>
<path d="M-63.0864 135.938H-61.7225V137.302H-63.0864V135.938Z" fill="#1192F0"/>
<path d="M-63.0864 146.395H-61.7225V147.759H-63.0864V146.395Z" fill="#1192F0"/>
<path d="M-63.0864 156.852H-61.7225V158.216H-63.0864V156.852Z" fill="#1192F0"/>
<path d="M-52.6297 0H-51.2657V1.36393H-52.6297V0Z" fill="#1192F0"/>
<path d="M-52.6297 10.4568H-51.2657V11.8207H-52.6297V10.4568Z" fill="#1192F0"/>
<path d="M-52.6297 20.9136H-51.2657V22.2775H-52.6297V20.9136Z" fill="#1192F0"/>
<path d="M-52.6297 31.3703H-51.2657V32.7343H-52.6297V31.3703Z" fill="#1192F0"/>
<path d="M-52.6297 41.8271H-51.2657V43.191H-52.6297V41.8271Z" fill="#1192F0"/>
<path d="M-52.6297 52.2839H-51.2657V53.6478H-52.6297V52.2839Z" fill="#1192F0"/>
<path d="M-52.6297 62.7407H-51.2657V64.1046H-52.6297V62.7407Z" fill="#1192F0"/>
<path d="M-52.6297 73.1975H-51.2657V74.5614H-52.6297V73.1975Z" fill="#1192F0"/>
<path d="M-52.6297 83.6542H-51.2657V85.0182H-52.6297V83.6542Z" fill="#1192F0"/>
<path d="M-52.6297 94.111H-51.2657V95.475H-52.6297V94.111Z" fill="#1192F0"/>
<path d="M-52.6297 104.568H-51.2657V105.932H-52.6297V104.568Z" fill="#1192F0"/>
<path d="M-52.6297 115.025H-51.2657V116.389H-52.6297V115.025Z" fill="#1192F0"/>
<path d="M-52.6297 125.481H-51.2657V126.845H-52.6297V125.481Z" fill="#1192F0"/>
<path d="M-52.6297 135.938H-51.2657V137.302H-52.6297V135.938Z" fill="#1192F0"/>
<path d="M-52.6297 146.395H-51.2657V147.759H-52.6297V146.395Z" fill="#1192F0"/>
<path d="M-52.6297 156.852H-51.2657V158.216H-52.6297V156.852Z" fill="#1192F0"/>
<path d="M-42.1729 0H-40.809V1.36393H-42.1729V0Z" fill="#1192F0"/>
<path d="M-42.1729 10.4568H-40.809V11.8207H-42.1729V10.4568Z" fill="#1192F0"/>
<path d="M-42.1729 20.9136H-40.809V22.2775H-42.1729V20.9136Z" fill="#1192F0"/>
<path d="M-42.1729 31.3703H-40.809V32.7343H-42.1729V31.3703Z" fill="#1192F0"/>
<path d="M-42.1729 41.8271H-40.809V43.191H-42.1729V41.8271Z" fill="#1192F0"/>
<path d="M-42.1729 52.2839H-40.809V53.6478H-42.1729V52.2839Z" fill="#1192F0"/>
<path d="M-42.1729 62.7407H-40.809V64.1046H-42.1729V62.7407Z" fill="#1192F0"/>
<path d="M-42.1729 73.1975H-40.809V74.5614H-42.1729V73.1975Z" fill="#1192F0"/>
<path d="M-42.1729 83.6542H-40.809V85.0182H-42.1729V83.6542Z" fill="#1192F0"/>
<path d="M-42.1729 94.111H-40.809V95.475H-42.1729V94.111Z" fill="#1192F0"/>
<path d="M-42.1729 104.568H-40.809V105.932H-42.1729V104.568Z" fill="#1192F0"/>
<path d="M-42.1729 115.025H-40.809V116.389H-42.1729V115.025Z" fill="#1192F0"/>
<path d="M-42.1729 125.481H-40.809V126.845H-42.1729V125.481Z" fill="#1192F0"/>
<path d="M-42.1729 135.938H-40.809V137.302H-42.1729V135.938Z" fill="#1192F0"/>
<path d="M-42.1729 146.395H-40.809V147.759H-42.1729V146.395Z" fill="#1192F0"/>
<path d="M-42.1729 156.852H-40.809V158.216H-42.1729V156.852Z" fill="#1192F0"/>
<path d="M-31.7161 0H-30.3522V1.36393H-31.7161V0Z" fill="#1192F0"/>
<path d="M-31.7161 10.4568H-30.3522V11.8207H-31.7161V10.4568Z" fill="#1192F0"/>
<path d="M-31.7161 20.9136H-30.3522V22.2775H-31.7161V20.9136Z" fill="#1192F0"/>
<path d="M-31.7161 31.3703H-30.3522V32.7343H-31.7161V31.3703Z" fill="#1192F0"/>
<path d="M-31.7161 41.8271H-30.3522V43.191H-31.7161V41.8271Z" fill="#1192F0"/>
<path d="M-31.7161 52.2839H-30.3522V53.6478H-31.7161V52.2839Z" fill="#1192F0"/>
<path d="M-31.7161 62.7407H-30.3522V64.1046H-31.7161V62.7407Z" fill="#1192F0"/>
<path d="M-31.7161 73.1975H-30.3522V74.5614H-31.7161V73.1975Z" fill="#1192F0"/>
<path d="M-31.7161 83.6542H-30.3522V85.0182H-31.7161V83.6542Z" fill="#1192F0"/>
<path d="M-31.7161 94.111H-30.3522V95.475H-31.7161V94.111Z" fill="#1192F0"/>
<path d="M-31.7161 104.568H-30.3522V105.932H-31.7161V104.568Z" fill="#1192F0"/>
<path d="M-31.7161 115.025H-30.3522V116.389H-31.7161V115.025Z" fill="#1192F0"/>
<path d="M-31.7161 125.481H-30.3522V126.845H-31.7161V125.481Z" fill="#1192F0"/>
<path d="M-31.7161 135.938H-30.3522V137.302H-31.7161V135.938Z" fill="#1192F0"/>
<path d="M-31.7161 146.395H-30.3522V147.759H-31.7161V146.395Z" fill="#1192F0"/>
<path d="M-31.7161 156.852H-30.3522V158.216H-31.7161V156.852Z" fill="#1192F0"/>
<path d="M-21.2593 0H-19.8954V1.36393H-21.2593V0Z" fill="#1192F0"/>
<path d="M-21.2593 10.4568H-19.8954V11.8207H-21.2593V10.4568Z" fill="#1192F0"/>
<path d="M-21.2593 20.9136H-19.8954V22.2775H-21.2593V20.9136Z" fill="#1192F0"/>
<path d="M-21.2593 31.3703H-19.8954V32.7343H-21.2593V31.3703Z" fill="#1192F0"/>
<path d="M-21.2593 41.8271H-19.8954V43.191H-21.2593V41.8271Z" fill="#1192F0"/>
<path d="M-21.2593 52.2839H-19.8954V53.6478H-21.2593V52.2839Z" fill="#1192F0"/>
<path d="M-21.2593 62.7407H-19.8954V64.1046H-21.2593V62.7407Z" fill="#1192F0"/>
<path d="M-21.2593 73.1975H-19.8954V74.5614H-21.2593V73.1975Z" fill="#1192F0"/>
<path d="M-21.2593 83.6542H-19.8954V85.0182H-21.2593V83.6542Z" fill="#1192F0"/>
<path d="M-21.2593 94.111H-19.8954V95.475H-21.2593V94.111Z" fill="#1192F0"/>
<path d="M-21.2593 104.568H-19.8954V105.932H-21.2593V104.568Z" fill="#1192F0"/>
<path d="M-21.2593 115.025H-19.8954V116.389H-21.2593V115.025Z" fill="#1192F0"/>
<path d="M-21.2593 125.481H-19.8954V126.845H-21.2593V125.481Z" fill="#1192F0"/>
<path d="M-21.2593 135.938H-19.8954V137.302H-21.2593V135.938Z" fill="#1192F0"/>
<path d="M-21.2593 146.395H-19.8954V147.759H-21.2593V146.395Z" fill="#1192F0"/>
<path d="M-21.2593 156.852H-19.8954V158.216H-21.2593V156.852Z" fill="#1192F0"/>
<path d="M-10.8025 0H-9.43861V1.36393H-10.8025V0Z" fill="#1192F0"/>
<path d="M-10.8025 10.4568H-9.43861V11.8207H-10.8025V10.4568Z" fill="#1192F0"/>
<path d="M-10.8025 20.9136H-9.43861V22.2775H-10.8025V20.9136Z" fill="#1192F0"/>
<path d="M-10.8025 31.3703H-9.43861V32.7343H-10.8025V31.3703Z" fill="#1192F0"/>
<path d="M-10.8025 41.8271H-9.43861V43.191H-10.8025V41.8271Z" fill="#1192F0"/>
<path d="M-10.8025 52.2839H-9.43861V53.6478H-10.8025V52.2839Z" fill="#1192F0"/>
<path d="M-10.8025 62.7407H-9.43861V64.1046H-10.8025V62.7407Z" fill="#1192F0"/>
<path d="M-10.8025 73.1975H-9.43861V74.5614H-10.8025V73.1975Z" fill="#1192F0"/>
<path d="M-10.8025 83.6542H-9.43861V85.0182H-10.8025V83.6542Z" fill="#1192F0"/>
<path d="M-10.8025 94.111H-9.43861V95.475H-10.8025V94.111Z" fill="#1192F0"/>
<path d="M-10.8025 104.568H-9.43861V105.932H-10.8025V104.568Z" fill="#1192F0"/>
<path d="M-10.8025 115.025H-9.43861V116.389H-10.8025V115.025Z" fill="#1192F0"/>
<path d="M-10.8025 125.481H-9.43861V126.845H-10.8025V125.481Z" fill="#1192F0"/>
<path d="M-10.8025 135.938H-9.43861V137.302H-10.8025V135.938Z" fill="#1192F0"/>
<path d="M-10.8025 146.395H-9.43861V147.759H-10.8025V146.395Z" fill="#1192F0"/>
<path d="M-10.8025 156.852H-9.43861V158.216H-10.8025V156.852Z" fill="#1192F0"/>
<path d="M-0.345757 0H1.01817V1.36393H-0.345757V0Z" fill="#1192F0"/>
<path d="M-0.345757 10.4568H1.01817V11.8207H-0.345757V10.4568Z" fill="#1192F0"/>
<path d="M-0.345757 20.9136H1.01817V22.2775H-0.345757V20.9136Z" fill="#1192F0"/>
<path d="M-0.345757 31.3703H1.01817V32.7343H-0.345757V31.3703Z" fill="#1192F0"/>
<path d="M-0.345757 41.8271H1.01817V43.191H-0.345757V41.8271Z" fill="#1192F0"/>
<path d="M-0.345757 52.2839H1.01817V53.6478H-0.345757V52.2839Z" fill="#1192F0"/>
<path d="M-0.345757 62.7407H1.01817V64.1046H-0.345757V62.7407Z" fill="#1192F0"/>
<path d="M-0.345757 73.1975H1.01817V74.5614H-0.345757V73.1975Z" fill="#1192F0"/>
<path d="M-0.345757 83.6542H1.01817V85.0182H-0.345757V83.6542Z" fill="#1192F0"/>
<path d="M-0.345757 94.111H1.01817V95.475H-0.345757V94.111Z" fill="#1192F0"/>
<path d="M-0.345757 104.568H1.01817V105.932H-0.345757V104.568Z" fill="#1192F0"/>
<path d="M-0.345757 115.025H1.01817V116.389H-0.345757V115.025Z" fill="#1192F0"/>
<path d="M-0.345757 125.481H1.01817V126.845H-0.345757V125.481Z" fill="#1192F0"/>
<path d="M-0.345757 135.938H1.01817V137.302H-0.345757V135.938Z" fill="#1192F0"/>
<path d="M-0.345757 146.395H1.01817V147.759H-0.345757V146.395Z" fill="#1192F0"/>
<path d="M-0.345757 156.852H1.01817V158.216H-0.345757V156.852Z" fill="#1192F0"/>
<path d="M10.111 0H11.475V1.36393H10.111V0Z" fill="#1192F0"/>
<path d="M10.111 10.4568H11.475V11.8207H10.111V10.4568Z" fill="#1192F0"/>
<path d="M10.111 20.9136H11.475V22.2775H10.111V20.9136Z" fill="#1192F0"/>
<path d="M10.111 31.3703H11.475V32.7343H10.111V31.3703Z" fill="#1192F0"/>
<path d="M10.111 41.8271H11.475V43.191H10.111V41.8271Z" fill="#1192F0"/>
<path d="M10.111 52.2839H11.475V53.6478H10.111V52.2839Z" fill="#1192F0"/>
<path d="M10.111 62.7407H11.475V64.1046H10.111V62.7407Z" fill="#1192F0"/>
<path d="M10.111 73.1975H11.475V74.5614H10.111V73.1975Z" fill="#1192F0"/>
<path d="M10.111 83.6542H11.475V85.0182H10.111V83.6542Z" fill="#1192F0"/>
<path d="M10.111 94.111H11.475V95.475H10.111V94.111Z" fill="#1192F0"/>
<path d="M10.111 104.568H11.475V105.932H10.111V104.568Z" fill="#1192F0"/>
<path d="M10.111 115.025H11.475V116.389H10.111V115.025Z" fill="#1192F0"/>
<path d="M10.111 125.481H11.475V126.845H10.111V125.481Z" fill="#1192F0"/>
<path d="M10.111 135.938H11.475V137.302H10.111V135.938Z" fill="#1192F0"/>
<path d="M10.111 146.395H11.475V147.759H10.111V146.395Z" fill="#1192F0"/>
<path d="M10.111 156.852H11.475V158.216H10.111V156.852Z" fill="#1192F0"/>
<path d="M20.5678 0H21.9317V1.36393H20.5678V0Z" fill="#1192F0"/>
<path d="M20.5678 10.4568H21.9317V11.8207H20.5678V10.4568Z" fill="#1192F0"/>
<path d="M20.5678 20.9136H21.9317V22.2775H20.5678V20.9136Z" fill="#1192F0"/>
<path d="M20.5678 31.3703H21.9317V32.7343H20.5678V31.3703Z" fill="#1192F0"/>
<path d="M20.5678 41.8271H21.9317V43.191H20.5678V41.8271Z" fill="#1192F0"/>
<path d="M20.5678 52.2839H21.9317V53.6478H20.5678V52.2839Z" fill="#1192F0"/>
<path d="M20.5678 62.7407H21.9317V64.1046H20.5678V62.7407Z" fill="#1192F0"/>
<path d="M20.5678 73.1975H21.9317V74.5614H20.5678V73.1975Z" fill="#1192F0"/>
<path d="M20.5678 83.6542H21.9317V85.0182H20.5678V83.6542Z" fill="#1192F0"/>
<path d="M20.5678 94.111H21.9317V95.475H20.5678V94.111Z" fill="#1192F0"/>
<path d="M20.5678 104.568H21.9317V105.932H20.5678V104.568Z" fill="#1192F0"/>
<path d="M20.5678 115.025H21.9317V116.389H20.5678V115.025Z" fill="#1192F0"/>
<path d="M20.5678 125.481H21.9317V126.845H20.5678V125.481Z" fill="#1192F0"/>
<path d="M20.5678 135.938H21.9317V137.302H20.5678V135.938Z" fill="#1192F0"/>
<path d="M20.5678 146.395H21.9317V147.759H20.5678V146.395Z" fill="#1192F0"/>
<path d="M20.5678 156.852H21.9317V158.216H20.5678V156.852Z" fill="#1192F0"/>
<path d="M31.0246 0H32.3885V1.36393H31.0246V0Z" fill="#1192F0"/>
<path d="M31.0246 10.4568H32.3885V11.8207H31.0246V10.4568Z" fill="#1192F0"/>
<path d="M31.0246 20.9136H32.3885V22.2775H31.0246V20.9136Z" fill="#1192F0"/>
<path d="M31.0246 31.3703H32.3885V32.7343H31.0246V31.3703Z" fill="#1192F0"/>
<path d="M31.0246 41.8271H32.3885V43.191H31.0246V41.8271Z" fill="#1192F0"/>
<path d="M31.0246 52.2839H32.3885V53.6478H31.0246V52.2839Z" fill="#1192F0"/>
<path d="M31.0246 62.7407H32.3885V64.1046H31.0246V62.7407Z" fill="#1192F0"/>
<path d="M31.0246 73.1975H32.3885V74.5614H31.0246V73.1975Z" fill="#1192F0"/>
<path d="M31.0246 83.6542H32.3885V85.0182H31.0246V83.6542Z" fill="#1192F0"/>
<path d="M31.0246 94.111H32.3885V95.475H31.0246V94.111Z" fill="#1192F0"/>
<path d="M31.0246 104.568H32.3885V105.932H31.0246V104.568Z" fill="#1192F0"/>
<path d="M31.0246 115.025H32.3885V116.389H31.0246V115.025Z" fill="#1192F0"/>
<path d="M31.0246 125.481H32.3885V126.845H31.0246V125.481Z" fill="#1192F0"/>
<path d="M31.0246 135.938H32.3885V137.302H31.0246V135.938Z" fill="#1192F0"/>
<path d="M31.0246 146.395H32.3885V147.759H31.0246V146.395Z" fill="#1192F0"/>
<path d="M31.0246 156.852H32.3885V158.216H31.0246V156.852Z" fill="#1192F0"/>
<path d="M41.4814 0H42.8453V1.36393H41.4814V0Z" fill="#1192F0"/>
<path d="M41.4814 10.4568H42.8453V11.8207H41.4814V10.4568Z" fill="#1192F0"/>
<path d="M41.4814 20.9136H42.8453V22.2775H41.4814V20.9136Z" fill="#1192F0"/>
<path d="M41.4814 31.3703H42.8453V32.7343H41.4814V31.3703Z" fill="#1192F0"/>
<path d="M41.4814 41.8271H42.8453V43.191H41.4814V41.8271Z" fill="#1192F0"/>
<path d="M41.4814 52.2839H42.8453V53.6478H41.4814V52.2839Z" fill="#1192F0"/>
<path d="M41.4814 62.7407H42.8453V64.1046H41.4814V62.7407Z" fill="#1192F0"/>
<path d="M41.4814 73.1975H42.8453V74.5614H41.4814V73.1975Z" fill="#1192F0"/>
<path d="M41.4814 83.6542H42.8453V85.0182H41.4814V83.6542Z" fill="#1192F0"/>
<path d="M41.4814 94.111H42.8453V95.475H41.4814V94.111Z" fill="#1192F0"/>
<path d="M41.4814 104.568H42.8453V105.932H41.4814V104.568Z" fill="#1192F0"/>
<path d="M41.4814 115.025H42.8453V116.389H41.4814V115.025Z" fill="#1192F0"/>
<path d="M41.4814 125.481H42.8453V126.845H41.4814V125.481Z" fill="#1192F0"/>
<path d="M41.4814 135.938H42.8453V137.302H41.4814V135.938Z" fill="#1192F0"/>
<path d="M41.4814 146.395H42.8453V147.759H41.4814V146.395Z" fill="#1192F0"/>
<path d="M41.4814 156.852H42.8453V158.216H41.4814V156.852Z" fill="#1192F0"/>
<path d="M51.9381 0H53.3021V1.36393H51.9381V0Z" fill="#1192F0"/>
<path d="M51.9381 10.4568H53.3021V11.8207H51.9381V10.4568Z" fill="#1192F0"/>
<path d="M51.9381 20.9136H53.3021V22.2775H51.9381V20.9136Z" fill="#1192F0"/>
<path d="M51.9381 31.3703H53.3021V32.7343H51.9381V31.3703Z" fill="#1192F0"/>
<path d="M51.9381 41.8271H53.3021V43.191H51.9381V41.8271Z" fill="#1192F0"/>
<path d="M51.9381 52.2839H53.3021V53.6478H51.9381V52.2839Z" fill="#1192F0"/>
<path d="M51.9381 62.7407H53.3021V64.1046H51.9381V62.7407Z" fill="#1192F0"/>
<path d="M51.9381 73.1975H53.3021V74.5614H51.9381V73.1975Z" fill="#1192F0"/>
<path d="M51.9381 83.6542H53.3021V85.0182H51.9381V83.6542Z" fill="#1192F0"/>
<path d="M51.9381 94.111H53.3021V95.475H51.9381V94.111Z" fill="#1192F0"/>
<path d="M51.9381 104.568H53.3021V105.932H51.9381V104.568Z" fill="#1192F0"/>
<path d="M51.9381 115.025H53.3021V116.389H51.9381V115.025Z" fill="#1192F0"/>
<path d="M51.9381 125.481H53.3021V126.845H51.9381V125.481Z" fill="#1192F0"/>
<path d="M51.9381 135.938H53.3021V137.302H51.9381V135.938Z" fill="#1192F0"/>
<path d="M51.9381 146.395H53.3021V147.759H51.9381V146.395Z" fill="#1192F0"/>
<path d="M51.9381 156.852H53.3021V158.216H51.9381V156.852Z" fill="#1192F0"/>
<path d="M62.3949 0H63.7589V1.36393H62.3949V0Z" fill="#1192F0"/>
<path d="M62.3949 10.4568H63.7589V11.8207H62.3949V10.4568Z" fill="#1192F0"/>
<path d="M62.3949 20.9136H63.7589V22.2775H62.3949V20.9136Z" fill="#1192F0"/>
<path d="M62.3949 31.3703H63.7589V32.7343H62.3949V31.3703Z" fill="#1192F0"/>
<path d="M62.3949 41.8271H63.7589V43.191H62.3949V41.8271Z" fill="#1192F0"/>
<path d="M62.3949 52.2839H63.7589V53.6478H62.3949V52.2839Z" fill="#1192F0"/>
<path d="M62.3949 62.7407H63.7589V64.1046H62.3949V62.7407Z" fill="#1192F0"/>
<path d="M62.3949 73.1975H63.7589V74.5614H62.3949V73.1975Z" fill="#1192F0"/>
<path d="M62.3949 83.6542H63.7589V85.0182H62.3949V83.6542Z" fill="#1192F0"/>
<path d="M62.3949 94.111H63.7589V95.475H62.3949V94.111Z" fill="#1192F0"/>
<path d="M62.3949 104.568H63.7589V105.932H62.3949V104.568Z" fill="#1192F0"/>
<path d="M62.3949 115.025H63.7589V116.389H62.3949V115.025Z" fill="#1192F0"/>
<path d="M62.3949 125.481H63.7589V126.845H62.3949V125.481Z" fill="#1192F0"/>
<path d="M62.3949 135.938H63.7589V137.302H62.3949V135.938Z" fill="#1192F0"/>
<path d="M62.3949 146.395H63.7589V147.759H62.3949V146.395Z" fill="#1192F0"/>
<path d="M62.3949 156.852H63.7589V158.216H62.3949V156.852Z" fill="#1192F0"/>
<path d="M72.8517 0H74.2156V1.36393H72.8517V0Z" fill="#1192F0"/>
<path d="M72.8517 10.4568H74.2156V11.8207H72.8517V10.4568Z" fill="#1192F0"/>
<path d="M72.8517 20.9136H74.2156V22.2775H72.8517V20.9136Z" fill="#1192F0"/>
<path d="M72.8517 31.3703H74.2156V32.7343H72.8517V31.3703Z" fill="#1192F0"/>
<path d="M72.8517 41.8271H74.2156V43.191H72.8517V41.8271Z" fill="#1192F0"/>
<path d="M72.8517 52.2839H74.2156V53.6478H72.8517V52.2839Z" fill="#1192F0"/>
<path d="M72.8517 62.7407H74.2156V64.1046H72.8517V62.7407Z" fill="#1192F0"/>
<path d="M72.8517 73.1975H74.2156V74.5614H72.8517V73.1975Z" fill="#1192F0"/>
<path d="M72.8517 83.6542H74.2156V85.0182H72.8517V83.6542Z" fill="#1192F0"/>
<path d="M72.8517 94.111H74.2156V95.475H72.8517V94.111Z" fill="#1192F0"/>
<path d="M72.8517 104.568H74.2156V105.932H72.8517V104.568Z" fill="#1192F0"/>
<path d="M72.8517 115.025H74.2156V116.389H72.8517V115.025Z" fill="#1192F0"/>
<path d="M72.8517 125.481H74.2156V126.845H72.8517V125.481Z" fill="#1192F0"/>
<path d="M72.8517 135.938H74.2156V137.302H72.8517V135.938Z" fill="#1192F0"/>
<path d="M72.8517 146.395H74.2156V147.759H72.8517V146.395Z" fill="#1192F0"/>
<path d="M72.8517 156.852H74.2156V158.216H72.8517V156.852Z" fill="#1192F0"/>
<path d="M83.3085 0H84.6724V1.36393H83.3085V0Z" fill="#1192F0"/>
<path d="M83.3085 10.4568H84.6724V11.8207H83.3085V10.4568Z" fill="#1192F0"/>
<path d="M83.3085 20.9136H84.6724V22.2775H83.3085V20.9136Z" fill="#1192F0"/>
<path d="M83.3085 31.3703H84.6724V32.7343H83.3085V31.3703Z" fill="#1192F0"/>
<path d="M83.3085 41.8271H84.6724V43.191H83.3085V41.8271Z" fill="#1192F0"/>
<path d="M83.3085 52.2839H84.6724V53.6478H83.3085V52.2839Z" fill="#1192F0"/>
<path d="M83.3085 62.7407H84.6724V64.1046H83.3085V62.7407Z" fill="#1192F0"/>
<path d="M83.3085 73.1975H84.6724V74.5614H83.3085V73.1975Z" fill="#1192F0"/>
<path d="M83.3085 83.6542H84.6724V85.0182H83.3085V83.6542Z" fill="#1192F0"/>
<path d="M83.3085 94.111H84.6724V95.475H83.3085V94.111Z" fill="#1192F0"/>
<path d="M83.3085 104.568H84.6724V105.932H83.3085V104.568Z" fill="#1192F0"/>
<path d="M83.3085 115.025H84.6724V116.389H83.3085V115.025Z" fill="#1192F0"/>
<path d="M83.3085 125.481H84.6724V126.845H83.3085V125.481Z" fill="#1192F0"/>
<path d="M83.3085 135.938H84.6724V137.302H83.3085V135.938Z" fill="#1192F0"/>
<path d="M83.3085 146.395H84.6724V147.759H83.3085V146.395Z" fill="#1192F0"/>
<path d="M83.3085 156.852H84.6724V158.216H83.3085V156.852Z" fill="#1192F0"/>
</g>
</g>
<defs>
<radialGradient id="paint0_radial_120_1783" cx="0" cy="0" r="1" gradientUnits="userSpaceOnUse" gradientTransform="translate(0.336205 79.1078) rotate(90) scale(79.1078 84.3362)">
<stop stop-color="#D9D9D9"/>
<stop offset="1" stop-color="#D9D9D9" stop-opacity="0"/>
</radialGradient>
</defs>
</svg>
